<?xml version="1.0" encoding="utf-8"?>
<!DOCTYPE svg PUBLIC "-//W3C//DTD SVG 1.1//EN" "http://www.w3.org/Graphics/SVG/1.1/DTD/svg11.dtd">
<svg version="1.1" id="Layer_1" xmlns="http://www.w3.org/2000/svg" xmlns:xlink="http://www.w3.org/1999/xlink" x="0px" y="0px"
	 width="500px" height="500px" viewBox="0 0 500 500" enable-background="new 0 0 500 500" xml:space="preserve">
<g>
	<g>
		<path fill="#466ba1" d="M305.238,63.61c8.153,40.107,15.393,82.101,23.073,123.519
			c2.473,13.344,4.218,26.812,9.501,38.683c1.614,7.664,3.799,14.751,8.827,19.002c-0.349,3.06,0.043,5.381,2.032,6.109
			c-0.44,3.049-0.489,4.49-2.032,7.468c1.315,2.527,5.669,2.021,6.783,4.756c-1.69,5.093-7.077,6.495-10.181,10.175
			c4.451,7.278-3.098,14.35-4.071,19.688c-1.81,9.946,4.234,15.191,6.789,23.746c-2.811,7.441-3.93,20.432-3.397,27.15
			c2.826,3.733,5.957,7.163,6.789,12.893c-53.315,2.114-108.669,2.185-164.24,2.038c-1.071,3.229-1.729,6.864-3.397,9.512
			c3.555,6.614,9.164,11.186,14.925,15.6c0.712,6.55-7.061,13.92,2.038,15.61c-3.538,2.56-4.729,7.484-8.816,9.506
			c-0.114,1.468,2.402,0.305,3.392,0.669c-8.669,4.685-20.35,6.354-33.938,6.12c3.566-3.664,10.24,0.843,14.937-3.402
			c-2.163-4.626-6.522-7.045-10.186-10.181c-2.745-5.506,1.646-10.571-0.674-16.964c-1.163-1.782-3.794-2.093-5.435-3.396
			c-2.849,2.766-4.995,7.565-6.104,12.903c-1.098,5.283,1.446,13.604-4.077,13.566c-2.848,2.658-1.293-3.218-3.392-3.392
			c-4.767-0.06-8.897-1.5-11.534-0.674c-1.098-35.232-2.104-72.589-4.077-105.875c-0.06-1.104-0.082-2.305,0-3.402
			c5.392-73.481,18.545-150.016,25.117-222.605c-2.142-3.065-5.392-5.022-6.115-9.506C197.646,63.056,252.554,64.029,305.238,63.61
			z"/>
	</g>
</g>
</svg>
