<?xml version="1.0" encoding="utf-8"?>
<!DOCTYPE svg PUBLIC "-//W3C//DTD SVG 1.1//EN" "http://www.w3.org/Graphics/SVG/1.1/DTD/svg11.dtd">
<svg version="1.1" id="Layer_1" xmlns="http://www.w3.org/2000/svg" xmlns:xlink="http://www.w3.org/1999/xlink" x="0px" y="0px"
	 width="500px" height="500px" viewBox="0 0 500 500" enable-background="new 0 0 500 500" xml:space="preserve">
<g>
	<g>
		<path fill="#466ba1" d="M239.876,93.448c8.491,1.053,10.91,8.181,18.61,10.022
			c17.986,56.457,30.479,118.41,44.382,178.952c8.283-0.306,12.136-5.043,20.04-5.728c-5.065,12.954,14.247,13.247,21.475,18.611
			c8.988-2.942,10.453-13.405,17.18-18.611c27.959,12.602,35.011,46.117,74.444,47.244c5.521,6.884,9.862,14.951,8.59,28.632
			c-14.985,8.876-27.854,11.097-44.38-1.432c-2.861-2.169-4.193-7.396-7.157-10.022c-6.156-5.443-15.29-7.338-20.043-11.451
			c-6.792-5.878-9.997-16.427-17.181-21.477c-11.952-8.398-45.174-19.077-60.128-18.608c-6.247,0.196-11.442,3.524-18.609,5.726
			c-13.546-4.735-21.141-17.616-41.518-11.453c-1.72,4.611,2.55,8.508,0,15.747c-11.762,5.895-22.962,12.354-34.359,18.611
			c-2.042-6.337,4.845-3.745,4.295-8.589c-0.392-5.023-5.333,3.591-5.726-1.434c-0.613-14.45,9.697-17.978,15.747-25.767
			c-17.151-2.459-27.094,26.077-37.222,40.085c0.158,3.658,4.794,2.841,8.59,2.864c-21.252,32.386-54.438,58.186-93.056,75.876
			c-11.75,5.381-25.418,14.131-38.653,11.451c0.554-11.423,13.139-6.151,20.043-8.589c9.607-3.396,12.291-11.09,18.61-15.747
			c4.124-0.172,9.372,0.782,11.453-1.434c8.397-14.509,24.217-21.594,35.79-32.927c-2.562-13.54,4.291-17.661,7.158-25.771
			c-8.871,1.152-13.887,6.156-20.043,10.022c-5.566-3.021-8.792-8.387-12.885-12.883c-5.022,1.657-7.727,5.632-14.316,5.726
			c-3.542-2.176-4.356-12.275,0-14.316c-4.167-15.399-32.798-6.333-35.79-22.905c4.071-11.606-3.277-16.789-7.157-24.339
			c5.905-10.796,20.308-13.095,21.474-28.631c6.268-0.542,7.361,4.092,12.884,4.295c6.524-5.406,12.832-11.029,21.475-14.317
			c-1.072-6.562-1.183-14.089-2.863-20.041c-12.305,10.166-30.509,8.953-44.38,0c-1.961-10.45-4.788-20.029-11.454-25.77
			c12.182-2.134,22.392-6.242,31.495-11.454c6.874,1.719,2.18,15,10.021,15.747c13.117,1.688,12.067-11.892,10.021-21.474
			c-16.972-5.458-24.045-20.813-31.495-35.79c2.497-5.618,12.372-3.853,18.61-5.727c14.377-15.211,20.255-38.919,51.538-37.224
			c0-1.429,0-2.862,0-4.293c16.672-0.447,27.931,4.519,37.223,11.452c17.182-3.078,31.667,0.584,47.244,2.865
			C236.163,100.232,235.719,94.54,239.876,93.448z"/>
	</g>
</g>
</svg>
