<?xml version="1.0" encoding="UTF-8" standalone="no"?>
<!--
************* Copyright (c) 2017 Pareto Softare, LLC DBA Simplemaps.com *******************		
************* Free for Commercial Use, full terms at  http://simplemaps.com/resources/svg-license ************
************* Attribution is appreciated! http://simplemaps.com ***************************
-->
<svg
   fill="#466ba1"
   height="225"
   version="1.2"
   viewbox="0 0 1000 1298"
   width="125"
   id="svg5"
   xmlns:inkscape="http://www.inkscape.org/namespaces/inkscape"
   xmlns:sodipodi="http://sodipodi.sourceforge.net/DTD/sodipodi-0.dtd"
   xmlns="http://www.w3.org/2000/svg"
   xmlns:svg="http://www.w3.org/2000/svg">
  <defs
     id="defs9" />
  <g
     id="g2" />
  <path
     d="m 120.0235,5.883032 v 215.699998 0.1 H 74.123505 l 0.2,-1 -1.1,-0.8 -0.1,-0.9 -0.8,-0.6 -1.7,-0.4 -0.1,-0.9 -0.5,-0.1 -0.5,-1.2 -1,-0.7 -0.4,-0.8 v -0.9 l 0.4,-1.2 h -0.7 l -1.3,-0.7 0.6,-0.9 0.7,-2.6 -0.7,-1.9 v -1.2 l 0.5,-0.4 -0.3,-1.6 -0.6,-0.8 -0.2,-1.5 -0.4,-2.7 -0.9,-0.9 -1.7,-2.8 -1.1,-0.5 -0.7,0.2 -0.3,0.6 -1.4,-1.6 0.3,-0.5 -0.6,-1.2 -2.1,-1.1 -0.5,-0.7 -0.9,-0.3 0.2,-0.6 0.7,-0.3 -0.6,-1.3 -1.6,-1.2 -0.6,-0.8 -1,-0.1 -1.3,-1 -0.1,-1.3 -0.2,-0.4 -1.1,-0.4 -0.4,-0.8 h -0.6 l -0.7,-1.3 v -1.3 l -1,-0.8 -0.2,-0.9 -0.7,-0.5 -0.2,-0.7 -1.1,-0.6 -0.2,-1.2 -1,-1.9 -0.8,0.3 -1.1,1.6 -0.9,-0.2 -1.1,-2.6 -0.2,-1 -0.7,-0.9 -0.8,-0.4 -1,-1.1 -0.4,-2.2 -0.8,0.6 -1.3,-0.3 -1.1,0.4 -0.9,-1 -1,-0.3 -0.7,-1.5 0.9,-0.9 0.1,-0.8 -0.3,-0.6 -1.5,-0.4 -1.2,-1.1 -0.6,0.8 -0.2,0.8 -1,0.1 -0.6,0.5 -0.6,-1.2 0.2,-1.1 -0.4,-0.6 v -0.7 l -0.6,-0.5 -0.2,-0.8 0.5,-0.9 -0.6,-1.3 -0.7,-0.6 v -0.8 l -1.1,-1.4 -1,0.4 -0.8,-1.7 0.2,-0.9 -0.7,-0.9 -0.3,-0.8 -1.1,-1.5 -1.3,-0.9 -0.5,0.2 -0.3,1.7 -1.4,-0.9 -1.4,-0.5 -0.8,-1.4 -0.3,-1.4 h -1.1 l -1.5,-0.4 -0.4,0.4 -1.3000001,-1.1 -0.8,-1.8 -0.9,-0.3 0.2,-0.8 -0.2,-1 1.8,0.3 0.1000001,-0.7 -0.8000001,-1.2 -1.2,-0.3 0.2,-0.9 -0.9,-0.5 -0.2,-1.4 V 5.883032 Z"
     id="CAN632"
     name="Alberta" />
</svg>
