<?xml version="1.0" encoding="utf-8"?>
<!DOCTYPE svg PUBLIC "-//W3C//DTD SVG 1.1//EN" "http://www.w3.org/Graphics/SVG/1.1/DTD/svg11.dtd">
<svg version="1.1" id="Layer_1" xmlns="http://www.w3.org/2000/svg" xmlns:xlink="http://www.w3.org/1999/xlink" x="0px" y="0px"
	 width="500px" height="500px" viewBox="0 0 500 500" enable-background="new 0 0 500 500" xml:space="preserve">
<g>
	<g>
		<path fill="#466ba1" d="M155.353,67.768c79.13,6.744,158.255,13.483,237.39,20.232
			c-7.865,108.047-15.793,216.157-21.805,322.652c-0.723,8.48-1.446,16.957-2.169,25.434c-19.781-1.684-39.567-3.372-59.344-5.056
			c-38.476-0.049-61.057-14.333-87.334-27.37c-46.113-22.876-90.944-43.041-136.732-65.738c0.199-2.354,0.403-4.711,0.602-7.064
			c2.698-10.281,18.976-4.464,18.641-18.34c-12.664-4.774-8.389-17.171-10.306-29.34c12.406-2.911,16.38-15.836,17.016-32.716
			c5.531-6.923,13.77-10.63,19.941-16.802c-12.799-15.4-23.881-41.271-12.955-65.151c-5.095-12.984-1.397-39.602-2.727-51.469
			c14.284-5.619,18.758,6.385,27.656,9.476C150.379,110.62,154.11,90.664,155.353,67.768z"/>
	</g>
</g>
</svg>
