<?xml version="1.0" encoding="utf-8"?>
<!DOCTYPE svg PUBLIC "-//W3C//DTD SVG 1.1//EN" "http://www.w3.org/Graphics/SVG/1.1/DTD/svg11.dtd">
<svg version="1.1" id="Layer_1" xmlns="http://www.w3.org/2000/svg" xmlns:xlink="http://www.w3.org/1999/xlink" x="0px" y="0px"
	 width="500px" height="500px" viewBox="0 0 500 500" enable-background="new 0 0 500 500" xml:space="preserve">
<g>
	<g>
		<g>
			<path fill="#466ba1" d="M373.435,63.398c15.602,0,31.21,0,46.811,0
				c0.971,2.506,2.71,4.237,5.201,5.208c-0.994,14.036-13.013,17.031-17.332,27.74c10.031,5.569,23.639,7.563,36.41,10.408
				c0,1.151,0,2.311,0,3.462c-8.279,15.782,0.639,38.208-1.739,58.958c-0.782,6.728-11.943,3.07-15.601,6.931
				c-0.181,7.707,4.847,10.175,3.462,19.078c-4.629,1.731-9.648-1.001-13.863,1.731c-12.575,8.12-4.229,20.146-6.946,34.671
				c-0.985,5.313-6.788,9.753-10.4,17.34c-6.57,13.81-4.064,27.748-19.07,31.217c8.851,13.178-11.108,24.315-13.863,38.141
				c-2.731,13.607,5.75,33.039-13.877,34.68c12.666,29.998-3.409,41.361-1.731,76.289c-39.646,4.861-85.523,3.478-126.577,6.938
				c-44.508,0-89,0-133.508,0c-0.271-17.64-4.952-30.886-3.47-50.287c-15.037-3.454-34.491-2.491-39.872-15.602
				c10.408-93.328,14.796-211.16-10.401-291.288c0-1.159,0-2.318,0-3.477C148.419,72.527,258.914,67.244,373.435,63.398z"/>
		</g>
	</g>
</g>
</svg>
