<?xml version="1.0" encoding="UTF-8" standalone="no"?>
<!--
************* Copyright (c) 2017 Pareto Softare, LLC DBA Simplemaps.com *******************		
************* Free for Commercial Use, full terms at  http://simplemaps.com/resources/svg-license ************
************* Attribution is appreciated! http://simplemaps.com ***************************
-->
<svg
   fill="#466ba1"
   height="231"
   version="1.2"
   viewbox="0 0 1000 1298"
   width="286"
   id="svg5"
   xmlns:inkscape="http://www.inkscape.org/namespaces/inkscape"
   xmlns:sodipodi="http://sodipodi.sourceforge.net/DTD/sodipodi-0.dtd"
   xmlns="http://www.w3.org/2000/svg"
   xmlns:svg="http://www.w3.org/2000/svg">
  <defs
     id="defs9" />
  <g
     id="g2" />
  <path
     d="m 181.63658,221.38832 h -0.8 l -0.5,-0.3 v -0.8 z m -4.7,-2.2 0.8,0.9 -0.4,0.2 1.1,0.9 -0.6,0.8 -0.8,0.2 -0.6,-0.9 -0.2,-1.1 z m 2.1,0.4 -0.6,0.1 -1.1,-1.3 1.5,0.6 z m -4.3,-4.6 -0.6,0.1 -1,-0.3 0.1,-0.9 z m -25.5,-0.3 -0.6,-0.1 -0.3,-0.7 1.1,0.2 z m 1.8,0.2 -0.9,-0.1 -0.5,-0.8 0.7,-0.7 0.8,0.5 z m -3,-2.3 -0.3,0.4 -1.5,-0.4 -0.1,-1.8 1.1,-0.3 0.6,0.6 z m 30.4,-1.1 -0.5,-0.7 0.7,-0.7 0.3,0.8 z m -10.8,-3 1.1,0.2 0.7,0.6 -1.7,0.1 z m 11.4,0.5 -0.3,0.7 -1.3,-0.6 0.5,-0.9 0.7,-0.1 z m -14.5,-0.8 -0.8,0.6 -0.1,-0.9 z m -1,0.8 -0.6,-0.1 -0.9,-0.9 0.4,-0.7 z m 7.6,-5.1 -0.6,0.6 -0.4,1.1 -0.6,0.3 -0.5,-0.8 0.7,-0.7 z m -3.5,1.6 0.7,1.2 1.1,1.1 -0.3,0.5 -2.1,-1.4 -0.6,-0.1 -0.4,-1.1 -1.6,-0.8 -0.6,-0.5 0.1,-1 0.5,0.2 0.6,0.7 1.9,0.6 z m -27.3,-3 h 0.6 l 0.6,1.7 0.3,2.2 -0.7,0.7 -1.5,-0.6 -1.2,-1.1 -0.2,-0.9 0.4,-0.7 -0.8,-0.9 2.3,-0.9 z m 20,-2.9 -0.9,-1.9 0.8,-0.9 0.6,0.2 0.4,1.8 -0.8,0.3 z m -2.1,0.3 -0.3,-0.1 -0.5,-1.4 -1,-1 -0.3,-1.7 0.6,-0.9 1.3,1.1 0.2,0.7 -0.7,1 0.5,1.1 z m 3.9,-3.7 0.7,0.8 -1,0.8 -0.6,-1.2 -0.3,-0.2 -0.5,-1.1 0.6,-0.7 1.1,0.6 v 0.5 z m 1,-1.6 0.7,0.7 v 1.3 l -0.9,-0.2 -0.8,-0.7 0.3,-0.6 z m -5.3,-1.5 1.7,3 -1,0.8 v -1 l -0.4,-0.3 -0.5,-1.2 -0.6,-0.2 -1.3,0.5 -0.1,-0.9 h 0.9 l 0.3,-1.6 z m -3.5,-0.4 -1.5,0.5 -0.5,-0.5 1,-0.5 h 0.8 z m 1,0.9 -0.8,0.1 -0.6,-0.4 0.7,-0.9 1.3,-0.6 0.4,0.5 z m -4.1,-0.9 -1.9,-0.2 0.7,-0.7 0.9,-0.2 0.7,0.7 z m -5.1,-2.6 -0.8,0.4 -1.6,0.3 -1.6,-0.5 2.5,-0.6 0.9,-0.4 z m -1.6,-0.8 -1.3,0.4 -0.7,-0.6 1.9,-0.3 z m -7.5,-1.1 h 1.6 v 0.8 l -1.6,-0.4 -0.9,0.2 0.1,-0.7 z m 9.6,-1.4 -0.5,0.3 -0.6,1.3 -1.7,-0.3 -0.2,0.4 -1.7,-0.1 0.2,-0.8 2.1,-2 1.5,-0.3 z m -4.8,-1.7 0.1,0.5 -1.5,0.6 -1.3,-0.2 -0.6,-0.6 0.9,-0.3 z m -14.3,-0.5 3.5,1.3 0.7,0.4 0.4,1.3 0.8,-0.2 1.6,1 0.7,0.6 1,0.1 0.1,0.3 1.4,0.3 2.4,0.6 1.5,0.7 1.9,0.6 1.1,-0.2 1.1,0.3 h 0.8 l 0.9,0.2 1.8,1.1 1.4,0.1 1.1,0.6 1.7,-0.3 1.2,0.6 0.5,0.4 1,3.4 0.5,0.3 0.9,1.6 0.5,1.6 3.4,3.5 -0.4,1.8 1.3,2.6 0.8,0.1 1,1 1.1,0.5 2,0.4 1.8,0.8 h 0.5 l 1,1.1 1.3,0.3 0.3,1.5 1.3,0.4 0.7,1.3 -0.3,1 2.1,2.6 0.3,0.9 0.1,1.2 0.3,0.5 -0.1,0.8 h 0.7 l 0.9,-0.8 0.1,1.1 0.6,1.9 0.4,0.4 0.2,1 -0.8,0.4 -0.9,-0.7 -1.4,2 -1.1,0.2 -1.4,-0.8 -1.3,-0.1 -2.7,-1.1 -2.9,-1.5 v -0.7 l -0.6,-0.1 -0.5,0.4 -2,-0.5 -1.7,-1.3 -3.1,-1.4 -1.1,-1.2 1.1,-1.2 0.9,-0.5 0.3,-1 0.7,-0.3 1.2,-1.4 -0.6,-0.3 -0.2,1 -0.9,0.5 -1.4,0.1 -0.6,-0.3 -0.9,0.7 -1.6,-0.5 -1.1,1.1 -0.3,0.1 -1.5,-0.9 -1.3,-1.5 -1.1,-0.2 0.2,-1 0.8,0.3 1.1,-1 -0.6,-0.3 -1.5,-1.6 h -0.8 l -0.6,0.7 -0.8,-0.7 0.2,-0.8 -0.7,-1.1 0.2,-1 -2.3,0.7 -0.3,0.7 -1.3,-1 -0.2,-0.8 -0.8,0.5 0.3,0.7 -0.5,0.3 -0.7,-0.6 0.1,-2 v -1 l 1.2,-0.9 1.3,0.1 2.3,-0.3 -0.7,-0.6 -1.6,0.6 -1.3,-0.4 -0.3,-0.7 -1,0.1 -0.4,-0.4 -0.4,-1.5 -0.1,-1.4 -0.6,0.3 -0.7,-0.6 -0.9,0.4 -1,0.1 -0.1,0.4 -2.3,-0.1 -0.9,-1.4 -0.1,-0.5 0.8,-1.7 -1.2,-1.3 -0.2,1.5 -0.9,0.5 -0.4,-0.2 -0.7,-0.8 -0.3,-0.7 -1.4,0.2 -0.4,-1.1 -1.5,1.7 -1.3,-0.5 v -0.5 l 1.4,-1.6 -0.9,-0.9 0.5,-0.2 -0.8,-0.9 -0.4,0.4 -0.6,-0.4 0.6,-2.2 0.6,0.2 1.3,-0.5 h 1.8 l 1,-1.5 -1.3,-0.6 -2.3,-0.1 0.2,0.3 h 1.3 l 1,0.6 -2.7,1.2 -1.8,0.3 -0.7,0.4 -1.8,-1.4 -0.4,-1.2 -0.8,-0.2 -0.2,-1 -0.4,-0.4 -0.3,-1.7 1.1,-0.3 1.3,-0.8 0.4,0.1 0.9,-0.6 0.6,0.2 z m 12.7,0.2 -1.7,0.3 1.1,-0.9 z m -10.2,0.3 -1.8,-0.5 -0.2,-0.4 1.4,-0.4 0.5,0.5 z m -2,-1.3 -1,0.3 0.1,-0.8 z m -0.5,-10.2 v 0.6 l -0.7,0.4 -0.7,-0.8 -0.9,-0.4 -0.8,-2.5 0.6,-1 1,-0.8 0.4,1.3 0.6,1 0.1,1.4 z m -6.1,-8.2 -0.8,-0.5 0.9,-0.5 z m 5.1,-2.5 0.2,1.4 -0.4,1.4 -0.6,1.2 0.3,0.9 -0.2,0.6 -1.2,0.3 0.2,-1 -0.2,-1 -1.3,-0.2 0.6,-0.9 -0.3,-0.7 0.7,-1.5 0.6,-0.3 z m -34.400001,-0.8 0.7,0.2 -1.2,0.9 0.6,1.2 -1.2,-0.4 -0.2,-1.7 0.2,-0.9 z m 35.400001,-1.2 -0.7,1.5 -1.8,-0.1 0.3,-0.9 0.4,-0.4 z m -3.8,2.8 -0.9,-1.6 0.7,-1.5 h 0.9 v 1.7 z m -0.7,-4 0.1,0.7 -0.4,1.2 -1,-0.4 -0.3,0.5 -1.2,-0.5 0.9,-1.5 z m 3.6,-1.1 0.6,1.8 -0.3,0.4 -1.6,-0.1 -0.5,-1.1 -0.6,-0.2 1.3,-0.9 z m 6.7,0.7 -0.5,0.1 -0.8,0.8 -1,0.4 -0.8,0.9 -0.7,1.8 0.1,0.7 -0.8,0.5 -1.4,0.4 -0.1,-0.9 0.2,-1.5 0.7,-2 0.8,-1 0.9,-0.1 1.8,-1.1 1.1,-1.5 1.9,-0.6 0.1,1.1 0.3,0.3 -0.8,1.1 z m -14.8,-4.1 0.6,0.3 0.1,1.6 -0.4,1.6 -0.9,-0.6 -0.4,-1.9 0.1,-0.8 z m 1.7,-2.2 0.6,2 -0.1,0.9 -0.6,0.1 -1.6,-1.2 -0.7,-0.3 0.2,-1.5 z m -35.300001,-2.3 1.1,0.4 1,-0.6 0.3,0.6 -0.3,1.2 -0.5,0.1 -0.7,-0.6 -0.5,1.1 -0.3,-1.1 -0.6,-0.7 z m 37.000001,6.4 -0.7,0.1 -0.3,-0.6 0.7,-1.2 -0.4,-1.1 -0.2,-1.9 0.4,-1.6 -0.3,-0.5 0.8,-1 0.3,1.5 0.3,0.5 0.1,1.9 0.4,1.8 -0.4,1.1 z m -7.7,-6.1 1.3,1.4 0.2,0.5 v 1.4 l -0.7,0.9 -0.3,-0.9 -0.5,0.1 -1.4,-1.9 -1.2,-2.6 0.4,-1.2 1.7,1.6 z m 9.1,1.6 -0.5,-0.9 0.1,-0.6 -0.4,-1.4 1.2,-0.4 0.2,0.8 z m -2.3,-3.2 -0.3,0.2 0.1,1.4 -0.8,-0.3 0.4,-2.6 0.5,0.4 z m -42.500001,-3.4 -1.2,0.1 -0.4,-0.7 1.5,0.2 z m 29.700001,-1.9 -1.2,-0.2 -0.5,-0.9 0.8,-0.1 z m 2,-1.2 0.6,1.1 0.5,0.5 0.3,1 -0.6,0.5 -0.6,-0.5 -0.9,-1.5 -0.1,-0.6 -0.8,-0.6 0.5,-0.9 0.5,0.1 z m -26.900001,-2.2 0.3,1.1 -0.2,0.6 0.9,0.4 0.8,0.8 0.3,0.8 -1.3,0.1 -1.2,-0.4 -0.1,0.5 1,0.5 1.4,0.4 0.4,0.4 -0.3,1.1 -0.9,0.8 h -1.4 l -0.4,0.2 0.3,1.2 0.7,0.4 -0.7,1 1.1,0.5 0.5,0.9 -0.2,0.5 0.5,0.8 v 0.7 l 0.8,0.5 1.4,0.2 -0.2,0.4 0.8,0.6 -0.3,0.9 1,0.7 0.2,-1.2 1,0.2 -0.7,0.8 -0.3,1.5 0.8,0.1 1.4,-0.5 0.6,0.8 0.1,1 0.8,-0.1 -0.4,1 -0.9,-0.2 -0.6,1.1 -1.3,-0.5 -0.2,-0.7 -0.8,-0.3 -1.6,-2.3 h -0.4 l -0.5,-1.7 -0.9,-1.3 -0.9,-0.4 -1.4,-1.2 -0.6,-1.4 -0.8,-0.5 -1.4,-1.4 -1.2,-1.5 0.2,-0.6 -0.8,-0.3 -0.6,-1.1 1.2,-0.2 0.6,0.5 0.4,-0.5 -0.4,-0.9 -0.5,-0.5 h -1.3 l -0.9,-0.3 h -0.9 l -0.4,-2.1 0.9,0.4 h 1 l 0.7,-0.5 0.7,0.1 2,-0.1 1,-1 0.9,-0.5 z m 35.800001,1.9 1,2.5 0.2,1.6 -0.2,1.7 -0.8,4.4 -1.7,0.1 0.2,-1 -0.1,-1.6 0.4,-1.7 0.7,-1.4 -1.1,-0.1 0.2,1.1 -0.3,0.4 -0.2,1.9 0.2,0.9 -1.1,0.5 -0.8,-0.3 -1.5,-1.3 -0.8,-2.3 0.3,-0.7 -0.8,-0.6 -0.2,-1.6 0.4,-1 0.7,-0.3 0.1,-2.1 0.2,-0.2 -0.1,-1.7 0.6,-0.2 1.3,0.4 1.3,1.4 1,0.8 z m -5.8,0.9 -1.2,0.1 -1,-0.6 0.1,-1.7 0.8,-1.1 -0.3,-0.9 1.1,0.3 0.3,1.8 -0.1,0.6 z m 2.5,-4.6 -0.5,0.5 -0.6,-0.3 -1.2,0.4 -0.3,-0.9 0.9,-1.6 v -0.7 l 0.5,-0.9 1.2,2.4 z m -14.9,-4.2 1.8,1.5 1.2,0.7 1,1.1 0.2,0.6 1.4,2.5 -0.1,1.2 -0.9,-0.3 -0.3,0.5 -1,-0.2 -0.7,-1.5 -0.8,-0.4 -0.1,-0.8 -0.8,-0.5 -0.7,-0.9 -1.1,-0.1 -1.300001,-2.4 -1.1,-0.8 v -0.9 l 0.4,-0.6 0.5,0.1 z m 15.3,-0.4 -1.1,0.1 -1.3,1.5 v 1.1 h -0.9 l 0.2,-1.6 -0.1,-1.8 1.2,-1.1 0.7,-0.3 h 1.1 l 0.6,-0.3 -0.4,1.8 z m -13.8,-0.2 -0.8,0.2 -0.9,-0.1 -0.900001,-0.5 -0.8,-1.2 1.300001,-1.3 0.8,-0.4 v 1.1 l 0.9,0.3 z m -3.900001,-3.7 -0.6,0.6 -1.2,-0.6 0.4,-0.8 z m 7.800001,2.4 0.9,1.5 2.8,3 0.3,0.7 0.8,0.7 v 1.8 l -0.3,0.4 -0.5,-1.7 -0.6,0.7 -0.6,-0.3 0.3,1.7 -1,0.1 -1,-1.7 -1.5,-1.3 -0.4,-0.7 0.1,-0.9 -0.9,-0.3 0.3,-1.1 -0.7,-1.3 -1.1,0.4 -0.7,-1.5 v -0.9 l -1.2,-0.4 v -1.4 l -1,-0.7 0.2,-0.9 0.8,-0.6 1.9,1.3 1.1,1.3 1.2,0.9 z m -5.7,-6.6 0.3,0.8 -0.1,0.7 -0.6,0.7 -0.600001,1.2 h -0.5 l -0.7,-1.2 0.5,-1 -0.5,-0.2 -0.2,1 h -0.8 l -0.7,-0.9 h -0.8 l -0.3,0.7 0.7,0.7 -0.1,0.9 -0.7,-0.4 -0.1,-1.2 0.6,-1.3 0.7,-0.7 2.4,-1.3 0.6,0.4 z m -30.900001,-2.8 2.5,0.7 1.5,-0.3 0.8,0.4 0.3,1.5 1,-0.4 0.6,-0.7 1.2,-0.3 0.7,0.8 v 0.7 l 1,0.8 -0.1,1.2 0.5,1 -0.3,0.7 -0.6,0.2 -0.5,1.1 -1.5,0.3 -0.7,0.6 -1,0.5 h -1.3 l 0.8,0.8 0.8,0.3 1.2,-0.5 0.1,0.4 1,0.5 -0.1,-1 1.1,0.4 0.5,-0.9 -0.4,-1.4 0.9,-1.3 0.4,-0.9 -0.4,-0.6 -0.2,-2.1 1,0.2 1.4,-0.4 2.4,-1.5 0.4,0.8 -0.3,1.7 -0.6,1.4 -0.8,1.2 -0.6,1.4 v 1.2 l -0.7,1.9 0.2,1 -0.3,0.8 0.3,1.3 0.1,1.8 -0.6,1.5 -0.5,0.5 h -1 l -1.5,0.5 -0.2,0.6 1.3,-0.1 -0.7,0.8 -1.4,-0.2 -0.9,0.4 -0.8,-0.1 -1.3,-1 0.1,-0.5 -1.4,-0.9 0.9,-0.4 0.6,-0.7 -2.2,0.4 0.5,-1 2.1,0.1 0.7,0.7 0.5,-0.4 -0.8,-0.5 -0.3,-0.7 -1.4,-0.4 -1.3,-0.6 -0.9,-0.1 -1,-1 0.2,-0.8 -0.4,-0.6 0.6,-0.4 -1,-0.9 0.5,-0.7 -0.9,-1 -1.1,-0.6 0.6,-0.6 -0.9,-1.5 0.7,-2 0.5,-0.8 -0.6,-1.2 0.5,-0.8 z m 31.500001,0.8 -0.7,-0.6 0.3,-0.9 0.7,0.3 0.3,0.8 z m -5.000001,0 -0.5,0.1 -1.2,-1.1 0.5,-0.8 1.2,1.3 z m -26.3,-1.4 -1.1,-0.6 0.4,-0.7 0.8,0.4 z m 29.5,-1.1 -1.1,-1.1 0.5,-0.5 0.8,1.2 z m 1.200001,-0.6 -0.900001,0.5 -0.1,-0.8 0.500001,-0.7 0.6,0.4 z m -5.700001,-3.7 0.4,1 h -1 l -0.5,-0.7 0.8,-0.7 z m 0.2,-2.9 -0.3,1.4 -2.1,1.8 v -1.6 l 0.5,-1.8 1.2,0.4 z m 3.3,-2.1 -0.9,0.4 -0.9,-1.1 1.2,-0.8 h 0.6 l 0.3,0.7 z m 2.700001,-1.3 0.1,0.6 -0.8,0.9 -0.4,-0.7 z m -2.000001,0.5 -0.7,-1.2 0.4,-0.4 1.900001,-2.4 0.8,-1.2 0.4,1.2 -0.3,0.9 -1,1.6 z m 184.400001,105.9 h -98.1 l -1.4,-0.8 -0.1,-0.8 h -0.7 l -1.1,0.9 -0.5,0.7 -0.6,-1.2 0.7,-0.8 -1.5,-0.4 0.1,-1 0.3,-0.6 -0.8,-0.9 2.4,-0.3 -2,-0.9 -0.6,0.2 -0.2,-0.9 0.4,-0.4 v -3.3 l -0.9,0.3 -1.8,1.1 0.2,1.4 -1,0.8 -2.5,-1.3 -1,-0.1 -1.1,-0.9 -1.1,-1.9 v -0.8 l 0.5,-0.9 0.9,-0.2 1.2,1.9 0.4,2.1 0.5,-0.5 -0.1,-1.2 -0.7,-1.3 -1.2,-1.7 0.5,-1.2 -0.1,-1.3 -0.7,-0.8 0.2,-0.7 1.5,-0.6 0.6,-0.9 -0.6,-0.1 -0.7,0.8 -1.3,0.6 -0.1,1.5 0.9,1.2 -0.7,1 -0.8,-0.5 -0.4,0.5 -1,0.5 -2.6,0.2 -1.3,-0.5 -0.2,-0.8 -1.3,-1.3 -1,-0.6 -1,-1.5 0.9,0.2 0.7,-0.5 0.2,-1.3 0.4,-0.7 0.3,-1.1 -0.4,-1.1 -0.8,-0.5 0.6,-1.3 -2,1.4 -1.5,-0.4 -0.3,-0.4 -0.8,0.6 -0.1,-1.7 0.2,-1 1,-0.4 0.1,-0.6 1,-0.8 0.1,-2 0.4,-0.7 -0.9,-1.2 0.9,-1.3 0.4,-0.2 -0.3,-0.8 -1.2,1.5 -0.6,0.4 0.3,1.1 0.5,0.4 -0.3,2.4 -1.1,0.8 -0.8,1.1 -0.3,1.1 -0.9,0.1 -0.4,-0.7 h -0.7 l -1,-0.5 -0.5,0.5 -0.9,0.2 -0.4,-0.7 0.3,-1 -0.4,-0.7 -1,2.5 -0.6,0.2 -0.8,-0.9 0.4,-0.5 -1.1,-0.2 -0.3,0.5 -1.1,0.5 -1.1,-0.1 -2.1,-0.4 0.7,-1.3 -0.7,-0.4 0.2,-0.8 1.2,-0.1 1.1,-0.3 0.9,0.2 1.3,-0.4 1.4,-0.2 0.3,-0.9 0.8,-0.8 -0.5,-1 0.2,-0.4 0.8,-0.1 0.5,-1.1 v -0.6 l -0.7,-2 -0.6,0.2 0.5,1.7 0.5,0.5 -0.4,0.6 -1.2,0.6 v 0.9 l 0.4,0.4 -1.1,1.5 -1.5,0.1 -0.8,0.4 -0.4,-0.5 -0.8,0.5 -1.5,0.3 -0.4,-0.4 1.1,-1 -0.8,-0.9 0.2,-1 -0.7,-0.1 -1.7,0.2 -1.1,0.6 -0.7,-0.4 -0.1,-0.7 0.7,-0.8 1.6,0.3 h 1.5 l 0.4,-0.3 -2.4,-0.3 -0.9,-0.5 -0.3,-0.8 -0.5,0.1 0.3,0.9 -0.6,0.9 -1.1,0.5 -0.8,-0.2 -1.3,-1 -0.4,0.7 h -1.5 l 0.8,0.8 -0.7,0.7 -1.2,-0.8 -1,-0.2 -0.8,-0.6 -1.6,-0.6 0.1,-0.6 -1.3,-0.5 0.4,-2 -1.5,0.4 -1.6,-1.3 -0.2,-1.2 0.6,-0.4 1.3,-0.4 0.6,-0.4 1.7,0.2 0.5,0.3 1.7,-0.3 1,-0.6 -0.3,-0.4 -1.3,0.8 -2.7,-0.3 -1.8,-0.4 -1.2,0.1 v -0.6 l 1.3,-0.6 0.5,-0.8 0.8,-0.5 0.3,-0.8 0.1,-1.3 0.6,-0.8 1.7,-0.5 3,-0.2 3.8,0.5 0.6,-0.2 0.6,-1.1 -0.4,-0.1 -0.7,1 -4.4,-0.7 -1.9,0.3 -0.8,-0.5 -0.6,0.7 -0.7,-0.2 0.3,-1.3 -0.4,-0.3 -0.4,1.4 -1,-0.3 -0.5,0.4 1.6,0.7 -0.7,0.3 -0.5,1.2 0.2,0.8 -0.6,0.9 -1.2,0.3 -0.2,-0.8 -0.5,-0.4 -0.1,-1.4 -0.8,-1.3 0.1,-1.1 -0.3,-1.5 0.4,-1.9 1,-0.6 0.9,0.1 0.3,-0.8 0.2,-1.7 0.7,-0.8 1.2,-0.4 0.1,1.2 0.7,-0.4 -0.6,-1.2 1.1,-1.1 0.8,-0.1 1.1,-1.3 0.5,-0.2 1.2,0.2 0.9,0.7 0.1,1 0.5,0.7 1.4,1.5 0.3,-0.6 -1.5,-1.2 -0.2,-1.4 -0.4,-0.7 0.3,-1.2 -1,0.6 -1.8,-0.3 -0.2,-1 -0.5,-0.9 v -1.2 l 0.8,-1 1.1,-0.9 0.8,-0.4 0.7,-1.6 -0.5,-1.8 -0.4,0.9 0.2,1.3 -0.8,1.1 -1.1,0.8 -1.2,1 -0.3,1.8 -1.9,0.9 -0.5,0.9 -2,1.1 -1.4,0.8 -0.7,0.8 -0.3,-1.1 -0.5,-0.8 -0.9,-0.5 -0.5,-0.9 -0.1,-1 0.5,-1.2 1.4,-0.6 -0.4,-0.3 -1.1,0.2 -0.7,0.7 -1.6,3.4 -0.9,1 -0.7,-0.6 0.5,-0.4 v -1.1 l 0.8,-0.3 0.4,-1 -0.2,-1.9 1.3,-3.6 -0.1,-1.7 -1.6,0.8 -1.7,-0.4 -0.6,-0.8 -0.3,-1.8 -0.4,-3.3 -1.3,-1.2 -0.5,0.1 -1.9,-2.1 -0.2,-1.3 0.1,-1.4 -0.8,-0.7 -0.3,-1.3 1.3,0.4 0.6,-0.7 0.4,0.3 0.3,1.1 0.7,0.1 2.1,2 0.4,-0.9 1,-0.2 0.3,-0.7 1.1,0.6 1.2,-0.1 0.1,-0.5 h -1.8 l -0.9,-0.4 -0.5,1 -1.1,0.3 -0.9,-0.7 -0.2,-0.6 -0.8,-0.3 -1.3,-1.7 -0.1,-0.9 0.4,-1.3 -0.2,-1.1 0.4,-0.6 0.7,-0.2 0.4,-0.8 -0.3,-0.6 0.6,-1.4 -0.6,-0.6 -0.7,1.5 -1,1.1 -0.3,0.7 -1.2,0.1 v 0.9 l -1.6,1 -0.4,0.9 -0.9,0.8 -0.2,0.8 v 2.8 l -0.5,1.1 -0.5,-0.2 -2.9,-3.3 -0.3,-0.1 -1.3,-1.8 0.2,-0.5 -0.7,-0.5 -0.3,-0.6 -0.6,-0.1 -0.9,-1.3 -0.7,-0.4 -1.2,-1.9 0.2,-0.4 -0.1,-2.2 0.6,-1.4 1,-0.1 0.7,-1 v -0.4 l -2,1 -0.5,0.4 -0.7,-0.7 -1.2,-0.2 v -0.7 l 0.6,-0.3 -0.2,-1.3 -0.3,-0.6 -1.100001,0.5 -1,-0.3 -0.3,-1.4 0.4,-0.7 0.8,-0.1 -0.7,-0.8 0.1,-1.3 1,-0.6 0.700001,1.5 2.6,3.6 -0.4,-1.4 -1.4,-1.6 -1.700001,-2.7 -0.1,-0.7 0.900001,-0.8 1,-0.4 0.5,-1.8 0.7,-0.5 -0.5,-0.8 0.8,-1.4 0.5,-0.3 1.6,0.3 0.6,-0.8 0.8,0.4 0.9,-0.3 -3.1,-0.3 -0.5,-0.3 0.5,-1.6 1.1,-1.7 0.5,-1.4 0.7,-0.5 0.3,-1.3 0.5,-0.5 -0.4,-0.9 v -0.9 l -0.7,-0.3 -0.2,0.9 -0.5,1.3 0.1,1.8 -0.6,0.6 -0.3,1.6 -1,1.4 -0.8,1.9 -0.6,-0.1 -0.5,-1.5 1,-2.2 1.3,-1.6 -0.4,-1.3 -0.3,-2.5 -0.6,-1.1 -0.3,-1.3 0.3,-2.000003 -0.6,-1 0.2,-0.9 0.9,-1.4 0.5,-1.1 -0.2,-0.5 -0.2,-1.4 -0.5,-1.7 -0.6,-0.4 -1,0.3 -2.200001,-0.7 -0.6,-1.8 -0.4,-0.4 -1.7,-0.6 -1.3,-1.7 -0.9,-0.6 -2,-0.3 -1,-0.4 -5.4,-3.8 -1.2,0.2 -1.3,-0.1 -0.3,-0.3 -0.1,-1.6 -0.6,-1.4 0.2,-0.9 -2.6,-1.3 0.8,-3.6 -3.5,-1 1.3,-2.5 -1.5,-3.1 -2.2,-3.2 -4.1,-8.1 -1.8,-2.7 -1,-2.9 -2.3,-3.1 -0.7,-1.8 0.5,-0.7 -0.8,-1.2 -1.9,-1.8 -0.8,-1.2 -1.1,-2 -0.8,-1 -4,-2.3 -1.1,-1.3 -0.3,-1.4 -0.6,-0.2 v -1.7 l -0.9,-1.3 -0.9,-0.2 -1.2,-1.3 -0.5,-1.3 -2.5,-0.7 -1,-1.4 0.3,-1 -1.2,-0.9 0.8,-1.3 0.1,-1.4 -0.8,-1.4 -0.8,-0.4 -1.1,-1.7 -1.7,-1.2 -0.8,-0.9 -5,2.8 -3.8,1 -1,0.7 1,0.8 0.2,0.6 -0.4,0.9 -1,0.9 -1.2,-0.3 v 3.8 l -0.2,0.8 -0.9,1.8 -0.5,0.4 -2,-0.1 -0.6,0.2 -5,3.6 -1.6,1.7 -0.7,0.2 -0.2,-0.9 0.3,-1.1 -1.1,-4.8 -0.4,-0.7 -11.1000004,-11.4 -0.7,-1.2 -0.4,-1.8 -0.5,-0.5999999 -3,-1.5 -0.6,-0.5 h 172.1000014 43.1 V 129.08832 l 0.2,1.4 0.9,0.5 -0.2,0.9 1.2,0.3 0.8,1.2 -0.1,0.7 -1.8,-0.3 0.2,1 -0.2,0.8 0.9,0.3 0.8,1.8 1.3,1.1 0.4,-0.4 1.5,0.4 h 1.1 l 0.3,1.4 0.8,1.4 1.4,0.5 1.4,0.9 0.3,-1.7 0.5,-0.2 1.3,0.9 1.1,1.5 0.3,0.8 0.7,0.9 -0.2,0.9 0.8,1.7 1,-0.4 1.1,1.4 v 0.8 l 0.7,0.6 0.6,1.3 -0.5,0.9 0.2,0.8 0.6,0.5 v 0.7 l 0.4,0.6 -0.2,1.1 0.6,1.2 0.6,-0.5 1,-0.1 0.2,-0.8 0.6,-0.8 1.2,1.1 1.5,0.4 0.3,0.6 -0.1,0.8 -0.9,0.9 0.7,1.5 1,0.3 0.9,1 1.1,-0.4 1.3,0.3 0.8,-0.6 0.4,2.2 1,1.1 0.8,0.4 0.7,0.9 0.2,1 1.1,2.6 0.9,0.2 1.1,-1.6 0.8,-0.3 1,1.9 0.2,1.2 1.1,0.6 0.2,0.7 0.7,0.5 0.2,0.9 1,0.8 v 1.3 l 0.7,1.3 h 0.6 l 0.4,0.8 1.1,0.4 0.2,0.4 0.1,1.3 1.3,1 1,0.1 0.6,0.8 1.6,1.2 0.6,1.3 -0.7,0.3 -0.2,0.6 0.9,0.3 0.5,0.7 2.1,1.1 0.6,1.2 -0.3,0.5 1.4,1.6 0.3,-0.6 0.7,-0.2 1.1,0.5 1.7,2.8 0.9,0.9 0.4,2.7 0.2,1.5 0.6,0.8 0.3,1.6 -0.5,0.4 v 1.2 l 0.7,1.9 -0.7,2.6 -0.6,0.9 1.3,0.7 h 0.7 l -0.4,1.2 v 0.9 l 0.4,0.8 1,0.7 0.5,1.2 0.5,0.1 0.1,0.9 1.7,0.4 0.8,0.6 0.1,0.9 1.1,0.8 z"
     id="CAN633"
     name="British Columbia" />
</svg>
