<?xml version="1.0" encoding="utf-8"?>
<!DOCTYPE svg PUBLIC "-//W3C//DTD SVG 1.1//EN" "http://www.w3.org/Graphics/SVG/1.1/DTD/svg11.dtd">
<svg version="1.1" id="Layer_1" xmlns="http://www.w3.org/2000/svg" xmlns:xlink="http://www.w3.org/1999/xlink" x="0px" y="0px"
	 width="500px" height="500px" viewBox="0 0 500 500" enable-background="new 0 0 500 500" xml:space="preserve">
<g>
	<g>
		<path fill="#466ba1" d="M118.593,49.784c45.442,5.021,89.724,10.954,132.891,17.783
			c-5.547,33.595-10.035,67.926-14.965,96.886c-0.837,4.937-3.789,9.938-3.034,15.223c1.25,8.722,30.922,38.475,37.575,45.809
			c39.421,43.424,82.535,90.078,118.593,131.605c0.909,12.475,8.365,19.745,12.148,29.932
			c-13.129,4.968-11.856,28.051-21.188,37.795c-0.27,7.976,7.463,9.593,4.21,19.939c-27.437,6.497-63.561,2.064-95.097,3.406
			c0.034-25.885-13.013-46.752-37.137-49.648c-1.153-3.354-0.993-7.75-1.244-11.818c-21.353,1.448-25.114-11.086-32.677-20.601
			c-16.586-3.555-29.859-2.602-38.819-12.217c9.829-11.063-2.46-21.165-1.464-32.602c-13.439-14.157-25.173-29.668-29.163-51.334
			c-1.188-6.375,7.494-0.339,7.137-5.673c0.351-11.534-16.68-9.252-17.163-20.122c4.889-10.716-2.511-13.64,1.354-23.199
			c-3.1-5.297-8.067-9.114-14.198-12.001c8.66-16.702-13.991-25.261-16.687-35.635c-0.213-0.821-0.555-17.912-0.219-20.786
			c0.501-4.3,4.369-8.13,4.171-13.79c-0.304-8.604-11.126-16.144-11.308-25.941C101.925,91.86,127.876,75.017,118.593,49.784z"/>
	</g>
</g>
</svg>
