<?xml version="1.0" encoding="utf-8"?>
<!DOCTYPE svg PUBLIC "-//W3C//DTD SVG 1.1//EN" "http://www.w3.org/Graphics/SVG/1.1/DTD/svg11.dtd">
<svg version="1.1" id="Layer_1" xmlns="http://www.w3.org/2000/svg" xmlns:xlink="http://www.w3.org/1999/xlink" x="0px" y="0px"
	 width="500px" height="500px" viewBox="0 0 500 500" enable-background="new 0 0 500 500" xml:space="preserve">
<g>
	<g>
		<path fill="#466ba1" d="M344.379,243.627c-2.305-0.22-0.802-2.034-1.053-3.458
			c-4.771,1.013,0.262,7.207-5.131,7.868c-3.127-1.864-8.219,0.381-14.263,6.896c-2.285-2.626-2.085-3.267-5.292-0.892
			c-0.602-1.914-1.183-3.829-1.774-5.743c-0.681,3.487-2.686,6.274-0.271,11.406c-6.334-4.48-9.201,8.318-18.401,5.652
			c-2.897,2.146,3.989-0.03,1.062,3.448c-8.8-1.083-21.85,4.831-21.157,9.01c-6.364-2.615-19.435-0.21-19.194,7.156
			c-8.83-3.938-16.276,2.416-24.154,7.418c-1.824-2.477-1.674-2.827-3.619-7.708c-3.638,5.462-6.435,11.366-8.419,17.69
			c-7.817,1.954-11.266,6.224-9.832,13.08c-4.34,2.135-6.655,0.45-9.111-0.973c-10.354,14.443-28.074,22.261-33.987,36.863
			c-4.841-3.718-5.583,7.487-9.552,1.664c-1.393,1.834-1.252,4.48-4.691,5.223c-7.387-0.592-11.035-8.26-16.447-12.569
			c8.971-8.078,15.455-17.489,23.454-26.079c-3.007-4.621-7.036-7.307-10.775-10.534c-11.035-42.767-19.144-83.981-30.078-126.698
			c24.075-7.838,56.388-15.585,83.51-23.112c1.143,1.473,0.481,6.354,2.927,5.392c5.282-0.401,1.804-5.453,3.979-7.517
			c36.332-10.835,82.427-24.977,116.876-33.356c12.348,32.093,22.902,65.539,31.872,99.707c-2.786,0.461-4.37,1.544-5.402,2.917
			c2.035,2.696,5.252,9.171,3.89,12.659c-3.258,2.436-6.525-1.724-11.056,0.882C353.27,244.569,343.236,237.283,344.379,243.627z"
			/>
	</g>
</g>
</svg>
