<?xml version="1.0" encoding="utf-8"?>
<!DOCTYPE svg PUBLIC "-//W3C//DTD SVG 1.1//EN" "http://www.w3.org/Graphics/SVG/1.1/DTD/svg11.dtd">
<svg version="1.1" id="Layer_1" xmlns="http://www.w3.org/2000/svg" xmlns:xlink="http://www.w3.org/1999/xlink" x="0px" y="0px"
	 width="500px" height="500px" viewBox="0 0 500 500" enable-background="new 0 0 500 500" xml:space="preserve">
<g>
	<g>
		<path fill="#466ba1" d="M219.729,83.662c3.031,20.374-13.219,28.438-15.863,40.953
			c-1.97,9.197,2.97,13.77,4.063,20.517c2.235,13.821-0.215,23.059,7.655,35.206c8.319,12.852,22.691,18.844,26.979,33.931
			c3.185,11.208-0.857,27.989,6.472,37.982c2.92,4.021,10.524,7.114,14.301,12.719c2.756,4.062,3.44,9.982,6.462,14.934
			c6.277,10.33,18.077,23.691,28.479,27.325c13.708,4.798,24.426,1.96,26.08,9.841c2.144,10.228-18.496,23.12-7.932,37.768
			c3.879,1.878,8.973-1.571,14.321,1.174c-0.847,10.188-1.674,20.364-2.521,30.531c-37.9,5.216-75.188,11.096-112.794,16.628
			c-22.099-75.179-39.074-166.771-56.07-251.484c-2.501-12.484-8.095-26.081-7.584-36.176
			C153.288,85.989,187.045,67.963,219.729,83.662z"/>
	</g>
</g>
</svg>
