<?xml version="1.0" encoding="utf-8"?>
<!DOCTYPE svg PUBLIC "-//W3C//DTD SVG 1.1//EN" "http://www.w3.org/Graphics/SVG/1.1/DTD/svg11.dtd">
<svg version="1.1" id="Layer_1" xmlns="http://www.w3.org/2000/svg" xmlns:xlink="http://www.w3.org/1999/xlink" x="0px" y="0px"
	 width="500px" height="500px" viewBox="0 0 500 500" enable-background="new 0 0 500 500" xml:space="preserve">
<g>
	<g>
		<path fill="#466ba1" d="M296.48,110.427c6.141,0.194,12.278,0.38,18.423,0.57
			c0.675,1.575,4.279,0.395,6.12,0.875c12.225,24.859,27.222,48.34,42.17,71.667c4.82,7.519,11.163,14.678,15.012,22.322
			c7.4,14.667,8.584,31.713,16.321,46.27c6.511,12.236,19.958,21.588,26.964,33.626c0.57,12.045,0.943,24.284,2.307,35.587
			c-0.147,4.774-0.294,9.553-0.444,14.331c-3.404,7.892-5.797,16.855-8.972,24.995c-11.285,2.327-23.904,3.228-35.014,5.739
			c-2.277-0.072-4.549-0.141-6.826-0.208c-4.161-15.963-21.207-19.819-32.563-29.02c-4.542-8.76-6.83-19.637-15.637-24.393
			c-0.358-5.402-2.353-9.272-2.966-14.435c-0.84-0.388-5.13,1.567-5.589,3.924c-7.548-7.479-16.619-17.06-22.48-23.922
			c1.977-10.589,8.236-20.037,1.575-28.639c-7.394,0.445-4.004,10.682-3.942,16.953c-3.688-5.531-8.477-11.3-9.664-18.743
			c-1.818-11.407,3.16-23.854,1.743-34.095c-0.527-3.817-4.279-7.526-6.481-11.135c-2.238-3.648-4.075-8.881-6.485-11.127
			c-8.548-7.96-23.148-10.076-32.926-17.416c-8.297-6.223-10.037-14.818-17.792-21.045c-5.929-0.606-11.905-1.173-16.996-2.579
			c-3.691,1.998-4.322,9.14-8.569,12.031c-2.762,1.88-10.349,3.189-14.478,4.333c-11.396,3.149-14.779,4.395-23.883-0.746
			c-2.852-1.607-7.146-2.941-8.742-4.369c-4.053-3.623-4.401-10.449-8.469-13.24c-18.018,2.913-36.025,5.843-52.906,9.968
			c-4.713-2.636-7.913-6.693-11.984-9.939c-4.889,2.382-9.125,9.003-13.943,9.129c-0.38-6.485-0.287-13.416-1.457-19.169
			c0.122-3.863,0.244-7.73,0.362-11.597c34.239-2.335,68.725-4.412,102.677-7.056c4.997,4.577,6.375,12.559,11.773,16.759
			c36.194-4.018,71.893-8.559,107.641-13.046c5.869,2.69,13.15,12.081,17.405,11.468
			C297.398,126.788,300.021,115.71,296.48,110.427z"/>
	</g>
</g>
</svg>
