<?xml version="1.0" encoding="utf-8"?>
<!DOCTYPE svg PUBLIC "-//W3C//DTD SVG 1.1//EN" "http://www.w3.org/Graphics/SVG/1.1/DTD/svg11.dtd">
<svg version="1.1" id="Layer_1" xmlns="http://www.w3.org/2000/svg" xmlns:xlink="http://www.w3.org/1999/xlink" x="0px" y="0px"
	 width="500px" height="500px" viewBox="0 0 500 500" enable-background="new 0 0 500 500" xml:space="preserve">
<g>
	<g>
		<path fill="#466ba1" d="M230.906,92.49c3.821,0.071,7.635,0.126,11.451,0.187
			c-3.173,12.247-16.605,13.899-23.269,22.528c10.457,11.631,36.695,14.497,28.62,39.912c7.636,0.121,15.266,0.247,22.901,0.374
			c4.506,11.083,9.057,22.121,27.682,19.536c-0.104,20.129,23.477,17.335,26.156,34.78c28.197,11.511,21.797,56.538,54.968,63.235
			c-0.032,2.124-0.065,4.243-0.104,6.361c-5.215,2.806-7.713,8.421-16.66,7.367c-0.235,9.672-0.368,19.453-9.232,20.211
			c3.414,8.041-0.961,16.357-5.418,20.266c3.332,2.624,7.054,4.853,11.346,6.555c-6.905,7.904-7.833,16.391-8.107,29.131
			c-11.269,5.341-21.139-9.062-30.514-1.763c-0.11,6.752,3.058,15.716-0.347,21.628c-1.043,1.076-3.502,0.697-3.858,2.481
			c-2.119-0.033-4.237-0.072-6.362-0.104c-3.864-2.515-6.488-6.241-10.028-9.068c-47.251-2.239-86.339,3.946-132.388,2.947
			c-3.315-7.646-10.737-11.308-22.736-10.544c-10.54-18.746-1.91-48.267-3.936-71.326c-0.444-5.056-2.871-9.338-2.316-14.031
			c0.873-7.471,9.046-13.597,7.959-20.232c-1.048-6.439-12.208-7.317-15.057-12.966c-5.38-10.671,6.642-32.617-9.601-35.789
			c-6.395-33.874-12.191-68.34-20.008-100.848c0.022-1.273,0.044-2.547,0.066-3.814C141.954,98.599,194.496,104.313,230.906,92.49z
			"/>
	</g>
</g>
</svg>
