<?xml version="1.0" encoding="utf-8"?>
<!DOCTYPE svg PUBLIC "-//W3C//DTD SVG 1.1//EN" "http://www.w3.org/Graphics/SVG/1.1/DTD/svg11.dtd">
<svg version="1.1" id="Layer_1" xmlns="http://www.w3.org/2000/svg" xmlns:xlink="http://www.w3.org/1999/xlink" x="0px" y="0px"
	 width="500px" height="500px" viewBox="0 0 500 500" enable-background="new 0 0 500 500" xml:space="preserve">
<g>
	<g>
		<g>
			<path fill="#466ba1" d="M62.474,197.599c-2.503-12.677,10.201-16.805,21.833-21.535
				c2.367,0.735,4.193,2.429,6.334,3.562C101.125,202.73,73.504,205.793,62.474,197.599z"/>
		</g>
		<g>
			<path fill="#466ba1" d="M40.967,201.253c0.635-0.03,0.679,0.989,1.408,0.792
				c-1.455,7.363-1.992,15.245-7.319,20.431C32.388,214.622,37.895,207.418,40.967,201.253z"/>
		</g>
		<g>
			<path fill="#466ba1" d="M218.262,205.527c-6.174,8.381-18.473,3.022-28.125,9.661
				c-6.936-3.861-11.919-11.2-18.188-16.247c8.521-0.667,16.513-5.392,17.084-13.089c0.55-0.154,1.1-0.308,1.649-0.461
				C198.401,194.724,210.7,195.915,218.262,205.527z"/>
		</g>
		<g>
			<path fill="#466ba1" d="M286.764,198.192c2.025,4.793-2.855,9.098-6.64,10.16
				c-3.838,1.079-8.229-1.818-13.326-1.009c-7.467,1.185-12.615,5.883-19.791,5.545c-0.439-3.489,0.521-6.19,2.396-8.377
				C262.232,201.736,274.602,199.779,286.764,198.192z"/>
		</g>
		<g>
			<path fill="#466ba1" d="M307.482,210.765c5.566-1.654,8.668-4.697,13.523-6.753
				c6.193,4.13,22.363-0.017,23.006,10.155c0.384,6.102-8.378,8.055-14.491,11.769c-3.198,1.943-6.271,5.638-12.183,5.191
				c-2.68-5.116-5.566-9.868-9.105-13.457c-3.443,1.181-5.894,0.596-9.5,2.07c-6.791-2.104-8.009-11.016-3.919-16.097
				C300.448,203.509,303.074,208.722,307.482,210.765z"/>
		</g>
		<g>
			<path fill="#466ba1" d="M286.329,222.03c1.452,5.295-3.307,7.096-8.2,8.82
				c-2.967-3.509-5.641-7.544-10.471-7.739C272.009,215.876,281.979,217.979,286.329,222.03z"/>
		</g>
		<g>
			<path fill="#466ba1" d="M307.685,232.648c4.203,3.487-4.171,10.521-6.618,6.005
				C304.286,237.221,304.65,234.184,307.685,232.648z"/>
		</g>
		<g>
			<path fill="#466ba1" d="M447.032,281.353c-6.315,7.684-16.98,10.095-24.474,16.344
				c-5.729,4.778-9.018,11.142-14.82,14.825c-1.113,4.623-1.624,9.584-3.911,13.549c-7.856,2.167-13.87,1.056-19.285-1.119
				c-3.231-14.942-8.646-22.738-15.291-31.29c-3.097-3.984-8.904-9.607-9.502-12.753c-1.187-6.234,10.861-14.289,10.066-21.201
				c-3.112-4.655-8.844-8.009-8.623-15.965c5.906-4.289,15.146,0.222,25.399,1.778c13.539,2.052,27.046,0.316,35.716,8.964
				C423.195,273.794,455.744,263.112,447.032,281.353z"/>
		</g>
	</g>
</g>
</svg>
