<?xml version="1.0" encoding="utf-8"?>
<!DOCTYPE svg PUBLIC "-//W3C//DTD SVG 1.1//EN" "http://www.w3.org/Graphics/SVG/1.1/DTD/svg11.dtd">
<svg version="1.1" id="Layer_1" xmlns="http://www.w3.org/2000/svg" xmlns:xlink="http://www.w3.org/1999/xlink" x="0px" y="0px"
	 width="500px" height="500px" viewBox="0 0 500 500" enable-background="new 0 0 500 500" xml:space="preserve">
<g>
	<g>
		<path fill="#466ba1" d="M167.027,49.423c13.72,1.574,27.443,3.145,41.167,4.715
			c-4.399,21.371-3.58,38.602,7.003,48.071c-2.531,7.59,4.418,16.926-1.887,16.464c10.144,13.56,24.84,23.505,28.534,42.196
			c5.489,2.668,4.086,10.323,11.559,8.272c-0.797,3.133-0.378,5.295,0.591,7.018c6.122,1.948,8.035-1.395,12.663-1.33
			c-5.768,23.944-14.832,30.264-9.617,47.556c-8.692,5.414-4.96,10.537-9.062,18.424c2.707,3.256,5.954,6.081,8.661,9.332
			c5.611-3.926,12.298-6.5,16.666-11.993c12.412,9.138,6.596,33.977,19.827,45.368c-0.164,4.129-5.601,4.083-2.314,8.074
			c2.897,4.784,3.332,5.852,10.503,5.375c7.879,6.633,2.355,23.906,11.951,29.174c2.199-2.462,2.748-7.007,6.431-7.604
			c4.239,1.624,10.003,2.035,13.407,4.314c4.304,0.706,3.309-5.257,6.274-6.229c12.359,5.589,22.647,1.54,34.149,5.299
			c1.452-0.693-0.18-9.328,3.998-10.658c1.102-0.191,2.715,0.271,2.905-1.064c9.458,2.467,6.931,14.452,14.577,18.355
			c-3.568,40.256-8.722,81.77-11.085,121.064c-91.937-10.528-183.873-21.062-275.806-31.594
			c6.58-38.281,11.516-84.881,21.862-105.928c-25.007-8.249-1.35-34.651,10.361-41.91c-2.082-18.176,23.318-28.308,23.185-44.609
			c-0.057-6.618-9.679-11.238-13.209-18.195c-2.062-4.067-1.658-7.994-2.386-15.564c-1.906-19.731,3.332-44.941,8.802-76.844
			C160.6,92.432,164.306,66.517,167.027,49.423z"/>
	</g>
</g>
</svg>
