<?xml version="1.0" encoding="utf-8"?>
<!DOCTYPE svg PUBLIC "-//W3C//DTD SVG 1.1//EN" "http://www.w3.org/Graphics/SVG/1.1/DTD/svg11.dtd">
<svg version="1.1" id="Layer_1" xmlns="http://www.w3.org/2000/svg" xmlns:xlink="http://www.w3.org/1999/xlink" x="0px" y="0px"
	 width="500px" height="500px" viewBox="0 0 500 500" enable-background="new 0 0 500 500" xml:space="preserve">
<g>
	<g>
		<path fill="#466ba1" d="M259.308,437.708c-1.004,0.039-2.003,0.079-3.003,0.118
			c-4.164-9.736-4.489-3.584-10.687-4.096c-10.667-9.623-6.231-25.941-9.2-43.248c-10.249-20.311-48.122-20.458-49.791-43.165
			c-1.014-13.827,15.525-19.96,11.996-39.562c-10.125-8.422-17.967-3.717-28.703-3.392c-2.747-45.522-51.552-41.265-47.275-94.388
			c2.708-7.147,10.175-9.884,6.63-22.811c15.771-2.294,17.952-17.164,24.47-28.019c-2.811-10.406-12.375-17.809-5.671-29.845
			c32.011,0.67,45.021-16.249,44.849-45.35c-4.396-5.818-19.011-22.028-20.743-30.765c46.975,0.842,97.676-2.333,145.733-2.663
			c-5.114,22.294,13.079,33.925,17.057,51.966c10.888,49.308-2.122,116.13,7.87,163.572c-7.865,4.396-1.323,13.911-8.25,19.867
			c7.167,3.731,8.91,13.315,11.386,22.111c-8.274,11.632-11.873,33.704-25.68,35.575c5.739,12.773-1.763,11.7-3.741,19.694
			c-2.093,8.432-1.02,23.805-1.6,36.146c-6.237,2.432-11.73,5.552-19.286,6.769c-1.502,8.171,4.145,20.748-0.625,22.574
			c-7.778,0.792-20.035-6.276-28.935-9.402C263.25,425.082,253.789,428.65,259.308,437.708z"/>
	</g>
</g>
</svg>
