<?xml version="1.0" encoding="utf-8"?>
<!DOCTYPE svg PUBLIC "-//W3C//DTD SVG 1.1//EN" "http://www.w3.org/Graphics/SVG/1.1/DTD/svg11.dtd">
<svg version="1.1" id="Layer_1" xmlns="http://www.w3.org/2000/svg" xmlns:xlink="http://www.w3.org/1999/xlink" x="0px" y="0px"
	 width="500px" height="500px" viewBox="0 0 500 500" enable-background="new 0 0 500 500" xml:space="preserve">
<g>
	<g>
		<path fill="#466ba1" d="M132.547,41.612c1.701-0.11,3.409-0.228,5.104-0.339
			c6.864,9.641,29.242,5.691,35.754-2.412c53.907-3.618,107.821-7.249,161.729-10.866c3.67,88.123,16.941,184.654,14.562,267.497
			c3.285,5.312,5.247,9.855,1.03,15.324c0.684,2.27,4.36,1.121,6.929,1.246c1.193,5.318-2.666,6.219-0.906,12.033
			c-14.438-0.881-18.473,7.346-28.361,10.449c-6.838-3.689-14.953-5.184-22.137,1.484c2.066,4.369,2.744,10.312,2.849,16.916
			c-8.429,5.984-15.547,13.115-17.124,25.09c-18.506-1.213-16.746,15.279-18.598,28.615c-2.385,3.26-11.693,0.463-9.758,7.496
			c-2.438-6.375-10.272-6.576-16.002-9.184c-3.038-5.939,0.261-10.951-7.731-13.16c-2.816,1.303-0.795,3.982,1.936,3.291
			c-13.982,4.785-11.825,21.016-21.778,32.24c-0.567,0.039-1.134,0.078-1.701,0.117c0.502-11.576-11.896-0.77-11.244-14.635
			c-5.873,6.617-21.348,4.844-21.1,16.812c-4.537,0.307-9.08,0.605-13.617,0.912c-8.422-11.57-21.765-4.088-29.744-9.967
			c-3.754,0.984-0.124,8.436-0.899,12.027c-1.708,0.109-3.409,0.227-5.11,0.344c-1.375-5.363,2.842-5.48-0.567-8.506
			c-6.271,1.545-10.775,6.381-15.325,1.023c-3.787,2.822-2.314,4.342-1.128,8.625c-3.976,0.266-7.946,0.541-11.922,0.801
			c-0.046-9.523,1.571-24.295,9.745-33.141c1.127-5.566-4.654-3.232-5.567-6.465c17.045-16.322,23.61-32.494,35.721-53.705
			c-5.463-14.367-1.793-29.32-12.848-38.473c1.088-6.35,7.138-10.137,2.262-17.248c-0.821-5.527,4.967-5.279,6.238-8.975
			C138.244,197.213,137.735,121.463,132.547,41.612z"/>
	</g>
</g>
</svg>
