<?xml version="1.0" encoding="utf-8"?>
<!DOCTYPE svg PUBLIC "-//W3C//DTD SVG 1.1//EN" "http://www.w3.org/Graphics/SVG/1.1/DTD/svg11.dtd">
<svg version="1.1" id="Layer_1" xmlns="http://www.w3.org/2000/svg" xmlns:xlink="http://www.w3.org/1999/xlink" x="0px" y="0px"
	 width="500px" height="500px" viewBox="0 0 500 500" enable-background="new 0 0 500 500" xml:space="preserve">
<g>
	<g>
		<path fill="#466ba1" d="M348.488,119.667c6.682,0.186,13.369,0.378,20.05,0.563
			c-0.796,7.81,13.479,16.771,15.375,24.516c1.506,6.141-2.187,14.363-0.61,22.056c3.087,15.118,17.7,24.76,16.984,38.61
			c8.345,14.886,28.505,18.602,35.146,35.104c-0.093,3.344-0.191,6.687-0.285,10.031c-6.786,7.269-10.135,18.183-8.967,33.871
			c-8.536,14.375-21.38,24.19-37,31.08c7.229,29.709-11.52,44.142-13.996,69.854c-6.013-0.163-12.031-0.337-18.05-0.506
			c-6.948-1.884-8.704-8.688-11.641-14.368c-83.345,0.663-172.533,6.105-254.93,0.906c-0.314-23.782-5.739-42.732-16.479-56.659
			c16.521-20.277-7.355-45.723-12.135-68.586c-2.536-12.13,1.523-24.05-3.059-34.203c-3.867-8.559-13.741-11.792-17.549-18.555
			c0.099-3.338,0.186-6.688,0.285-10.03c14.805-16.765,1.414-41.652,11.601-55.87C148.911,121.987,252.596,124.947,348.488,119.667
			z"/>
	</g>
</g>
</svg>
