<?xml version="1.0" encoding="utf-8"?>
<!DOCTYPE svg PUBLIC "-//W3C//DTD SVG 1.1//EN" "http://www.w3.org/Graphics/SVG/1.1/DTD/svg11.dtd">
<svg version="1.1" id="Layer_1" xmlns="http://www.w3.org/2000/svg" xmlns:xlink="http://www.w3.org/1999/xlink" x="0px" y="0px"
	 width="500px" height="500px" viewBox="0 0 500 500" enable-background="new 0 0 500 500" xml:space="preserve">
<g>
	<g>
		<path fill="#466ba1" d="M58.978,149.458c112.065,1.241,224.842,1.767,337.112,2.799
			c3.097,2.249,3.023,4.26,5.866,6.294c5.165,3.69,13.781,5.155,14.623,11.406c0.857,6.377-6.313,10.656-5.004,16.857
			c1.003,4.756,7.535,4.474,9.936,7.404c-1.256,12.433,10.159,11.878,14.706,18.353c1.777,46.465,1.324,95.208,2.906,141.862
			c-129.712-1.533-260.394-2.078-389.833-3.885c1.762-65.221,6.246-132.74,8.553-199.344
			C57.809,150.217,58.257,149.706,58.978,149.458z"/>
	</g>
</g>
</svg>
