<?xml version="1.0" encoding="utf-8"?>
<!DOCTYPE svg PUBLIC "-//W3C//DTD SVG 1.1//EN" "http://www.w3.org/Graphics/SVG/1.1/DTD/svg11.dtd">
<svg version="1.1" id="Layer_1" xmlns="http://www.w3.org/2000/svg" xmlns:xlink="http://www.w3.org/1999/xlink" x="0px" y="0px"
	 width="500px" height="500px" viewBox="0 0 500 500" enable-background="new 0 0 500 500" xml:space="preserve">
<g>
	<g>
		<path fill="#466ba1" d="M44.011,327.452c0.018-0.844,0.031-1.684,0.048-2.532
			c13.821,1.466,12.465-12.859,19.35-18.61c3.333-0.311,0.897,4.925,4.986,3.893c3.477-12.304,19.179-11.91,30.687-15.868
			c1.535-9.662-10.266-10.624-5.957-19.105c4.851-5.721,11.402,3.259,17.74-0.923c5.284-3.901-1.483-5.44-1.045-11.411
			c6.469-7.051,5.572-21.747,13.191-27.599c15.729,3.691,26.694-7.103,36.972-13.209c6.141,0.297,2.423,10.086,11.241,7.812
			c4.601-2.528,4.999-9.434,11.582-9.902c6.036-0.013,6.836,5.012,12.562,5.301c3.893-6.71,12.645-8.372,15.505-16.157
			c9.924,32.327,30.184-9.045,42.081-15.646c0.372-9.504,3.827-15.815,11.731-17.5c7.326,5.743,18.527,9.548,25.307,0.494
			c-1.286-4.142-3.6-7.304-6.137-10.248c9.186-5.66,10.292-16.078,21.835-16.035c13.484,0.048,19.009,12.475,26.159,22.022
			c5.616,0.241,7.497-3.398,13.971-2.261c10.444,10.611,20.281,6.329,32.904,0.634c8.73,7.094,15.755,16.083,28.815,15.75
			c1.618,10.86,10.545,14.692,16.034,21.83c3.556,18.939,11.469,33.679,14.158,53.444c-13.371,6.329-20.251,19.398-37.139,22.075
			c-0.861,4.697-2.834,8.231-5.279,11.293c-14.132,1.627-22.07,19.314-35.879,22.093c-19.892,4.002-47.95-0.928-73.393-1.418
			c-23.51-0.459-50.51-4.858-73.407-1.421c-3.648,0.551-7.632,3.171-11.459,3.582c-25.57,2.733-50.601-3.42-74.666-1.447
			c-1.68-5.411-8.433-5.958-16.354-5.376c-0.897,4.662,1.391,12.636-1.562,15.16C86.866,326.386,66.3,327.82,44.011,327.452z"/>
	</g>
</g>
</svg>
