<?xml version="1.0" encoding="utf-8"?>
<!DOCTYPE svg PUBLIC "-//W3C//DTD SVG 1.1//EN" "http://www.w3.org/Graphics/SVG/1.1/DTD/svg11.dtd">
<svg version="1.1" id="Layer_1" xmlns="http://www.w3.org/2000/svg" xmlns:xlink="http://www.w3.org/1999/xlink" x="0px" y="0px"
	 width="500px" height="500px" viewBox="0 0 500 500" enable-background="new 0 0 500 500" xml:space="preserve">
<g>
	<g>
		<path fill="#466ba1" d="M48.583,54.388c77.571,0,155.141,0,232.711,0
			c2.007,4.058,0.865,5.813,2.319,8.128c2.353,3.75,8.329,3.442,9.865,6.961c3.186,7.269-10.292,14.963-1.16,22.633
			c-2.183,4.942,0.302,6.635,1.16,11.025c0.433,2.208-0.396,4.929,0,6.967c1.311,6.735,6.823,12.355,7.544,17.986
			c1.104,8.586-4.408,16.958-8.704,24.377c-6.127,10.586-10.824,19.498-20.89,24.37c-3.625,7.79-0.972,15.735-4.058,23.217
			c-1.299,3.142-5.775,5.613-6.392,8.704c-0.714,3.594,2.04,6.761,1.745,10.449c-0.302,3.718-3.4,4.691-3.481,8.705
			c46.232,1.354,94.979,0.188,142.178,0.577c0.721,10.931-2.54,19.705-2.32,28.44c0.138,5.613,2.785,9.051,1.743,14.506
			c-0.815,4.233-7.104,6.691-7.551,10.442c-0.257,2.188,3.832,6.772,5.808,11.031c1.981,4.283,3.512,8.504,5.218,11.602
			c3.706,6.717,6.785,9.902,9.288,19.736c0.846,3.298,2.169,7.444,1.743,9.864c-1.061,6.026-8.969,6.021-8.705,13.346
			c2.313,3.744,4.151-4.767,6.962-2.32c3.976,0.57,4.026,5.694,1.743,8.128c3.424,4.114,6.372,8.711,12.192,10.441
			c0.269,3.568-2.359,4.221-4.071,5.801c0.759,1.762,3.669,1.361,2.904,4.647c-5.557,3.537-16.588,1.593-22.634,4.641
			c1.398,2.665,6.579,1.549,7.544,4.647c-2.489,5.218-11.144,3.794-11.024,9.857c0.1,5.243,10.925,6.121,9.864,14.513
			c1.743,1.932,5.212,2.146,8.122,2.897c3.211,1.317,2.765,5.863,6.385,8.711c1.931,1.505,5.028,1.191,6.967,2.32
			c7.99,4.646,12.485,15.872,0.583,20.891c-2.872,0.544-1.956-2.686-4.64-2.321c-4.253,0.589-4.297,5.381-9.295,5.218
			c0.156-5.958-1.022-8.14-3.48-12.762c-0.859-1.625-1.468-4.209-2.32-5.225c-3.693-4.396-13.873-2.79-16.249-9.281
			c-3.901-0.74-8.196-1.092-10.448-3.486c-0.797-2.296-0.834-5.351-1.16-8.129c-6.792-3.066-13.804-5.919-21.468-8.12
			c3.971,2.552,7.81,9.557,6.386,17.992c-0.251,1.455-2.196,3.493-2.327,5.224c-0.163,2.214,1.486,4.089,1.167,5.801
			c-1.255,6.622-10.781,10.637-15.673,12.185c-3.399-4.207-0.457-10.114-1.743-14.505c-1.875-6.422-8.549-5.544-13.346-8.121
			c-4.34,1.424-4.472,7.174-7.545,9.864c-1.229,1.073-4.427,1.305-6.384,2.897c-2.326,1.894-2.709,4.792-4.642,5.808
			c-3.442,1.8-7.876,0.094-11.607,2.32c-7.318-4.196-13.778-12.017-25.537-9.865c-0.885-11.106-9.307-14.681-17.409-18.576
			c-0.94-2.338-1.003-5.562-2.32-7.544c-5.857,0.584-5.594,10.198-10.441,9.871c0.508-1.442,1.135-4.502,0-5.807
			c-1.179-3.073-5.933-2.584-8.128-4.641c-2.327-0.967-1.21-5.375-3.481-6.385c-6.133,1.41-12.084,3.004-17.992,4.641
			c-0.546-5.394,5.048-9.563,0-12.769c-5.494,3.017-12.142,4.886-16.243,9.288c0.489,3.568,2.402,5.713,2.897,9.288
			c-2.527,4.866-9.407,3.055-15.089,4.057c-3.342,0.597-6.233,3.055-8.704,3.481c-5.287,0.922-11.84-0.464-17.993,0
			c-11.64,0.884-19.924,6.974-30.754,5.808c-3.468-0.377-7.934-3.005-12.769-4.641c-4.753-1.619-9.997-1.713-13.928-2.903
			c-2.936-0.892-4.942-3.118-7.545-3.481c-7.946-1.116-11.32,3.499-17.986,5.218c-4.152,1.079-10.907,0.1-16.249,1.167
			c-4.785,0.946-14.287,4.308-13.346-4.648c0.546-5.273,9.978-5.399,11.025-9.28c1.53-5.683,0.74-13.904,1.161-21.474
			c0.514-9.351,3.888-16.463,6.384-25.53c2.182-7.972,1.85-20.489,0-27.28c-0.64-2.34-3.668-5.093-4.063-7.539
			c-0.352-2.194,1.204-5.994,1.737-10.447c0.464-3.813-0.238-8.474,0.583-11.615c2.465-9.425,11.866-13.37,14.506-22.044
			c3.38-11.087,1.719-28.591-1.16-36.561c-2.025-5.62-5.971-13.283-9.865-19.736c-3.562-5.901-8.416-12.499-11.025-18.57
			c-2.213-5.155,0.684-12.574,0-19.146c-1.035-9.927-10.862-12.58-15.089-21.473C48.583,124.031,48.583,89.213,48.583,54.388z"/>
	</g>
</g>
</svg>
