<?xml version="1.0" encoding="utf-8"?>
<!DOCTYPE svg PUBLIC "-//W3C//DTD SVG 1.1//EN" "http://www.w3.org/Graphics/SVG/1.1/DTD/svg11.dtd">
<svg version="1.1" id="Layer_1" xmlns="http://www.w3.org/2000/svg" xmlns:xlink="http://www.w3.org/1999/xlink" x="0px" y="0px"
	 width="500px" height="500px" viewBox="0 0 500 500" enable-background="new 0 0 500 500" xml:space="preserve">
<g>
	<g>
		<path fill="#466ba1" d="M293.653,169.774c7.62,0.884,13.183,2.487,20.167,0.693
			c3.8,5.9,0.102,28.158,9.039,30.592c5.271,1.445,9.451-6.117,16.686-2.778c3.508,1.614,7.699,9.33,7.651,13.208
			c-0.058,4.811-2.635,2.932-4.175,8.346c3.354,3.614,9.187,1.651,10.43,6.255c1.773,6.562-6.979,12.362-13.208,13.907
			c-7.646,14.14-25.973,17.606-31.291,34.075c-6.377-1.82-6.075-9.436-14.601-5.567c-1.804,0.825-2.387,3.435-4.868,6.261
			c-1.223,1.392-3.413,2.444-4.17,3.477c-5.546,7.578-5.006,16.447-18.077,11.123c0.085,5.202-7.133,7.478-8.345,12.516
			c-1.62,6.742,3.053,14.775-2.784,20.167c-3.069,1.328-6.662,2.138-10.425,2.778c-1.635,5.086-3.244,10.203-7.652,12.516
			c-3.244,0-6.488,0-9.732,0c-3.186,2.143,0.402,11.07-2.778,13.214c-4.895-0.207-2.164-8.038-6.26-9.039
			c-8.303,2.546-23.564,15.31-9.737,24.332c-10.488,12.69-14.066,32.291-18.077,51.453c-4.366-3.514-6.758-9.001-6.954-16.686
			c-5.106-3.466-11.081-6.069-14.6-11.123c0.899-13.336-5.599-27.375-10.43-41.022c-11.933-33.72-23.295-68.44-33.376-100.128
			c0.799-5.503,8.203-4.271,12.521-2.778c2.508-1.55,1.143-7.033,0.693-9.737c1.545-1,3.35-1.746,6.255-1.392
			c-10.462-15.897,9.668-21.178,6.954-35.461c11.288-10.515-3.435-24.369-2.784-35.456c0.349-5.879,8.642-9.499,8.345-16.69
			c-0.127-3.207-1.741-5.149-4.17-9.039c3.429-29.248,13.849-51.506,20.855-77.177c3.202-1.683,8.615-4.821,13.214-2.783
			c3.191,6.239-1.857,17.002,6.953,18.077c9.219-4.688,12.732-15.076,25.729-15.992c2.339-1.831,2.36-5.98,4.868-7.647
			c17.638-0.259,24.813,9.943,36.149,15.992C271.597,102.838,281.477,137.452,293.653,169.774z"/>
	</g>
</g>
</svg>
