<?xml version="1.0" encoding="UTF-8" standalone="no"?>
<!--
************* Copyright (c) 2017 Pareto Softare, LLC DBA Simplemaps.com *******************		
************* Free for Commercial Use, full terms at  http://simplemaps.com/resources/svg-license ************
************* Attribution is appreciated! http://simplemaps.com ***************************
-->

<svg
   fill="#466ba1"
   id="svg5"
   version="1.2"
   width="160"
   height="230"
   xmlns:inkscape="http://www.inkscape.org/namespaces/inkscape"
   xmlns:sodipodi="http://sodipodi.sourceforge.net/DTD/sodipodi-0.dtd"
   xmlns="http://www.w3.org/2000/svg"
   xmlns:svg="http://www.w3.org/2000/svg">
  <defs
     id="defs9" />
  <g
     id="g2" />
  <path
     d="m 151.921,72.077747 -3.2,3.5 -8.5,9.5 -7.9,9.1 -7.9,9.000003 -6.9,8.2 -8.8,10.5 -5.7,7 -3.899999,4.9 -1.3,1.4 -13,12.9 -3,3.1 v 55.2 l -0.1,7 v 6.2 l -0.2,0.3 h -69.8 l -1.6,-25.7 -0.8999996,-15.3 -1.1,-19.6 -0.9,-16 -1.3,-24.7 -1.4,-25.400003 V 4.0777469 H 85.821001 l -0.2,0.9 0.1,1.7 0.3,1.1 0.1,1.3 -0.4,1.4000001 0.1,1.1 -0.2,0.4 0.4,1.9 -0.1,0.9 0.4,0.5 0.4,3 v 1.2 l -0.6,0.3 -0.2,2.4 0.2,0.6 -0.2,1.5 -0.6,0.3 -1.4,-0.1 v 0.5 l 1.7,-0.1 0.1,1.1 1,0.3 0.3,0.4 v 1.5 l -0.5,0.9 1.5,-0.1 1.4,1.3 0.3,1.7 0.6,0.7 1.2,-0.7 0.6,0.2 0.4,1.1 -0.6,0.7 -0.5,1.6 0.2,1.2 -0.2,0.9 0.2,0.9 -0.4,0.8 -0.3,2.5 0.5,-0.3 0.2,-0.9 0.6,-1.1 v -3.3 l -0.1,-1.2 0.9,-1.8 0.2,-1.9 h 1 l 2,0.3 0.7,-0.5 0.5,0.2 0.6,-0.5 1.7,0.6 0.999999,-0.1 0.2,1.1 0.6,0.3 0.9,-1.2 h 1.6 l 0.6,1.7 -0.1,0.9 0.3,1.7 -0.1,0.8 0.9,2.2 0.3,1.6 0.4,0.8 0.2,1.1 1.1,2.3 0.4,1.4 0.3,0.3 v 1.7 l 0.6,2.8 -0.4,0.5 0.8,0.5 0.6,2.1 0.6,1 0.6,1.8 0.1,1 0.6,0.5 0.5,1.4 0.3,1.9 v 1.4 l -0.3,1.4 -1,2.4 -0.6,1.2 -0.8,1 -0.1,1.2 2.1,-2 2.4,-0.5 0.6,0.9 1.3,-0.5 1.7,-0.3 2.2,-1.2 3.1,-1.1 5.2,-2 2,0.1 1.8,0.6 h 1.2 l 0.8,0.6 1.2,0.3 0.3,0.7 0.7,0.2 0.7,0.6 2.1,1.2 1.2,1.1 1,0.2 0.6,0.4 2.8,0.7 1,0.4 1,-0.1 2.4,1.2 h 0.9 l 0.6,0.5 z"
     id="CAN630"
     name="Manitoba" />
</svg>
