<?xml version="1.0" encoding="utf-8"?>
<!DOCTYPE svg PUBLIC "-//W3C//DTD SVG 1.1//EN" "http://www.w3.org/Graphics/SVG/1.1/DTD/svg11.dtd">
<svg version="1.1" id="Layer_1" xmlns="http://www.w3.org/2000/svg" xmlns:xlink="http://www.w3.org/1999/xlink" x="0px" y="0px"
	 width="500px" height="500px" viewBox="0 0 500 500" enable-background="new 0 0 500 500" xml:space="preserve">
<g>
	<g>
		<path fill="#466ba1" d="M334.651,158.186c8.016,38.459,15.569,77.434,23.889,115.576
			c15.796-2,31.004-4.533,47.099-6.261c0.172,15.679-7.527,28.294-11.685,41.657c-10.793,3.252-25.762,2.687-29.656,12.249
			c-3.121-2.764-6.984-0.226-9.987-2.162c-2.516-1.61-1.674-4.646-2.475-8.739c-1.153-5.876-5.989-10.024-3.339-16.511
			c-4.596-3.7-11.25,0.619-15.61,0.172c-4.135-0.43-8.839-4.664-10.766-7.853c-3.637-6.025-1.488-14.462-4.564-20.628
			c0.167-4.582,3.619-4.772,2.755-8.454c-1.1-4.678-8.971-3.18-9.681-6.854c-0.945-4.894,6.161-5.862,9.526-8.237
			c0.589-7.468,1.426-10.997-0.198-16.131c-1.765-5.609-9.758-5.754-9.481-14.158c0.163-4.709,6.347-11.494,9.703-16.059
			c2.804-3.795,11.508-10.418,9.702-16.049c-0.529-1.638-3.343-3.818-6.4-3.361c-5.379,0.81-5.352,8.875-8.26,13.385
			c-2.972,4.619-10.219,5.211-14.177,8.961c-2.886,2.737-7.215,10.191-7.22,13.34c0,2.972,2.786,4.542,3.492,8.174
			c1.339,6.93-4.465,15.502-4.723,22.604c-0.361,9.635,3.944,27.711,7.785,34.541c2.538,4.523,7.866,5.315,11.322,8.866
			c-1.841,2.136-6.658,1.547-7.613,4.506c0.81,3.298,5.008,2.882,7.989,3.813c1.696,6.387,6.744,11.779,7.038,17.903
			c-3.257,1.892-5.998-1.786-8.997-3.243c-3.013-1.466-6.632-1.836-10.028-3.198c-5.32-2.13-12.087-6.88-22.582-4.202
			c-2.393,0.611-2.683,1.81-5.08,2.827c-4.044-2.659-5.641-8.002-9.341-11.032c-6.106,1.972-13.421,6.744-20.197,2.46
			c-2.257-10.123,2.013-18.429,7.183-25.838c5.813-8.351,15.959-16.37,5.641-25.246c-4.795-4.125-13.471-2.579-13.548-11.893
			c-8.536-1.149-19.379-1.135-20.202-9.517c-0.326-3.293,1.425-4.592,2.791-7.414c-5.365-2.312-10.069-5.338-17.425-5.474
			c-2.791-5.252-2.642-11.042-5.374-15.38c-2.312-3.673-7.83-5.279-7.758-10.59c-7.776,3.465-11.535-1.936-17.289-2.356
			c-4.18-0.308-15.022,2.678-18.546,4.469c-3.271,1.665-4.167,5.306-6.98,7.075c-7.55,4.754-16.918,0-20.039-5.876
			c-3.524,7.912-12.797,10.562-16.371,18.433c-15.57,2.873-19.781,16.135-31.814,22.242c-2.56-15.004-4.157-31.067-6.731-46.045
			C162.957,174.932,248.32,166.12,334.651,158.186z"/>
	</g>
</g>
</svg>
