<?xml version="1.0" encoding="utf-8"?>
<!DOCTYPE svg PUBLIC "-//W3C//DTD SVG 1.1//EN" "http://www.w3.org/Graphics/SVG/1.1/DTD/svg11.dtd">
<svg version="1.1" id="Layer_1" xmlns="http://www.w3.org/2000/svg" xmlns:xlink="http://www.w3.org/1999/xlink" x="0px" y="0px"
	 width="500px" height="500px" viewBox="0 0 500 500" enable-background="new 0 0 500 500" xml:space="preserve">
<g>
	<g>
		<path fill="#466ba1" d="M280.716,143.242c0.955-0.025,1.903-0.051,2.857-0.077
			c2.736,1.346,6.92,1.186,9.599,2.608c-5.261,18.511,19.478,18.607,20.823,30.896c0.82,7.561-7.964,10.636-11.943,17.46
			c-4.997,8.592-4.907,18.446-5.856,30.64c10.861,0.384,20.094-0.48,28.756,6.875c14.827,12.571,32.088,34.362,41.295,48.465
			c20.729,3.985,49.951,0.454,47.081-21.24c-1.89-14.327-20.138-13.263-27.314-24.06c1.756-5.581,9.951-1.583,17.095-2.352
			c12.879,14.468,24.258,30.524,29.031,53.539c0.064,2.23,0.122,4.447,0.18,6.67c-0.871,0.725-1.396,1.762-1.826,2.902
			c-4.767-1.172-5.504-6.6-9.752-8.322c-9.329,9.2-23.162,10.322-32.876,18.017c-6.375,5.049-9.623,16.281-20.567,14.833
			c-6.503-3.262-1.287-18.869-8.194-21.701c-11.148,11.091-16.204,27.948-27.564,38.834c-0.641,0.02-1.274,0.032-1.902,0.052
			c-1.25-5.209-7.375-5.273-6.068-13.18c-8.611-2.006-17.613-3.614-17.543-14.788c-5.049-1.846-13.93,0.333-19.087-1.403
			c-3.697-13.064-15.275-17.818-18.921-30.947c-44.55,13.116-89.605,25.764-135.251,37.848c-0.103,1.686-1.134,6.567-4.562,7.747
			c-5.465-0.115-5.754-5.678-10.649-6.395c-22.054,3.312-44.338,15.967-65.367,14.102c-0.878-33.324-1.756-66.654-2.627-99.972
			c63.746-15.358,132.49-33.958,198.773-49.996c3.121-1.685,3.056-6.388,6.471-7.797c2.319,1.243,5.511,6.317,6.689,0.781
			c4.107-4.408-4.492-7.778-2.179-10.418C272.31,161.881,269.567,145.972,280.716,143.242z"/>
	</g>
</g>
</svg>
