<?xml version="1.0" encoding="utf-8"?>
<!DOCTYPE svg PUBLIC "-//W3C//DTD SVG 1.1//EN" "http://www.w3.org/Graphics/SVG/1.1/DTD/svg11.dtd">
<svg version="1.1" id="Layer_1" xmlns="http://www.w3.org/2000/svg" xmlns:xlink="http://www.w3.org/1999/xlink" x="0px" y="0px"
	 width="500px" height="500px" viewBox="0 0 500 500" enable-background="new 0 0 500 500" xml:space="preserve">
<g>
	<g>
		<g>
			<path fill="#466ba1" d="M174.748,84.206c-4.274,2.218-6.565,6.283-9.863,10.453
				c-6.314,7.988-22.955,11.72-15.376,26.666c3.479-3.073,5.405-6.571,10.342-7.056c14.083-1.378,25.161,12.062,31.051,20.005
				c9.049-0.611,19.949-1.46,26.434,2.959c5.5-1.647,6.53-6.251,10.963-9.296c9.192-6.312,28.905-5.959,40.318-10.208
				c4.392-1.632,7.322-5.494,11.974-4.756c-2.421,7.256-1.866,13.868,3.479,17.575c8.91,0.704,14.439-2.154,23.171-1.638
				c7.091,6.914,9.478,19.046,22.05,19.201c4.005,0.05,8.107-3.444,12.417-0.231c-0.092,2.845-3.223,7.199-6.41,7.725
				c-2.623,0.431-5.054-1.714-7.845-1.901c-4.116-0.279-7.661,0.868-12.997,0.782c-7.123-0.114-11.264,3-16.358,0.127
				c-1.454,1.366,0.202,6.007-1.873,6.72c-5.573,0.155-6.416-4.176-9.416-6.454c-8.688,0.916-12.547-2.794-19.135-1.638
				c-3.213,0.564-4.689,3.764-7.478,5.44c-1.536,0.922-9.987,5.136-11.419,5.335c-6.137,0.862-14.103-4.119-13.162,6.98
				c-4.429,4.246-9.642,10.656-17.179,9.699c0.887-4.857,5.079-6.232,5.39-11.701c-7.668-2.861-8.583,6.397-13.203,8.672
				c-2.357-1.793-0.703-7.392-3.143-9.109c-3.171,3.27-1.695,6.476-3.092,10.072c-0.982,2.532-3.555,4.737-4.702,7.208
				c-1.594,3.428-2.224,7.667-4.246,11.166c-3.235,5.599-7.303,8.476-6.682,17.873c-3.432-2.42-8.267-3.517-8.213-9.246
				c-0.982-2.411,3.676-3.298,3.562-6.673c-1.875-1.587-6.679,1.195-9.005-0.801c-0.472-6.267,3.381-11.53,2.129-16.302
				c-1.404-5.352-7.623-4.322-12.221-7.094c-0.437-1.419-0.659-3.039-0.428-5.088c-5.076-1.914-14.667-6.007-19.669-2.782
				c-2.342-1.521-3.999-3.115-7.845-1.898c-2.909-1.638-4.61-4.423-7.164-6.397c-15.76-1.901-29.327-5.89-43.173-9.61
				c-0.399-2.367-0.982-4.565-0.935-7.357c-2.085-2.782-8.717-1.258-10.025-4.781c6.948-4.841,16.45-6.983,21.244-14.096
				c13.719-2.696,23.348-5.89,31.393-13.83c3.963-3.913,5.871-10.019,13.795-9.784C149.157,90.837,160.18,78.822,174.748,84.206z"/>
		</g>
		<g>
			<path fill="#466ba1" d="M242.477,350.412c-0.025-2.316-2.864-4.215-3.219-6.291
				c-0.539-3.164,1.178-7.07,0.833-10.129c-1.153-10.252-10.364-19.662-13.887-29.137c-1.702-4.578,0.443-8.393,0.39-14.654
				c-0.038-4.559-4.014-8.682-4.15-13.648c-0.184-6.76,7.11-13.168,8.491-22.336c0.77-5.097-0.611-10.991,0.406-15.217
				c1.359-5.64,6.837-9.043,8.266-13.881c2.351-0.805,4.417-1.914,7.389-2.06c3.786-3.732,2.861-12.436,8.279-14.448
				c0.751,7.833,0.731,12.186-1.623,18.574c9.648,3.175,8.597-12.262,7.871-20.094c3.038-5.678,8.855-8.432,13.855-12.043
				c-6.314-9.575,0.301-20.218,9.056-22.318c5.313,3.726,12.978,4.037,20.113,7.3c2.839,1.306,4.736,4.604,7.737,5.849
				c13.247,5.494,29.079,3.552,31.088,18.877c-0.874,3.463-4.907,2.063-5.775,4.924c-1.774,5.871,7.23,10.475,8.631,14.892
				c1.676,5.304,1.727,17.645-0.038,22.562c-0.827,2.291-4.18,4.154-5.833,7.177c-1.138,2.088-1.303,5.393-2.449,7.269
				c-4.23,6.93-16.334,9.176-12.969,21.088c1.021,3.607,7.088,8.289,12.218,7.096c6.388-1.49,9.197-14.607,14.1-21.061
				c5.507-7.246,13.846-9.021,23.215-3.33c8.564,19.896,14.324,42.459,15.062,69.777c-1.388,1.822-2.437,4-4.097,5.533
				c-3.396,0.107-3.01-3.369-6.686-2.998c-3.599,3.854-1.482,9.643-3.193,14.014c-1.771,4.52-7.031,4.889-8.694,8.793
				c2.979,15.807-7.215,19.865-10.411,30.746c-17.788,1.328-34.6,3.68-52.036,5.383c-2.411,0.641-1.454-1.912-2.759-2.328
				c-27.354,3.793-56.389,5.809-83.733,9.617c7.522-6.299,14.787-20.432,18.954-33.902
				C238.846,363.639,238.421,354.885,242.477,350.412z"/>
		</g>
	</g>
</g>
</svg>
