<?xml version="1.0" encoding="utf-8"?>
<!DOCTYPE svg PUBLIC "-//W3C//DTD SVG 1.1//EN" "http://www.w3.org/Graphics/SVG/1.1/DTD/svg11.dtd">
<svg version="1.1" id="Layer_1" xmlns="http://www.w3.org/2000/svg" xmlns:xlink="http://www.w3.org/1999/xlink" x="0px" y="0px"
	 width="500px" height="500px" viewBox="0 0 500 500" enable-background="new 0 0 500 500" xml:space="preserve">
<g>
	<g>
		<path fill="#466ba1" d="M174.945,67.71c-0.522,6.868,3.208,13.971,4.425,21.369
			c0.505,3.066-0.89,6.819,0,9.582c1.436,4.473,6.633,5.654,8.842,8.842c2.71-0.485,4.955-1.428,8.106-1.477
			c3.333,5.432,11.742,1.885,17.688,3.689c4.498,1.363,4.085,4.983,7.37,6.633c8.308,2.823,10.812-3.867,16.211-5.897
			c9.999-3.754,19.387-1.44,28.739,2.208c3.231-0.041-0.498,3.284,0.735,5.897c2.213,2.827,5.995-0.485,8.847,1.477
			c0.731,4.178,0.833,8.991,3.685,11.05c6.277,0.748,6.047-5.845,11.05-5.893c3.56-0.037,4.187,3.98,8.847,6.629
			c5.832,3.325,12.506,5.368,15.475,10.318c16.188,2.188,20.774-7.232,30.215-11.791c3.924,0.498,3.41,5.436,6.634,6.633
			c15.54-0.311,31.666-1.205,39.056,6.634c5.4-0.498,7.527-4.263,14.739-2.949c-5.254,11.968-20.442,12.988-31.69,19.156
			c-3.92,2.156-6.528,6.225-10.314,8.105c-2.646,1.319-6.188,0.93-8.846,2.217c-13.368,6.479-22.792,22.845-33.159,33.159
			c-4.53,4.51-10.711,10.529-16.952,16.212c-5.771,5.262-14.876,11.014-16.211,16.215c-3.038,11.811,4.356,23.722,2.208,34.635
			c-7.932,4.344-15.018,9.542-21.368,15.472c2.649,7.835-6.54,9.376-5.157,15.479c1.173,5.197,10.447,4.938,11.791,11.79
			c-3.661,4.566-7.916,31.222-5.157,42.005c2.208,8.652,12.045,12.341,21.368,12.527c1.658,8.413,10.99,9.153,18.424,11.79
			c2.787,11.442,10.096,16.143,19.896,22.845c5.44,3.722,13.457,6.998,14.739,12.527c1.29,5.573-2.002,11.252,0,19.164
			c-80.762,2.261-161.419,4.635-241.716,7.365c0-26.857,0-57.335,0-86.219c0-9.484,1.699-20.301,0-28.006
			c-2.019-9.206-15.313-10.978-15.472-21.368c-0.097-6.217,8.656-10.452,10.318-15.476c2.015-6.1,0.676-19.476,0-26.529
			c-0.667-6.941-5.335-12.369-8.105-20.633c-7.224-21.514,0.748-48.388-3.689-69.271c-1.294-6.1-7.742-8.757-10.314-14.739
			c-2.9-6.743-3.657-26.885-2.949-36.848c0.364-5.113,3.143-10.788,2.949-16.216c-0.235-6.536-4.911-12.547-4.421-19.156
			c28.985,0,57.97,0,86.955,0c-0.125-7.742,0.154-15.079,1.477-21.373C165.063,62.9,171.661,64.66,174.945,67.71z"/>
	</g>
</g>
</svg>
