<?xml version="1.0" encoding="utf-8"?>
<!DOCTYPE svg PUBLIC "-//W3C//DTD SVG 1.1//EN" "http://www.w3.org/Graphics/SVG/1.1/DTD/svg11.dtd">
<svg version="1.1" id="Layer_1" xmlns="http://www.w3.org/2000/svg" xmlns:xlink="http://www.w3.org/1999/xlink" x="0px" y="0px"
	 width="500px" height="500px" viewBox="0 0 500 500" enable-background="new 0 0 500 500" xml:space="preserve">
<g>
	<g>
		<path fill="#466ba1" d="M347,30.854c4.368,0.165,8.736,0.329,13.104,0.494
			c-4.312,131.438-11.946,265.954-11.914,393.366c-0.234,6.312-0.469,12.623-0.709,18.929c-3.096,4.754-3.141,12.794-9.287,14.237
			c-14.295-1.158-17.232-14.079-30.147-12.801c-6.121,0.602-10.749,8.142-16.459,11.047c-10.219,5.191-24.811,3.704-28.229,13.517
			c-0.48-0.019-0.968-0.032-1.449-0.057c-15.795-6.907-13.434-30.641-24.684-41.765c3.134-8.748,9.756-13.725,9.724-25.886
			c-5.299-9.578-19.486-6.571-30.362-6.982c-33.274-1.254-74.177-2.799-107.78-4.059c-0.038-2.311,0.912-5.533-1.241-5.888
			c0.171-4.368,0.335-8.736,0.5-13.104c2.709-9.211,9.11-14.421,15.327-19.84c-2.482-1.443-7.812-0.247-7.116-4.647
			c4.134-3.634,2.957-12.984,5.083-18.764c7.413-5.4,11.541-6.186,10.914-18.556c6.4-2.19,13.478-3.652,17.802-8.078
			c-8.167-11.187,6.09-15.301,5.197-21.683c-6.546-28.102-23.107-51.032-18.777-82.388c0.962-6.932,6.318-14.238,6.654-21.626
			c0.468-10.148-6.768-20.315-3.216-30.754c3.805-4.482,12.674-3.507,14.947-9.642c0.311-8.255,0.621-16.504,0.931-24.766
			c3.798-8.008,14.466-9.769,9.616-22.974c18.999-9.319,20.986-36.99,36.889-49.658C248.203,33.449,298.418,33.038,347,30.854z"/>
	</g>
</g>
</svg>
