<?xml version="1.0" encoding="utf-8"?>
<!DOCTYPE svg PUBLIC "-//W3C//DTD SVG 1.1//EN" "http://www.w3.org/Graphics/SVG/1.1/DTD/svg11.dtd">
<svg version="1.1" id="Layer_1" xmlns="http://www.w3.org/2000/svg" xmlns:xlink="http://www.w3.org/1999/xlink" x="0px" y="0px"
	 width="500px" height="500px" viewBox="0 0 500 500" enable-background="new 0 0 500 500" xml:space="preserve">
<g>
	<g>
		<path fill="#466ba1" d="M107.193,133.799c-10.127,4.274-17.681-6.337-27.564-11.203     c7.159-16.267-19.106-18.69-11.505-38.793c-4.419-0.125-3.249,2.708-6.478,0.025c72.134-1.742,147.159,2.496,223.354-1.024     c3.883,6.919,9.717,11.885,14.649,17.739c-17.141,55.17,46.562,61.783,47.435,108.229c7.139,1.159,6.608-5.271,11.302-6.525     c7.805,1.336,13.144,5.153,19.454,8.001c-7.085,3.468-3.478,8.516-4.777,16.205c-2.079,12.321-11.682,20.468-9.581,29.177     c3.088,12.799,21.841,11.52,24.397,25.786c23.452,3.099,24.312,20.311,30.907,33.843c1.441,5.188-4.185,3.376-4.824,6.501     c5.984,9.627,5.105,19.089,13.055,24.215c6.307-1.493-5.386-5.932-0.026-6.473c5.828,0.625,5.782,7.175,11.365,8.036     c-6.972,11.028-0.188,15.956-6.358,25.933c-0.067,7.559-3.707-1.882-6.473-1.591c-3.306,2.631-4.05,7.81-6.431,11.361     c-4.497,0.747,1.231-8.829-3.271-8.081c-1.305,0.317-1.606,1.634-3.228,1.634c-1.675,1.794,3.134,10.844,3.311,16.168     c-3.384-0.672-4.277,1.134-6.473,1.654c0.682,3.112,6.286,1.246,4.893,6.444c-3.385,0.708-4.289-1.086-6.482-1.584     c-3.396,3.399,2.162,6.076,4.896,8.068c-2.859,3.618-7.449,5.515-8.042,11.37c-11.344,1.111-26.967-2.013-35.603,1.778     c-1.888-15.078,27.268-22.859,9.54-37.267c-86.321,0.396-172.638,0.79-258.959,1.187c0.177-66.426,3.28-129.937,3.956-195.862     c-1.175-6.473-7.595-0.057-9.722-3.192c-5.349-12.347-11.26-16.496-17.941-29.051c6.046-3.764,7.21-13.201,14.521-11.396     C110.421,140.552,105.243,145.413,107.193,133.799z" />
	</g>
</g>
</svg>
