<?xml version="1.0" encoding="utf-8"?>
<!DOCTYPE svg PUBLIC "-//W3C//DTD SVG 1.1//EN" "http://www.w3.org/Graphics/SVG/1.1/DTD/svg11.dtd">
<svg version="1.1" id="Layer_1" xmlns="http://www.w3.org/2000/svg" xmlns:xlink="http://www.w3.org/1999/xlink" x="0px" y="0px"
	 width="500px" height="500px" viewBox="0 0 500 500" enable-background="new 0 0 500 500" xml:space="preserve">
<g>
	<g>
		<path fill="#466ba1" d="M51.974,136.141c1.059-0.096,2.118-0.195,3.18-0.291
			c115.836,22.719,240.587,34.715,374.083,36.189c0.584,6.366,1.171,12.731,1.758,19.097
			c-1.092,55.919-0.857,112.947-2.124,168.721c-2.124,0.191-4.245,0.39-6.369,0.584c-75.359-3.048-152.239-4.268-228.479-6.254
			c-4.077,2.49-1.718,10.331-3.46,14.764c-7.721-10.861-20.802-0.884-32.271-1.848c-14.559-1.22-28.15-12.725-44.286-10.366
			c2.5-24.602-15.927-28.111-13.945-46.868c-6.125-2.013-18.009,4.495-21.274-4.463c-2.21-15.552,11.26-18.068,13.279-30.11
			c-9.004-9.674-26.38-12.075-18.992-31.957c-15.885-5.05-11.448-34.55-26.234-40.918c-0.244-2.655-0.492-5.307-0.732-7.959
			C50.144,176.753,44.619,151.096,51.974,136.141z"/>
	</g>
</g>
</svg>
