<?xml version="1.0" encoding="utf-8"?>
<!DOCTYPE svg PUBLIC "-//W3C//DTD SVG 1.1//EN" "http://www.w3.org/Graphics/SVG/1.1/DTD/svg11.dtd">
<svg version="1.1" id="Layer_1" xmlns="http://www.w3.org/2000/svg" xmlns:xlink="http://www.w3.org/1999/xlink" x="0px" y="0px"
	 width="500px" height="500px" viewBox="0 0 500 500" enable-background="new 0 0 500 500" xml:space="preserve">
<g>
	<g>
		<path fill="#466ba1" d="M332.725,163.877c4.306,5.544,8.355,14.341,16.779,14.7
			c7.402,0.309,13.048-7.922,19.696-8.175c8.106-0.304,15.339,7.071,21.071,10.964c6.935,4.707,12.207,7.738,19.232,12.206
			c0.382,2.936,0.929,5.687,0.686,9.257c1.504,2.825,6.685,1.923,8.061,4.882c-4.265,14.543,2.903,27.366,10.752,35.119
			c-5.594,9.606,6.865,13.371,8.181,20.929c0.699,4.044-2.434,8.281-1.762,12.979c0.806,5.563,8.271,6.787,8.732,11.668
			c0.35,3.69-3.718,6.276-3.635,9.905c0.074,3.254,3.606,5.338,4.385,8.609c0.648,2.724-0.378,5.801,0.06,8.033
			c1.238,6.279,6.905,11.87,11.866,19.048c2.223,3.206,2.856,7.361,4.402,9.85c3.635,5.895,14.18,7.858,9.386,17.834
			c-117.129-1.395-234.01-3.046-351.346-4.233c0.464-23.244,2.038-45.393,3.211-67.937c-33.651-4.215-68.903-6.795-103.801-9.74
			c3.147-46.754,7.016-92.8,11.341-138.39c91.383,4.307,182.42,8.949,274.231,12.823c5.669,2.733,7.426,11.268,14.291,12.243
			C323.473,167.158,326.453,163.606,332.725,163.877z"/>
	</g>
</g>
</svg>
