<?xml version="1.0" encoding="utf-8"?>
<!DOCTYPE svg PUBLIC "-//W3C//DTD SVG 1.1//EN" "http://www.w3.org/Graphics/SVG/1.1/DTD/svg11.dtd">
<svg version="1.1" id="Layer_1" xmlns="http://www.w3.org/2000/svg" xmlns:xlink="http://www.w3.org/1999/xlink" x="0px" y="0px"
	 width="500px" height="500px" viewBox="0 0 500 500" enable-background="new 0 0 500 500" xml:space="preserve">
<g>
	<g>
		<path fill="#466ba1" d="M371.675,73.51c-6.834,83.176-12.516,166.748-18.753,250.558
			c-2.031,27.277-0.56,55.156-10.451,80.634c-6.078,0.602-6.338-6.752-11.851-8.557c-5.181-1.69-11.053-0.428-15.035,3.28
			c3.495,9.628,1.554,21.154,2.916,34.167c0.761,7.234,4.265,15.104-0.022,22.238c-6.051-2.639-10.056-8.621-14.233-13.486
			c-64.551-75.217-134.022-150.369-198.659-226.342c8.328-56.35,14.087-110.768,22.493-167.177
			C209.943,57.937,289.897,64.511,371.675,73.51z"/>
	</g>
</g>
</svg>
