<?xml version="1.0" encoding="utf-8"?>
<!DOCTYPE svg PUBLIC "-//W3C//DTD SVG 1.1//EN" "http://www.w3.org/Graphics/SVG/1.1/DTD/svg11.dtd">
<svg version="1.1" id="Layer_1" xmlns="http://www.w3.org/2000/svg" xmlns:xlink="http://www.w3.org/1999/xlink" x="0px" y="0px"
	 width="500px" height="500px" viewBox="0 0 500 500" enable-background="new 0 0 500 500" xml:space="preserve">
<g>
	<g>
		<path fill="#466ba1" d="M297.016,83.937c2.706,21.809,0.846,41.316-3.056,59.809
			c-3.784,1.022-5.876,5.09-9.643,3.167c-0.965,10.231,0.506,18.662-2.115,26.09c10.78,4.864,19.296-3.903,32.123,0.133
			c2.865-4.521-4.744-5.083-5.586-8.86c5.177-2.951,6.255,2.226,9.215,3.651c9.563,31.503,11.46,62.931,18.508,92.821
			c4.207,17.823,1.56,46.72-7.461,58.587c7.066,10.025-3.965,18.489-4.125,28.094c-25.918,19.632-16.706,51.328-28.015,77.38
			c-6.873,2.599-6.448,5.65-14.073,5.96c-8.36-15.378,5.157-24.766-4.265-37.354c-4.944-2.817-14.838,4.137-18.867-0.479
			c-4.042,1.985-5.569,5.242-8.067,7.999c-6.006-5.361-13.165-8.442-19.215-13.727c-3.988,0.648-1.822,5.213-5.637,3.189
			c-1.525-2.296-4.125-2.463-4.784-6.443c-11.25,3.979-19.637-12.156-32.885-10.571c2.342-6.27-1.746-10.877,0.065-16.058
			c-1.901-4.206-7.619-0.86-7.999-8.066c4.07-14.024,3.164-30.582,13.016-41.703c11.485-2.921,15.327-9.688,21.742-15.165
			c-2.446-1.146-3.096-5.827-4.387-9.26c11.2-14.448,21.219-29.516,35.494-42.417c-3.587-6.17-8.676-9.343-16.018-8.087
			c-3.397-7.23-9.422-9.239-16.428-9.308c-2.244-4.176-4.084-9.173-7.58-10.865c-2.85,0.91-2.87,3.247-6.84,3.577
			c-8.85-4.042-5.348-20.918-15.576-22.935c-3.963,1.007-4.401,3.808-9.246,4.374c-5.421-14.164-10.192-19.975-9.506-32.959
			c13.475-2.134,1.125-13.294,9.299-16.432c-3.914-6.854-10.936-7.546-14.392-15.304c1.512-8.576,14.045-14.835,8.124-24.06
			c14.285-10.223,4.181-32.76,14.635-44.909c4.498-0.417,4.041-3.323,8.05-3.982C224.841,71.514,261.602,76.371,297.016,83.937z"
			/>
	</g>
</g>
</svg>
