<?xml version="1.0" encoding="utf-8"?>
<!DOCTYPE svg PUBLIC "-//W3C//DTD SVG 1.1//EN" "http://www.w3.org/Graphics/SVG/1.1/DTD/svg11.dtd">
<svg version="1.1" id="Layer_1" xmlns="http://www.w3.org/2000/svg" xmlns:xlink="http://www.w3.org/1999/xlink" x="0px" y="0px"
	 width="500px" height="500px" viewBox="0 0 500 500" enable-background="new 0 0 500 500" xml:space="preserve">
<g>
	<g>
		<g>
			<path fill="#466ba1" d="M280.891,111.909c0.979,0,1.962,0,2.94,0
				c0.228,2.125,0.779,3.924,1.763,5.292c-0.163,1.996-3.866,0.447-4.117,2.352c-0.562,8.013,1.83,13.069,2.941,19.409
				c2.087,0.125,1.162-2.758,3.53-2.352c0.604,4.493,1.515,8.674,3.527,11.761c0.111,2.856-3.433,2.053-3.527,4.703
				c-0.535,4.263,1.549,5.902,2.941,8.237c0.383,2.88-2.159,5.045-2.352,7.644c-0.691,9.135,7.417,18.964,2.352,27.053
				c2.364,3.903,3.602,8.942,5.879,12.937c-1.637,2.883-5.595,9.44,0,11.175c2.209,0.054,1.365-2.948,2.94-3.527
				c4.053,0.064,4.876,3.354,8.234,4.114c5.736,25.806,13.34,53.851,19.404,81.158c2.619,11.777,3.47,25.405,9.999,32.345
				c-2.761,1.552-4.74,3.887-7.644,5.293c0.322,2.815,3.025,3.253,3.527,5.882c-2.257,2.616-2.406,9.227,0,11.765
				c-2.25,2.257-1.779,7.237-1.766,11.761c-0.39,0-0.782,0-1.176,0c-3.066-0.657-3.947-3.503-5.879-5.292
				c-12.883-1.627-23.834-5.182-36.462-7.059c-2.324-5.909-11.229-5.238-14.702-9.999c-0.159-1.995,0.454-4.768-0.59-5.879
				c-0.935-2.684-4.533-3.422-5.882-5.882c-1.104-2.023-0.274-4.466-1.173-6.469c-2.795-6.225-10.612-7.464-15.291-12.351
				c-60.591,9.786-120.944,19.809-181.725,29.404c-1.545-2.965-1.874-7.139-3.527-9.995c0-0.59,0-1.18,0-1.77
				c11.182-9.985,21.95-20.388,31.756-31.755c2.802-17.671-3.639-30.208-6.469-44.106c5.648-4.503,12.855-8.871,21.171-11.175
				c9.145-2.531,22.8-5.74,32.935-4.117c2.751,0.44,5.865,3.372,8.82,3.531c7.976,0.423,15.918-6.709,22.35-7.647
				c2.484,0.454,3.734,3.27,6.468,1.765c1.762-6.079,5.31-10.375,8.234-15.292c3.148-0.718,4.839,2.236,7.055,0.589
				c7.556-7.383,3.914-30.197-4.7-34.11c2.27-2.04,6.933-1.691,8.23-4.703c-0.888-4.913-5.957-4.171-8.82-5.882
				c-2.419-4.723,3.527-7.478,5.289-11.175c0.996-2.077,0.691-5.065,1.769-7.054c2.087-3.863,6.686-6.509,8.82-10.585
				c1.163-2.223,1.189-5.083,2.352-7.062c7.824-13.299,24.962-20.124,41.755-24.111c2.9-0.688,6.343-0.356,9.413-1.176
				C267.896,117.842,273.622,111.916,280.891,111.909z"/>
		</g>
		<g>
			<path fill="#466ba1" d="M417.919,323.624c-12.076,8.735-23.952,19.357-37.052,27.642
				c-5.164,3.264-11.205,5.141-16.468,8.234c-3.246,1.907-5.668,5.868-9.995,5.293c0.047-2.129,4.51-5.388,2.352-5.883
				c-7.004-1.026-6.367,7.861-12.351,8.823c-1.494,0.241-5.469-0.021-6.469-0.59c-0.586-0.335-2.91-4.808-2.94-5.292
				c-0.421-6.218,7.725-7.403,11.761-10.586c4.544-3.584,4.883-7.342,8.823-9.998c6.346,1.396,9.755-5.449,14.702-6.469
				c2.965-0.613,6.048,0.447,8.819,0c6.024-0.969,10.711-5.231,14.702-8.233c3.815-2.867,7.37-8.336,12.94-7.059
				c-2.216,2.701-3.47,7.031-6.469,9.409c-2.382,1.888-7.339,1.329-7.058,4.703c9.84,0.407,13.679-10.216,24.701-10.581
				C417.919,323.234,417.919,323.431,417.919,323.624z"/>
		</g>
	</g>
</g>
</svg>
