<?xml version="1.0" encoding="utf-8"?>
<!DOCTYPE svg PUBLIC "-//W3C//DTD SVG 1.1//EN" "http://www.w3.org/Graphics/SVG/1.1/DTD/svg11.dtd">
<svg version="1.1" id="Layer_1" xmlns="http://www.w3.org/2000/svg" xmlns:xlink="http://www.w3.org/1999/xlink" x="0px" y="0px"
	 width="500px" height="500px" viewBox="0 0 500 500" enable-background="new 0 0 500 500" xml:space="preserve">
<g>
	<g>
		<path fill="#466ba1" d="M187.613,66.088c15.048-3.344,30.096-6.696,45.145-10.041
			c21.24,63.05,37.986,153.432,59.63,214.717c1.024,2.89,4.234,6.167,5.024,9.242c2.025,7.89-1.151,17.603,2.512,24.61
			c4.294,8.209,18.141,10.813,21.645,17.393c1.143,5.167,2.302,10.343,3.445,15.519c3.335,5.545,11.099,4.142,15.207,8.461
			c-2.318,8.209-4.201,16.694-4.528,26.173c-62.537,13.922-125.075,27.844-187.612,41.758c-1.899-8.545,0.252-10.233,5.319-15.98
			c-9.075-28.979-1.445-57.958-10.831-81.979c-1.353-11.352,8.789-15.394,3.898-29.005c10.15-10.494,5.193-30.601,14.401-41.691
			c-7.444-7.99,1.428-16.367,0.311-25.231c-1.034-8.158-7.621-15.905-7.688-27.903c3.235-8.848,14.099-5.974,19.896-10.36
			c3.092-2.327,1.655-7.2,3.764-9.713c2.193-2.621,7.1-3.066,9.243-5.016c4.957-4.521,4.932-12.797,11.595-14.427
			c-2.075-16.132-1.688-22.997-13.805-35.423c3.025-12.796,11.276-24.425,1.395-40.28
			C192.629,73.163,191.419,72.692,187.613,66.088z"/>
	</g>
</g>
</svg>
