<?xml version="1.0" encoding="UTF-8" standalone="no"?>
<!--
************* Copyright (c) 2017 Pareto Softare, LLC DBA Simplemaps.com *******************		
************* Free for Commercial Use, full terms at  http://simplemaps.com/resources/svg-license ************
************* Attribution is appreciated! http://simplemaps.com ***************************
-->
<svg
   fill="#466ba1"
   height="271"
   version="1.2"
   viewbox="0 0 1000 1298"
   width="179"
   id="svg5"
   xmlns:inkscape="http://www.inkscape.org/namespaces/inkscape"
   xmlns:sodipodi="http://sodipodi.sourceforge.net/DTD/sodipodi-0.dtd"
   xmlns="http://www.w3.org/2000/svg"
   xmlns:svg="http://www.w3.org/2000/svg">
  <defs
     id="defs9" />
  <g
     id="g2" />
  <path
     d="m 171.57109,251.74689 -0.4,-0.4 0.7,-0.6 0.4,0.4 z m -12.9,-0.8 -0.4,1.9 -1,2.1 -1.2,-0.3 1,-1 0.5,-0.9 -0.2,-0.5 0.6,-0.8 z m -20.3,0.1 -0.4,0.5 -1.6,-0.4 0.2,-0.6 1.2,-0.3 z m 23.2,-9.1 h 1.1 l 0.7,0.4 h 0.6 l 1.2,-0.9 0.3,1.1 -0.5,1 -1.7,-0.3 -1.1,0.1 -0.7,-0.2 -0.6,-1.3 z m -20.2,-24.9 0.2,0.7 -1,0.1 0.3,-0.7 z m 12.7,0 -0.2,0.7 -1.7,0.8 -0.9,0.7 -0.7,-0.5 -0.6,-0.9 0.6,-0.4 0.5,0.7 0.7,0.2 0.7,-0.5 1.3,-1.3 z m 5.1,-1.9 0.7,1.2 -1.1,0.9 -2,0.5 -0.2,-1.5 0.7,-0.9 0.5,0.3 0.6,-0.8 z m -15.8,-18.4 -0.5,1 -0.7,0.4 -0.7,-0.6 0.6,-0.8 1.1,-0.6 z m -0.9,-2.3 -0.3,0.2 -0.6,-1.2 0.8,-0.4 0.4,0.2 z m -3.7,-12.8 0.5,1.1 -0.6,1 h 2.4 l -0.5,-1 0.7,-0.8 0.4,0.5 1.3,-0.6 1.2,0.4 -0.6,1.5 -0.4,2 h -0.8 l -0.6,1.5 -0.7,-0.6 -1.4,-0.3 -1.8,0.2 -0.8,-0.7 -0.6,0.5 -0.1,0.6 0.9,0.2 v 1.7 l 1.2,0.3 0.7,-0.6 0.9,0.2 0.6,0.7 -0.3,2 -0.7,1.2 -0.8,1.6 -0.7,0.8 -0.8,1.5 -0.8,1.2 -0.7,-1 -0.2,1.3 0.7,0.4 -0.3,0.7 -1.2,1.3 -0.6,1.5 -1.6,1.9 -0.4,1.8 -0.5,0.6 -0.2,0.8 -2.4,3 -0.5,1.3 0.7,0.1 -1,2.5 -0.9,0.6 1.2,0.7 v 0.6 l -0.7,2.4 1.1,-1.7 0.2,-0.6 1.4,-2.1 1.3,-1.5 0.7,0.2 1.2,-2.7 0.5,-0.4 0.4,-0.8 1,-0.9 0.9,1.1 v 1.5 l 1.3,-0.6 0.7,0.2 0.6,0.9 0.8,0.7 0.5,0.2 0.7,-0.8 h 1 l 0.9,-0.6 0.3,0.8 -0.3,0.8 -0.9,0.3 -1.6,1.4 -1,0.3 -3,1.9 0.4,0.4 1.6,-0.8 0.3,0.9 -0.8,1 0.4,0.8 -0.9,0.8 -1.1,0.5 0.2,0.7 1.2,-0.9 1.5,-0.4 2,2.3 0.7,-1.4 1.1,-0.1 1.3,-0.5 0.4,1.1 0.1,0.9 0.7,0.5 0.3,-0.6 -0.3,-0.5 v -0.9 l -0.6,-1 h 1.2 l 0.6,-0.2 0.3,1.4 -0.9,1.3 -0.2,0.8 0.1,1.4 -1,0.7 -0.2,1.2 0.4,0.5 0.5,-1.6 2.2,-1.3 2,-0.1 -0.1,-1.1 0.6,-0.8 v 1.8 l 1,-0.3 0.7,-1.1 0.5,-1.1 1,-1.4 1.1,0.9 0.1,0.9 -0.4,0.4 0.2,0.8 0.5,0.1 0.5,-1.2 1.2,-0.1 1.2,0.4 0.2,-0.9 1.1,-0.5 0.5,0.5 h 0.8 l 0.6,0.6 2.2,0.9 0.3,0.6 0.7,0.2 0.5,0.6 h 0.6 l 0.4,0.8 -1.2,2 -0.5,1.4 -2.6,0.4 0.7,0.6 -1.3,0.3 0.9,0.6 -0.6,0.4 -0.7,-0.1 -0.8,1.4 -1.6,0.2 -0.3,0.9 1.6,-0.8 0.4,0.2 1.1,-0.6 1,0.4 -1.1,0.5 0.3,0.7 -0.8,0.3 v 1.2 l 0.6,0.5 1.1,-0.8 0.5,-0.6 0.5,0.9 -2.2,1.6 1.4,0.3 -0.1,0.8 -0.9,0.2 -1.6,1 h -1 l -0.8,0.7 0.3,0.6 0.8,-0.9 h 1 l 1.4,-1.1 -0.2,1.1 0.3,0.2 0.9,-1.4 0.8,-0.9 0.9,0.5 0.3,-0.4 0.8,1.1 0.7,-1.4 v -0.9 l 0.5,-0.5 0.8,0.2 0.9,1.5 1,-1.1 0.4,-0.8 1.3,-0.4 0.5,1 -0.5,1.1 -0.4,1.7 -0.9,0.7 -0.5,0.7 -1,-0.5 -0.9,0.4 -0.4,1.3 -1.7,0.8 -1.1,1.1 -1.3,-0.4 -1.1,0.1 -0.6,-0.8 -0.5,1 0.5,1.6 1.1,0.1 h 1.3 l 0.7,0.5 0.1,0.7 -1.4,3.2 -1.2,1.9 1.2,1.4 1.5,1.4 h 0.6 l -0.1,-1.5 0.5,-0.1 0.4,-1 -0.2,-0.9 1,-2.1 0.5,-0.3 1,-2.2 1.5,-0.8 0.6,0.4 0.7,-0.5 0.9,-1.4 0.6,-0.1 0.4,0.6 -1,1.3 -0.2,0.8 -0.9,1.2 -0.1,1 -1.3,2 0.2,1.1 -0.4,0.7 -0.7,0.3 0.1,0.6 0.7,0.5 v 0.8 l 0.8,1.4 2.3,-2.1 0.5,-0.9 0.7,-3 1.1,0.5 -0.1,1.5 0.7,0.3 -0.3,1.5 0.7,0.6 -0.8,1 0.3,0.5 -0.6,0.9 -0.2,0.8 -0.6,0.4 -0.9,3.5 -0.3,0.4 0.4,0.8 -0.4,0.3 0.1,0.9 -0.6,1.8 -0.1,0.9 -1,0.9 -0.4,1.2 -0.8,0.6 -0.8,-0.1 -0.6,-1.3 -0.7,0.3 -0.6,-0.7 -0.8,1.2 -1.2,0.7 -0.8,-0.6 -0.1,-0.9 0.4,-0.9 -0.4,-1.2 0.4,-1.1 0.6,-0.4 -1.1,-0.9 1.5,-2.3 -0.7,-0.7 -1.7,2 -0.5,0.1 -0.6,1.3 -2.6,2.5 -0.5,0.1 -1,-0.4 -0.2,-1 0.6,-2 0.5,-0.9 0.7,-1.9 0.9,-2.1 0.8,-0.6 -0.2,-0.6 0.9,-0.9 -1.1,-0.4 0.5,-1.2 -0.2,-1.5 -0.4,-0.3 -0.4,-1.9 -0.5,-1 -0.5,-0.5 h -0.9 l -0.4,-0.7 -0.8,2.5 -0.9,0.5 v 0.8 l -1,2 -0.5,0.5 0.6,0.8 -0.8,0.2 -0.6,1 -0.5,-0.3 1.5,-2.6 -0.7,0.4 -1.1,2 -1.1,0.3 -0.7,0.5 -0.4,-0.5 -0.8,0.2 -0.7,1.2 -0.7,0.5 -0.6,1 0.3,0.4 -0.6,0.6 v 1.1 l -0.3,0.5 -1.1,0.7 -0.1,0.7 -0.5,1 -1.3,0.7 -0.6,0.1 -0.7,-0.5 0.1,-0.5 -1.4,0.4 -0.6,0.6 h -2.3 l -1.1,-0.6 -0.4,-1.1 1.3,-1.7 1.2,-0.6 0.9,0.3 2.2,-0.8 0.3,-0.7 1.8,-1.4 0.5,-2.4 0.8,-0.8 2.7,-0.9 1,-0.8 -0.4,-1 -2,0.4 -0.9,-0.9 -0.5,0.2 -2.1,-0.8 h -0.6 l -0.4,1 0.8,1 -0.1,1.1 -0.4,0.5 -1.9,0.3 -0.3,-0.9 -1.6,0.8 -0.9,-0.3 1,-1.6 -0.7,0.1 -1.3,0.9 -1.8,0.8 -0.6,-0.5 0.3,-0.5 1,-0.2 2,-1 -0.5,-1.1 0.1,-0.6 1.1,-1.8 -0.1,-0.6 0.4,-0.5 -0.6,-0.4 -0.3,1.7 -1.2,0.6 -1,0.9 -1,0.1 -1.1,1.1 -1.7,0.4 -1.4,-0.2 -1.8,-0.1 0.4,0.6 -0.8,0.3 -0.8,0.7 h -0.8 l -1.5,-0.9 -1.6,0.3 -0.8,-0.5 -1.3,0.2 -0.2,-0.8 h -2 l -0.6,-0.2 -0.8,0.7 -1.2,-0.9 -0.4,0.7 -0.9,-0.6 h -0.8 l -0.4,-0.4 h -1.1 l -0.5,-0.4 -1.4,0.7 -0.8,-0.3 -1.2,0.3 -1.9,0.2 -0.7,0.5 -1.5,0.3 -1.8,-0.1 -0.5,0.4 -1.6,0.3 -1.3,-0.2 -0.9,-0.7 -0.1,-0.8 0.3,-1.6 -0.400004,-0.3 -0.1,-0.7 -0.8,-1.1 v -0.5 l 0.9,-0.4 0.900004,-1.3 0.8,-0.8 1.9,-1.1 1,-1.3 0.6,-0.2 1.5,-1.6 0.6,-1.1 1.6,-1.4 0.7,0.3 0.7,-1 -1.2,-0.2 -0.9,-0.7 -1.2,-0.1 -1.5,0.5 -2.8,0.2 -1.7,0.7 0.3,-1.4 1,-0.9 1.7,-1.2 0.2,1.2 0.6,0.4 0.6,-0.2 0.5,0.5 h 1 l 0.3,-0.6 0.2,-2.1 0.6,-1.5 0.8,-1 0.3,-1.1 0.1,-1.2 0.7,-0.9 0.5,-1.4 0.6,-0.1 v 1.4 l 1.5,-0.2 1.2,0.6 -0.3,-1 0.4,-1.5 0.9,0.1 0.6,-0.5 -1.9,-0.4 -1.1,-0.7 v -1.7 l 0.5,-1.3 1.9,-1.9 0.6,-0.1 0.8,1.1 0.6,-0.2 -0.9,-1.4 -0.3,-1 0.1,-1.1 1,-2.2 1,-2 0.3,-1 1.4,-2.9 0.2,-1 0.8,-1.9 v -0.7 l 0.7,-2 0.6,-0.6 0.6,-1.6 1.3,-0.2 -0.7,-0.5 -0.3,-1.2 1.8,-0.7 1.1,-0.8 1.1,-1.5 -0.1,-1.9 0.9,-0.5 v -0.8 l 0.4,-0.9 0.8,-0.5 -0.1,-1 0.1,-0.8 0.9,-1.4 0.6,-0.6 1.9,-1.1 1.3,-0.4 0.7,-0.6 0.9,-0.3 0.5,-0.5 1,-0.3 2.4,-1.8 z m 6,-4.9 h -0.6 l -0.1,-0.7 0.4,-0.7 1.2,-0.4 z m -5.2,-15.7 h -0.5 l -0.3,-0.8 0.8,0.1 z m 0.5,-6.7 -0.1,1.2 h -1 l 0.2,-1 z m -1.4,-7.7 1.4,0.4 -0.5,0.8 0.2,0.8 -2.1,-0.9 0.1,-0.9 z m -12.8,-4.1 -0.5,0.9 1,-1.2 1.1,0.2 0.6,-0.3 0.8,0.1 0.5,-0.5 1,0.3 1.7,-1 0.5,0.5 0.1,0.8 -1.3,0.2 -1,1 0.4,0.3 1.8,0.5 1,-0.3 1,0.6 2.5,0.4 0.6,0.6 -0.3,0.8 -0.7,-0.7 -1.4,-0.3 -0.5,0.5 2.1,1.1 0.2,0.8 2,1.2 0.5,0.8 -0.1,2.6 0.9,0.9 -0.7,0.7 -0.9,0.3 v 0.7 l -0.8,0.6 -1.2,-0.4 0.1,0.7 1.7,0.4 0.2,0.8 0.6,0.3 0.2,1.8 -1.7,0.2 -1.1,1 1.1,1.4 h 1.9 l 0.5,1.2 -1.5,0.3 -0.5,-0.5 -1.6,1.2 0.8,1 1.8,0.4 1.1,0.1 -0.2,0.8 1.3,0.1 -0.3,1.6 -0.8,-0.6 -0.7,0.1 0.2,0.8 -2.7,-1 0.9,0.9 1.4,0.3 v 0.4 l 2.3,1.6 h -1 v 1.4 l 0.3,0.6 -1.5,1.6 -0.8,0.3 -0.2,1.1 -0.4,0.4 -2,1.1 -1.1,1.3 -1.4,0.2 -0.8,0.9 -1.9,1.4 -1.1,0.1 -0.3,1.2 -0.8,0.6 -0.6,1.2 -1.5,0.3 -0.1,0.8 -1.5,0.1 v -10.5 H 50.071083 l -0.8,-0.8 0.3,-0.6 1.3,0.7 0.3,-0.3 -0.3,-0.8 -0.5,-2.5 -0.8,-1.1 0.1,-0.8 h -1.3 l -0.9,-0.4 -0.7,-0.8 -0.5,-1.4 0.4,-0.8 1,-1.2 1.6,-0.7 3.5,-0.5 1.4,-0.1 -0.4,-0.8 -2.2,-1.7 v -1.4 l -1.3,1.5 -0.8,0.2 -3.5,0.9 -0.7,0.9 v 1.4 l -0.3,0.5 0.6,1.5 0.1,1.9 -0.4,1.2 -0.5,0.4 v 1.5 l 0.6,1.6 -1.1,0.3 -0.2,1.4 0.4,1.1 -0.4,0.3 -0.7,-0.9 -0.3,0.9 0.3,2.7 0.5,0.6 0.1,0.8 -0.7,1.3 -0.7,0.3 -1.4,1.1 -0.6,-0.4 -1.2,-2 -0.9,-0.7 -1,-0.2 -0.7,0.2 -0.4,0.7 -0.9,-0.7 -0.5,0.2 -1.2,-0.4 -1,-1.7 -0.7,0.9 -0.7,-1.5 0.4,-0.9 -1.1,-1.4 -0.5,-1.3 -0.6,1.2 -1.4,0.1 0.3,-1.5 -0.9,0.4 -1,-0.4 -0.9,0.5 -0.4,-0.3 -0.6,0.7 -1.1,-0.6 0.1,-1.5 -0.5,-0.5 -0.8,-0.4 -0.7,-1.4 -0.5,0.2 0.4,2.4 -0.4,0.4 -0.8,-0.2 -0.4,-1.4 -0.6,-0.8 -0.2,-1.3 0.5,-0.8 0.9,0.3 -0.1,-1.5 -0.2,-0.5 0.1,-1.3 -0.4,-0.9 v -1.1 l 0.4,-0.4 0.9,0.6 -0.5,-1.9 -0.7,-2 0.1,-0.5 1.1,0.5 v -1.1 l -0.8,-1.8 -0.7,-0.7 -0.4,0.8 -1,1 -0.9,0.1 -0.2,0.9 -0.1,1.7 -1.3,0.6 0.1,1.1 -1.2,0.8 -0.9,-1.4 -1.1,-0.7 -0.2,-1.9 -0.8,0.4 -0.4,0.7 -1.4999998,-0.9 -0.5,-0.9 0.1,-1.2 -0.4,-0.7 -0.2,-1.7 1,-1 0.6999998,-0.2 0.8,0.3 0.5,0.6 1.6,0.3 -0.1,-1.2 0.2,-0.3 0.1,-2.1 -0.5,-1.1 0.3,-0.5 1,-0.6 -1.6,-1.9 -0.9,-0.2 -2.3999998,-0.8 -0.8,-1.3 -0.2,-1.1 -1.8,-1.4 v -0.6 l 0.6,-0.8 -0.8,-0.4 -0.3,-1.2 -1.4,-1.2 -0.7,-1 0.2,-1.2 0.5,-1.1 1.2,-0.6 v -0.8 l -0.6,-1.5 -0.6,-0.7 -0.1,-1.6 1,-0.7 1.8,-0.5 0.1,-2.1 0.8,0.5 1,1.1 0.7999998,0.5 0.4,-0.6 -0.4,-1 0.8,-0.8 0.5,-0.1 0.7,-1.3 v -1 l -2,-2 -1.7999998,-3.2 -0.1,-1.3 0.6,-0.5 1.1999998,0.4 -0.2999998,1.2 1.1999998,0.6 1,1.1 1,0.7 0.3,1 0.6,0.7 2.3,1.3 0.3,-1 h 0.7 l 0.4,-0.4 -0.3,-0.9 -1,-1.7 0.7,-0.9 -1.1,-2.4 0.3,-1.5 0.4,-0.8 -1.3,-1.4 -0.2,-0.9 0.7,-0.1 0.8,0.7 0.2,1 h 1 l 1.3,1.9 0.6,0.4 1.9,2.8 1.4,0.6 0.8,0.9 1.3,-0.1 1.1,0.6 0.3,1.6 1.4,1.8 0.8,-0.5 0.9,0.4 1.2,-0.4 -0.5,-1.3 2.1,-0.2 0.9,-0.5 0.6,-1.6 0.7,-0.5 1.8,0.5 0.8,0.8 0.3,0.8 1,0.7 -0.1,1.5 2.2,0.2 1.3,-1.3 1.6,0.6 1.5,1 0.8,1.6 0.7,0.4 1.7,0.2 0.5,-0.6 1.4,-0.3 -0.7,-1.3 -0.9,-0.7 -0.3,-0.7 0.9,-0.9 -0.3,-1 0.4,-1.2 h 0.4 l 1.3,0.8 h 0.6 l 0.4,-1.5 -0.3,-1.9 0.6,-2.2 1,-0.4 v -0.9 l -1.1,0.5 -1,-0.4 -0.2,-0.5 0.7,-0.6 0.5,-0.9 1.1,0.1 1.3,-0.4 0.1,-1 -0.6,0.1 -1.4,-0.3 -1.5,-0.1 -1.1,-0.3 -0.3,-0.8 0.9,-0.8 0.2,-2 -0.1,-0.6 -0.8,-0.1 0.6,-1.9 v -0.5 l -0.7,-0.3 -0.3,-1.1 -0.5,-0.5 -0.1,-0.900003 0.5,-0.3 1.2,-0.2 1.3,-1 0.9,-0.1 0.4,-0.7 -1.5,0.2 -1.3,-0.6 -1.1,0.1 -0.8,-0.8 -0.1,-0.699997 -1.1,0.799997 -0.5,-0.2 0.4,-1.699997 1.1,-0.4 0.2,-0.5 -0.8,-0.7 -1.7,-0.2 -0.5,-0.9 0.3,-1.4 -0.6,-0.8 0.2,-0.5 1.5,0.4 1.6,-0.4 -0.8,-0.9 v -1.3 l -0.8,-0.9 -0.2,-0.8 -1,-1.3 0.4,-1.5 1.1,-0.5 -0.3,-1 0.8,-0.8 0.8,-0.3 -0.5,-1 0.5,-2.7 0.9,-0.7 v -1.4 l 0.6,-1.2 -0.9,-1 -0.2,1.2 -0.4,-0.2 0.4,-2 1.5,-1.3 -0.7,-1.6 v -2.2 l 0.4,-0.8 1,-0.7 0.5,-0.9 v -1.2 l -0.6,0.1 -0.3,1.2 -0.4,0.1 -0.6,-1.3 -0.4,0.8 -1,-0.8 -0.4,-1.4 -0.7,-0.3 -0.7,0.9 -0.5,-0.8 -0.8,-2.4 -0.6,-1.2 v -1.5 l -1.4,-0.4 h -0.7 l -0.3,-0.7 0.5,-1.9 0.4,-0.4 1.2,-0.3 0.6,-1 0.3,-1.6 0.4,-0.4 0.9,-0.3 0.8,-1.3 1.3,-0.1 0.5,-1 -0.8,-1.8 -1,0.8 -0.6,0.1 -0.5,-0.6 -0.2,-0.8 0.1,-1 0.6,-1 h 0.9 l 0.8,-0.5 0.9,0.2 1.9,-0.3 1.1,-0.3 0.6,-0.7 -0.3,-0.7 -0.9,-1.2 -1.5,-0.8 -0.8,0.3 -0.5,0.8 -1.6,0.1 -1.7,1.6 -1.5,-0.7 0.1,-1.4 -0.6,-0.8 h -1.1 l -0.8,-0.2 -1,0.1 -1.6,-1.2 -1.3,0.7 -0.7,-0.5 0.5,-0.5 -0.3,-0.8 0.5,-0.9 1.2,-0.7 0.7,0.8 2.7,1.1 1.1,-0.3 0.1,-0.9 -0.7,-0.8 -0.8,-0.2 -0.6,-0.5 -0.1,-1.4 -0.3,-1 0.2,-1.1 -0.3,-0.5 0.4,-1.3 -0.4,-0.6 0.6,-0.6 -0.1,-0.9 1.6,-1 v -0.5 l -0.7,-0.5 -0.8,0.2 -1.1,0.9 -1,0.6 -0.7,-0.1 -0.5,-1.4 -1.3,-1 -0.1,-1.7 0.2,-0.5 1.2,-0.8 -0.4,-1.6 v -1.1 l 0.7,-0.5 -0.2,-0.9 1.1,-0.1 0.1,-1.2 -1.5,-0.7 -0.5,0.1 -0.7,-1.9 0.9,0.2 1.3,-0.5 -0.2,-0.9999997 1.4,-0.3 -0.4,-1.2 h -1.3 l -1,-1 -0.1,-1.1 0.4,-0.4 1.2,-0.3 2,-0.2000003 0.7,0.3000003 0.6,0.7 -1.5,1.5 1.5,-0.1 0.2,1.1 -1.2,0.8 0.4,0.5999997 -1.9,0.4 -0.6,0.6 -1.4,0.8 0.1,0.6 2.4,-1.7 1.6,-0.2 0.6,-1.1999997 0.2,1.7999997 -0.4,1.3 0.6,0.6 0.7,-1.2 -0.3,-1.1 1.2,0.3 0.5,0.5 0.3,0.9 -1.4,0.4 1,1.1 0.6,0.2 -0.4,1 -0.3,1.9 -0.8,0.3 0.6,1.1 0.7,0.7 h 1.2 l 0.9,-0.2 0.2,1.9 0.9,-0.1 -0.1,0.9 1.2,0.6 0.4,0.8 -0.7,2 h -2.3 l 0.4,0.7 1.8,0.3 0.4,-0.3 0.5,0.9 -0.6,1.9 0.5,-0.1 0.8,-2.1 1.5,0.3 -0.2,2 0.9,-0.5 0.4,0.7 -0.3,0.9 0.9,-0.2 -0.2,0.9 -0.5,1.2 -0.9,0.3 -0.7,0.7 -1.6,0.4 -2.7,-0.5 -0.9,1.1 1.4,0.1 1.2,-0.4 1,0.5 0.7,-0.4 1.4,0.1 0.9,-0.8 h 0.6 l 0.2,-0.7 1.1,0.2 1.1,0.8 0.3,0.6 -0.7,0.6 0.7,0.9 -0.2,1 -1.3,1.4 1.2,-0.1 0.4,0.7 0.7,-1.5 0.9,-0.1 -0.3,0.9 1.3,0.7 0.1,1.6 -1.3,0.7 0.1,0.4 1.7,-0.3 0.3,1 -0.8,0.8 -0.2,0.8 -1.6,0.8 -1.1,1.2 -2.2,0.1 0.3,0.8 -1.1,1.5 -0.5,0.3 -1.1,1.3 0.4,0.1 1.4,-1.2 1.8,-2.2 1.3,-0.2 0.8,0.8 0.8,0.3 0.8,-0.8 1.7,-0.7 0.9,0.2 1.4,-0.3 0.2,0.6 -1,1.3 0.4,1 -0.4,2.1 0.6,0.4 -0.2,0.8 -0.5,0.8 h -1.8 l -2.9,0.5 0.5,0.8 -1.2,1.1 -0.3,0.8 -1,0.3 -0.8,0.7 2.1,-0.4 0.4,-0.5 0.1,-0.7 1.4,-0.9 0.5,-0.7 1,0.2 1.4,-0.5 0.7,0.5 0.8,-0.9 0.6,0.3 0.4,1.2 1.1,-0.5 0.1,1 0.7,0.1 0.2,0.7 -0.9,0.8 -1.1,-0.3 v 0.7 l 1.2,0.6 0.6,-0.4 1,0.6 1.1,-0.8 0.6,0.6 0.2,1.1 -0.8,1.3 0.2,0.8 1.3,0.3 0.6,1.6 0.6,0.8 0.1,1 -1.7,0.5 -0.4,1 -1,0.4 -0.9,-0.3 -0.5,0.5 -0.7,1.4 -1.9,-1.1 v 0.5 l 1.6,1.2 h 0.7 l 0.6,-0.4 1.4,-0.3 1.2,0.1 1.5,0.9 0.9,0.8 -0.6,0.7 -0.3,1.5 -1.3,0.6 1.5,0.7 0.2,0.8 1,-0.4 -0.1,0.7 2.9,-0.1 0.6,0.1 1,0.7 0.3,0.7 -0.2,0.9 0.3,1.1 -1.7,0.3 -0.8,1.2 -0.9,1 v 0.9 l -1.8,0.8 -1,-0.3 -0.1,0.5 0.5,0.8 0.5,-0.3 0.8,0.1 0.6,0.4 -0.9,0.9 1.2,0.6 -0.8,0.5 -1.5,-0.1 -0.9,-0.6 -1,-0.2 -1,-0.6 -1.2,-0.2 -1.3,-0.8 -1.5,-0.4 v -0.5 l 4.5,-0.9 -2.9,-0.1 -0.9,0.3 -0.6,-0.4 -0.8,0.3 -0.3,0.8 1.8,1 0.6,0.6 0.8,0.2 2.1,1.2 1.8,0.8 -3.4,-0.3 2.5,0.7 h 1.7 l 1,0.6 0.7,-0.3 0.7,0.8 -0.1,0.8 -1,0.3 -2.5,-0.5 0.3,0.9 -1.5,0.8 2.7,0.4 0.2,0.6 1.2,1.1 h 0.9 l 0.2,0.8 -1.4,0.6 -0.1,-0.6 -0.8,-0.2 -1.8,0.1 -0.4,-0.4 -0.6,0.3 1.6,1.6 0.6,-0.3 1.3,0.1 0.5,0.4 1.4,-0.3 0.6,0.4 1.9,-0.5 0.5,0.8 -0.7,0.4 0.6,0.6 -0.1,0.699997 -0.9,0.4 0.3,0.7 0.9,-0.4 0.6,0.9 -1.5,-0.2 0.6,1.3 h 1 l 0.7,0.4 0.7,-0.4 0.7,0.8 -1.3,1.000003 1.4,0.6 1.4,-0.4 0.9,0.1 0.1,-0.700003 -0.2,-0.9 0.5,-0.1 h 1 l -0.1,1.3 -1.3,0.400003 0.9,0.1 0.6,0.7 -0.4,0.9 -1.1,0.8 1.3,0.1 0.6,-0.7 0.5,-1.1 0.5,1.9 -0.5,1.6 0.5,0.5 1.3,-3.7 0.7,0.7 1.1,0.3 -0.6,0.8 v 0.8 l -1.2,0.4 0.6,0.5 0.5,1 0.4,0.2 0.2,1.2 -0.5,0.8 -0.8,0.6 0.4,0.4 1.5,-0.3 v -0.7 l 0.4,-0.6 0.6,0.3 -0.4,1.3 -1.5,0.7 -0.7,2.2 -0.4,-0.3 -0.6,1.1 0.9,0.4 -1.1,2.2 0.7,-0.1 0.1,-0.7 1,-0.4 1,-1.3 0.6,-0.4 0.7,0.3 2.600003,0.1 0.4,-0.7 0.9,-1 0.6,-0.2 0.6,1.1 -0.6,1.6 -1,1.1 0.7,0.5 0.5,-0.7 1.7,0.1 1.2,-1 v 0.8 l 0.8,0.2 -1,1.5 -0.5,0.3 -0.8,1 -1.2,0.7 -0.2,0.9 -0.5,0.3 -0.7,0.9 0.5,0.4 -0.5,1 h 0.8 v -1.7 l 1.9,-1.4 2,-2.3 0.5,0.5 0.4,-1.2 1.300004,-2.3 h 0.9 l 0.5,0.4 -0.2,0.8 -1.3,1.2 0.2,0.4 2,-1.5 0.6,-0.1 0.4,1.5 -0.6,1.2 1.4,1 -1.2,1.3 1.4,0.1 -0.4,0.8 1,0.2 0.4,-0.3 1.3,0.8 1,0.3 h 0.9 l 0.9,0.5 0.6,-0.3 2,-0.1 0.2,0.7 0.6,0.5 h 3.2 l 0.9,1.1 1.2,0.9 1,-0.1 0.2,-0.4 1.2,0.2 0.4,1 0.7,0.2 -0.4,1.7 -0.6,0.3 h -2.4 l -0.3,0.4 1.6,0.4 0.1,0.4 -1.7,0.9 -1.2,-0.3 -1.3,0.1 -3.2,0.6 -0.7,1.3 v 0.7 h -0.9 l -1.6,0.4 -1,0.5 -1.9,1.2 h -1.7 l -1.4,0.5 -1.5,0.2 -1.5,0.8 -1.500004,0.4 -1.3,-0.3 -0.7,0.2 0.8,1 0.7,-0.3 1.600004,-0.1 2.1,-0.7 1.7,-0.3 2.2,-1 h 0.8 l 1.8,-1.3 1.5,-0.3 -0.6,1 -0.7,0.5 -0.9,1.4 -1.1,0.5 -1.8,-0.4 -1.3,1.5 -0.7,0.4 h -0.7 l -1.3,0.4 -1.700004,1 -0.7,0.7 -1.2,0.4 h -1.2 l -1.7,-0.5 -0.9,0.2 -0.3,0.8 -2.400003,0.7 1,1 -0.8,0.1 -0.2,1.6 0.4,1 -0.4,0.4 -1.4,-0.6 -1.2,-0.9 -0.6,-0.8 -1.2,-0.8 -2.2,-0.6 -1.4,-0.8 -1.3,1 0.4,0.3 0.7,-0.3 2.2,0.5 2.3,1.1 1.8,1.6 1.1,0.4 1.6,1.1 -1.8,0.8 -1,0.8 -0.7,0.3 -0.4,0.8 2,-0.3 0.3,0.4 -1.1,0.7 0.3,0.3 0.8,-0.5 0.6,0.6 0.4,-0.6 -0.1,-0.6 0.8,-0.4 1.100003,-1.3 0.8,-1.3 0.1,-0.8 1.1,0.3 1.7,-0.2 1.1,-0.4 1.6,-1.8 3.300004,-0.7 0.6,-0.5 -0.6,-1.6 2.1,-1.8 0.4,-1 2.2,-0.6 1.5,-0.8 2.3,-0.7 1.1,-0.2 1.1,-0.7 3.5,0.6 -0.7,-0.7 h -1.1 l -0.7,-0.5 -1.6,-0.2 -1.2,0.9 -1.5,-0.9 0.5,-1.1 0.5,-0.3 0.9,0.1 0.6,-0.6 1,0.1 1.1,-0.1 0.5,0.4 1.2,0.3 0.9,-0.1 2.8,0.7 0.7,-0.6 1.3,1.2 -0.1,0.6 0.8,2.1 1,1.2 -0.1,1.1 0.8,0.7 0.4,0.9 -0.5,0.2 v 0.9 l -2.1,1.3 -1.4,0.4 0.5,1 1,0.2 0.3,1.3 0.4,0.6 1.5,-1.2 v -1.3 l 0.7,-0.3 v -0.6 l -0.1,0.2 -0.8,0.2 -0.2,-0.6 0.4,-0.5 z m 0.7,-1.9 0.9,0.9 -0.7,0.3 -0.7,-0.7 z m -3.7,-13.3 -0.8,-0.4 0.7,-1 0.5,0.7 z m -7.7,-7.4 -0.2,1 0.4,0.7 -0.7,0.7 -1.6,-0.1 -0.7,-1.8 0.7,-0.1 2.5,-1.3 z m -34.600007,-24.7 0.9,0.299997 -0.5,1.9 -1.9,-0.5 -0.7,-0.9 1,-0.3 0.1,-1.099997 0.4,-0.5 0.6,0.2 z m -8.6,-6.2 2.5,0.6 1.1,-0.3 0.7,0.5 -0.5,1.3 -1.5,-0.3 -1.3,-0.6 z m 5,-2 0.7,0.8 0.8,-0.1 0.2,0.7 h -1.9 l -1,-0.3 h -1.6 l -0.4,-0.6 2.2,0.4 -0.1,-0.4 -1.3,-0.6 -0.3,-0.7 1.5,0.2 z m 3.1,-3 -0.3,1.1 -1.3,0.5 -0.1,-0.8 0.8,-1 z m -3.9,-5.6 1,0.1 -0.8,1.1 0.7,0.4 -1.7,1.5 1.1,0.2 0.3,0.4 v 1.4 l -0.9,1.3 -1.2,-1.2 -1,-1.2 0.5,-2.9 0.9,-0.6 0.1,-0.7 z m -2.7,-11.5 -0.3,0.6 0.9,0.8 -0.8,0.5 -1.8,-0.3 -0.6,-0.7 0.8,-0.5 1.2,-1.4 0.7,0.1 z m -2.5,-2 1.1,0.6 v 1 l -1.5,1.1 -1,-1.3 0.2,-1.1 0.8,0.3 z m 1.7,-5.1 0.2,0.9 0.8,-0.1 -0.3,1.3 -0.8,0.3 -1.5,-1.6 0.9,-1.2 z m -2.1,-1.5 0.6,1.2 -0.2,0.5 -0.8,0.6 -1.1,-1 -0.5,-0.1 0.7,-1.1 0.7,-0.5 z m -23.3,-40.9 -0.1,1 -1.2,0.5 -1,-0.7 v -0.6 l 0.4,-0.6 0.3,-1.2 h 0.8 z m -6,-12.4 0.3,-1 0.7,-0.3 z"
     id="CAN686"
     name="Newfoundland and Labrador" />
</svg>
