<?xml version="1.0" encoding="UTF-8" standalone="no"?>
<!--
************* Copyright (c) 2017 Pareto Softare, LLC DBA Simplemaps.com *******************		
************* Free for Commercial Use, full terms at  http://simplemaps.com/resources/svg-license ************
************* Attribution is appreciated! http://simplemaps.com ***************************
-->
<svg
   fill="#466ba1"
   height="659"
   version="1.2"
   viewbox="0 0 1000 1298"
   width="398"
   id="svg5"
   xmlns:inkscape="http://www.inkscape.org/namespaces/inkscape"
   xmlns:sodipodi="http://sodipodi.sourceforge.net/DTD/sodipodi-0.dtd"
   xmlns="http://www.w3.org/2000/svg"
   xmlns:svg="http://www.w3.org/2000/svg">
  <defs
     id="defs9" />
  <g
     id="g2" />
  <path
     d="m 9.8625869,411.18567 0.6000001,1.2 H 9.5625869 l -0.3,0.3 -1.2,-0.8 0.5,-0.9 -0.8,-1.2 0.4,-0.3 0.8,0.6 z m 6.1000001,-8.9 0.7,0.4 1.2,-0.1 0.9,1.5 -0.4,1.3 -0.7,-1.1 -2.2,-1.4 z m -2.1,-3.3 1.3,1.3 -0.5,0.5 -0.8,-0.7 -1.5,-0.2 0.6,-0.8 z m 20.9,-3.2 0.3,0.4 -1.1,0.3 -0.2,0.7 -0.8,-0.4 0.1,-0.5 1.2,-1.1 z m -18.7,1.1 -0.7,-0.1 -0.1,-1.1 0.8,-1.2 1.3,-0.2 -0.7,2 z m 118.900003,-19.1 -0.3,0.6 -0.8,0.6 -0.4,-0.8 0.4,-0.7 1.2,-0.2 z m 135.6,-4.3 h -2.1 l -0.1,-0.9 h 1.3 l 0.9,0.3 z m 14.7,-0.9 -4.9,0.3 -2.3,-1.5 0.3,-0.7 2.1,0.5 1.6,0.9 0.8,0.3 z m -55.5,-5.9 -0.2,0.3 h -1.7 l -0.7,-0.6 0.3,-0.5 2,0.6 z m 3.8,-1.6 -0.6,0.5 -1.7,0.2 -0.5,-0.4 0.6,-0.6 1.1,0.3 0.6,-0.7 z m -3.3,-1.1 v 0.8 h -2.3 l 0.8,-0.9 z m 7.5,0.7 -0.7,0.1 -1.4,-0.3 2.3,-1.1 0.5,0.3 z m -11.3,-0.2 -0.3,0.3 -1.1,-0.3 -2.5,0.3 -0.6,-0.3 -0.3,-0.7 1,-0.7 1.8,0.7 1.6,0.2 z m -42.9,32.9 v 48.2 l 0.5,0.7 9.9,8.1 11.2,9 11.2,8.8 13.3,10.5 13.4,10.2 11.2,8.6 13.9,10.4 7.7,5.7 1.6,0.1 h 17.8 l 0.9,-0.1 0.8,0.5 4.6,5.8 7.3,9.1 1.5,1.5 2.6,1.7 2.8,0.9 5.5,0.9 23.5,4.3 20.6,3.8 26.2,4.7 2.5,0.4 0.4,0.3 0.1,2.6 v 2.6 l -0.2,4.6 0.1,92.5 h -90.3 -112.9 -43.1 l -0.3,-0.5 -0.6,-0.4 -1.1,0.5 -0.4,-0.5 0.5,-1.3 -0.4,-1.4 -0.7,-0.9 -1.3,-3 -0.2,-1 v -2 l -0.8,-0.5 -1.5,0.1 -0.3,-1.7 -0.3,-0.6 -1.2,-1.4 -0.5,-1 0.2,-0.8 1.1,-1 0.3,-0.6 -0.6,-1.5 -0.4,-2 -0.3,-0.6 -0.8,0.2 -1.8,-0.1 -0.5,0.8 v 1.4 l -0.3,0.2 -1.4,-0.1 -1.6,0.2 -1.8,1.5 h -1 l -1.6,-0.8 -1.9,-0.3 -1.2,-1.1 -0.9,-0.3 -0.6,0.6 -0.4,1.3 h -1.1 l -0.3,-1.2 -1.2,0.1 v 0.9 l -0.2,0.8 -1.7,0.2 -1.3,-0.8 -0.7,0.3 -1,1.2 -1.5,-0.8 -0.7,0.5 -0.4,-0.5 0.1,-1.1 -0.4,-0.5 -0.1,-1.4 0.3,-0.6 -0.4,-1.4 v -1.2 l -0.7,-0.4 -0.8,0.5 -0.3,-1 0.9,-0.9 -0.2,-0.6 0.3,-0.8 -0.3,-1.8 -0.4,-1.4 -0.1,-1.3 -0.6,-0.7 -0.2,-1.3 -1.9,-1.4 -0.8,0.4 -1.7,-0.1 -1.4,-0.8 -0.5,-1.1 -0.8,-0.3 -0.7,-0.6 -0.9,-1.2 -0.6,-0.3 -0.4,-0.9 v -0.9 l -0.7,-1.7 -0.500003,-0.5 -1,0.3 -0.4,-0.6 -0.1,-1.1 -0.5,-0.9 -1.1,-0.9 -0.1,-1.2 -0.8,-0.5 -0.9,-1.4 h -1.6 l -0.4,0.4 -0.5,1 -0.9,-0.2 -0.4,-1 -1.3,-0.6 -1.5,0.5 -1.7,-1.4 0.7,-0.5 -0.7,-1.7 -0.3,-1.4 0.4,-0.8 0.6,-0.5 -0.7,-0.5 -0.3,-0.7 0.4,-0.8 1.1,-0.5 -0.3,-0.7 -1.5,-0.7 -1.3,-1.4 -1.2,0.6 v -0.6 l 0.7,-0.4 -0.4,-1.7 -1.1,-0.7 -0.1,-1.2 -0.8,-1.7 -0.7,-0.7 v -0.8 l 0.5,-0.6 0.2,-1 0.5,-1.3 0.7,-1.1 -0.2,-0.7 -1.4,0.2 -1.2,-0.7 -0.5,-2.3 -1,-0.5 -0.6,-1.4 -1.3,-0.3 0.2,-1.1 0.7,-0.6 1.1,-0.3 0.6,-0.5 0.3,-2.1 0.8,-0.6 -0.8,-2.1 -0.7,-0.5 -0.3,-1.1 -1.2,-0.1 -0.2,-0.8 0.2,-0.7 -0.5,-0.4 -1,0.9 -0.6,-0.1 -0.5,-1.1 0.4,-0.6 0.9,-0.5 h 0.8 l 0.4,-0.6 -0.5,-0.7 -0.9,0.1 -1.6,-0.9 -0.8,-1.3 -1.3,-1.1 -0.8,-0.2 -1.4,-0.8 -0.4,-1 v -1 l -1,0.2 -0.1,-1.1 -0.6,-0.7 -0.2,-1 0.8,-1 -0.7,-0.5 -0.4,-1.4 -1,-0.4 0.6,-1.2 -0.6,-0.7 -0.1,-0.6 -0.9,-1.3 -1.2,-0.2 -1.3,-0.9 -0.4,0.1 -0.2,1.2 -2.2,1.2 -0.7,-0.6 -1.4,0.4 v -1.3 l 1,-1.6 0.4,-0.9 -0.6,-0.6 -1.3,-0.3 -1.1,-1.2 -1.2,-2.5 -1.2,-0.2 -1.8,-1.7 -1.9,-0.4 -0.9,0.2 -0.6,-1.2 0.4,-0.7 0.9,-0.4 0.2,-1.1 -0.3,-1 0.2,-0.8 0.7,-0.3 0.3,-0.8 0.8,-0.5 -0.2,-1 -0.4,-0.4 -0.8,0.1 -1.1,-0.6 0.3,-1.5 -0.7,-0.9 -0.4,0.5 -1,0.5 -0.6,-0.5 0.5,-0.5 0.1,-1 0.8,-1.2 1,-0.3 v -1.1 l 0.7,-1.3 1.9,-1.8 0.6,-2.9 1,-1 0.1,-0.6 -0.5,-1.5 -0.7,-0.8 -0.1,-0.8 -0.9,-1.5 -2.2,-2 v -0.6 l 0.6,-1 1.9,-1.1 -0.1,-1.3 -0.4,-0.2 -1.1,0.5 -0.4,-0.3 -0.5,-1.1 -1.1,0.3 -0.7,1 -0.6,0.4 -0.3,1.1 -0.6,0.5 -0.9,0.1 -0.6,-0.5 0.8,-1.5 v -1.3 l -2.3,0.1 -1.8,1 -0.7,0.1 -0.1,0.5 -0.8,0.6 -0.9,-0.4 -1.2,-0.1 -0.2,-0.7 0.2,-1.8 -1.1,-0.6 0.5,-1.3 1.1,-1 0.1,-0.7 -0.2,-1.2 0.1,-1.1 -0.2,-0.9 -0.6,-0.3 -1.4,0.2 -0.7,-0.4 0.6,-2 0.1,-1.5 0.3,-0.5 0.9,0.5 0.2,-0.7 -0.5,-1.1 0.1,-1 0.8,-0.7 -0.1,-0.6 -0.9,-0.5 -0.2,-0.8 -0.8,-0.9 0.3,-0.6 -0.9,-1.3 0.6,-1.2 0.2,-0.9 -0.7,-0.9 -0.2,-1 -1,-1.4 -1.6,-0.9 -0.2,-0.6 0.7,-0.6 h 1.7 l 0.5,-0.5 H 8.7625869 l -0.7,-1.8 v -1.6 l 0.2,-0.8 -0.3,-1.2 1.1,-1.1 0.2,-1.4 0.2,-0.7 -0.4,-1.8 0.2,-0.5 -1,-0.9 0.4,-2.5 -0.2,-2.1 -0.4,-1.2 -0.6,-0.9 -1.5,-0.5 -0.4,-2.2 v -15.4 -20.8 l 2.3,0.7 h 2 l 2.1000001,1.1 1.1,0.9 0.2,0.8 0.7,0.7 0.7,0.4 1.4,0.2 1.5,2.5 1.8,-0.7 -1.1,-0.9 -0.5,-1.7 -1.1,-0.6 -0.5,-1.4 -0.7,-0.5 -0.7,-1 0.3,-0.6 -2.5,0.3 -0.5,-0.2 -1.5,-1.2 0.1,-0.6 0.8,-0.1 -0.8,-1.5 0.1,-0.8 0.8,0.1 0.7,0.9 0.9,0.6 h 1 l -0.7,-2.2 -2,-1 -0.2,-0.4 -0.3,-3.7 0.4,-1 h 0.4 l 1.3,1.5 0.3,0.7 1.9,1.9 1.3,0.3 -0.1,-0.5 -1.7,-0.7 -2.3,-3.5 -0.2,-0.9 0.1,-0.6 0.9,-0.6 0.9,-0.1 0.5,1.5 0.6,1.6 0.3,-0.1 -0.6,-2.9 0.5,-0.5 1.5,0.3 1.1,1.4 1.8,0.9 0.1,-0.6 -0.6,-0.5 -0.7,-3.8 0.2,-0.9 1.3,-1.2 1.3,-0.3 1,0.4 1,-0.5 1.3,0.5 1.2,-0.2 1.2,1.1 0.6,0.2 0.6,-0.7 0.1,-1 -0.4,-0.7 h -0.5 l -0.7,1.2 -0.4,-1 0.1,-1 0.8,0.2 0.3,-0.9 0.5,-0.9 0.4,-1.5 v -0.6 l -1,-2.1 0.8,0.2 0.6,-0.4 0.6,0.1 -0.2,1.7 1.3,-0.3 0.8,1.6 -0.5,0.4 0.2,1.7 0.6,0.7 1,-0.5 0.4,1 1,0.6 1.3,-0.5 0.1,1.1 -0.7,1.3 -2,2.2 -0.7,1.3 -0.1,1.5 h -0.8 l -1.1,1.8 -0.1,1.4 0.4,0.5 0.5,-1.8 0.8,-0.9 1.4,-0.2 1.3,-0.9 0.5,-1.5 1.5,0.2 0.1,-0.8 0.8,-1.1 1.9,-0.6 3,0.1 1.2,-1 0.4,-1 0.5,-0.3 0.4,-1 -0.1,-0.6 0.3,-1 -0.4,-0.8 0.5,-1.4 0.7,-0.8 h 1.3 l -0.3,0.6 0.8,0.1 0.6,-0.6 0.7,0.2 0.9,0.6 1.6,-0.5 0.4,-0.4 v -1 l -0.9,0.2 v -0.7 l -1.3,0.8 -0.4,-0.4 0.4,-1.6 0.7,0.2 h 2.2 l -0.3,0.7 2,0.9 0.5,-1.3 1.1,-0.4 0.8,-1 h 1 l 0.7,-0.9 0.3,-1.3 1.5,-1.3 1.9,-0.6 0.3,-1.8 1.9,0.3 0.6,1.9 1.3,-0.3 0.7,-2.3 0.3,-1.6 -0.1,-0.8 0.7,-1.5 0.8,-0.2 1.3,-0.8 0.4,1.1 0.7,-0.7 v -0.9 l 1.4,-0.9 v 1.3 l 0.6,-0.2 0.9,-0.8 0.9,0.1 0.1,2 0.7,-0.2 0.8,-0.7 -0.1,1.5 0.3,0.1 0.7,-1.6 0.5,0.8 1.4,0.2 0.9,-1 -0.1,-0.9 0.8,-1.6 -0.2,-0.3 0.3,-1.1 0.9,-1.4 0.6,0.5 v 1 l 0.7,0.9 -0.3,0.8 0.8,0.1 0.4,0.6 0.6,0.1 0.6,0.8 -0.3,1.4 -0.4,0.8 -1,0.4 0.7,0.4 -1.2,1.3 -1.3,0.7 -0.5,0.5 -4,2.9 -0.9,0.3 -0.9,0.6 -0.5,-0.3 -1.1,1.6 -0.7,0.7 -0.6,-0.1 -0.5,0.7 -0.2,1.7 -0.9,0.6 -1.1,0.2 -0.8,1.7 -0.1,0.8 -1.1,1.3 -0.8,-0.8 -0.8,-1.3 -0.9,-0.1 -0.6,0.8 -1.4,0.2 0.1,0.9 -1.2,-0.4 -0.7,0.6 -1.9,-0.2 -1.7,0.6 -0.8,0.7 h -1 l -1.1,1.7 0.3,0.8 -0.5,0.3 -0.5,1.1 0.7,0.9 -0.4,0.8 -2.5,1.5 0.2,1.5 -0.3,0.4 -0.5,-1.8 -0.5,0.3 v 1.6 l -0.8,0.7 -0.1,-1.2 -0.4,-0.7 h -0.8 l -0.6,0.9 -1.1,0.2 v 0.6 l -0.7,0.4 v 1.2 l -0.9,1.8 0.3,1.2 -0.3,1.5 0.3,1.7 -0.5,-0.3 0.1,-0.7 -0.3,-0.7 -1.6,-0.9 -0.4,0.7 -0.9,0.4 -0.1,2.9 -0.4,1.2 -1,1.3 -0.7,-0.8 h -0.8 l 0.5,1.1 -0.8,0.5 0.5,1.6 1.3,0.9 0.4,0.5 0.7,0.2 0.7,0.7 1.2,0.7 0.7,-0.4 -1.6,-0.5 -0.1,-0.6 -1.1,-0.7 0.5,-0.3 -0.7,-1 -0.7,-0.4 -0.6,-0.8 1.5,-0.6 0.6,0.2 0.9,1.4 1,-0.4 0.8,0.7 v -1.3 l 0.3,-0.6 0.8,0.5 1.1,1.1 0.7,-0.8 2.2,1 0.6,-1 h 0.4 l 0.3,-0.9 -1.1,-1.2 -0.6,-0.5 -0.4,0.9 -0.8,0.4 -0.3,1 h -1 l 0.1,-0.9 -0.8,-1.4 0.2,-0.5 1.6,0.3 -0.8,-1 -1.2,-0.8 -0.1,-1.5 0.3,-0.4 -0.4,-0.9 0.8,-0.6 h 1.5 l 0.9,-1.2 2.4,-0.6 0.2,-2.2 0.6,0.4 1.5,-0.3 0.1,-1 0.8,0.4 0.6,-0.7 h 0.6 l 0.5,-1 0.6,0.1 0.8,-1.2 0.6,-1.6 0.1,-1 -1.1,0.8 -0.2,-0.8 -0.6,-0.3 0.5,-0.7 0.5,0.4 0.8,-0.4 1.3,0.2 -0.4,-0.7 0.3,-0.8 h 0.7 l 1.3,0.6 0.5,0.7 -0.7,1.1 0.2,1.8 0.7,-0.9 0.4,-2.7 1.6,-0.9 0.3,2.4 -0.1,0.7 -1.1,0.8 -0.5,0.9 0.4,0.3 0.7,-1.3 0.7,-0.2 0.5,-0.7 -0.1,-1.1 0.2,-0.7 -0.1,-1.5 -0.9,-1.5 -0.2,-1.3 1.6,2.5 -0.2,2 0.5,0.9 0.3,-2.1 -0.3,-1.7 -1,-1.2 -0.2,-0.7 0.4,-0.8 0.6,-0.1 0.2,0.7 -0.2,0.7 0.6,1.5 0.2,2.2 0.7,-0.5 -0.3,-1.3 0.6,-0.5 0.1,3.5 -0.7,1.9 -0.5,0.4 0.4,0.6 0.8,-1.9 0.4,0.3 -0.1,1.3 -0.3,1.1 -0.6,1.2 v 0.8 l -0.4,1.3 0.2,2.1 0.4,-0.2 0.4,-2.2 -0.2,-1.5 0.9,-2.1 0.9,-0.8 -0.4,-0.9 0.9,-0.9 0.7,-0.3 0.5,-1.4 -1.2,0.2 2.4,-2.8 0.9,-1.2 v -1 l 0.7,-1.2 0.6,-1.8 2,-0.3 2.4,-1.4 h 0.6 l 2.2,-1.1 1.1,-1.2 h 1.1 l 0.7,-0.4 3.7,-0.6 0.9,-1.1 0.5,-1.7 0.8,-1.2 h 0.4 l -0.3,2.2 -0.5,0.5 0.3,1.6 h -2 l -0.7,0.5 0.5,1.8 -0.3,2 0.4,0.7 h 0.9 l 0.5,0.5 0.9,-0.3 -0.7,-1 0.7,-1 1,-0.1 0.6,-0.5 0.9,-1.4 1.1,-1.9 1.9,-2.2 1,-0.5 0.3,-1.3 v -1.1 l -0.4,-0.6 -0.2,-1.9 0.3,-1.1 0.8,-0.3 0.7,-0.8 1.1,-0.8 1.300003,0.2 0.8,-0.7 1.2,-0.2 2.6,-0.9 0.1,-0.5 -3.3,-0.7 -1.8,-0.7 -0.700003,-1.6 0.1,-0.9 1.400003,0.7 0.4,-1.3 -0.2,-0.6 -1.4,0.8 h -1.300003 l -0.2,-0.7 v -1.6 l 0.4,-1.6 1.000003,-2.2 1.2,-0.9 0.5,0.7 2.6,2.2 2.8,3.2 2.4,3.2 1.1,1.9 0.2,1 0.7,1.4 0.7,2.4 0.7,1.5 0.7,2.1 0.8,0.6 0.4,1.6 -0.5,0.8 1.2,4.7 0.6,1.2 4.2,5.9 0.4,0.8 0.8,0.5 0.4,0.8 2.2,2.2 1.5,0.9 1.1,-0.2 1.1,0.7 0.2,0.6 1.7,1.1 0.8,-1.1 -0.4,-0.9 -0.7,-0.6 3.5,0.4 0.5,-1.1 -0.4,-1.1 -1.7,-0.6 -1.8,0.6 -0.9,0.7 -0.8,0.1 1.5,-2.7 3.4,0.7 -1.1,-1.4 0.3,-1.9 -1.9,-0.3 0.5,-0.7 -0.5,-0.5 0.5,-1.7 0.4,-0.3 1.2,0.3 1,-1.1 1.3,-0.7 0.7,0.5 0.2,2.2 0.8,-0.4 0.2,-1.1 -0.1,-0.9 -0.6,-0.4 -1.8,-0.2 -1,-0.6 -0.8,0.2 -0.5,-1.3 1.2,-1.6 0.2,2 h 1 l 0.5,-0.8 v -1.4 l 0.6,-0.7 0.9,-1.8 2.1,-1.1 h 0.8 v -0.8 l -0.7,-0.6 -0.4,1.4 h -0.7 l -0.7,-0.5 0.5,-0.9 h -1 l -0.2,0.6 -0.8,-0.4 -1.5,1.6 0.1,0.6 -1.2,-0.1 0.4,-0.9 -0.2,-1 0.9,-1.1 1,-0.8 0.6,0.5 0.7,-0.2 1.1,-0.6 0.5,0.2 1.2,-0.5 0.9,1.4 0.7,-0.8 0.9,0.6 0.4,-0.3 -1,-1.8 -1,-0.3 -1.3,0.8 0.1,-0.9 -0.6,-0.4 0.6,-0.7 1.1,0.2 0.4,-0.4 0.7,0.4 1.1,-0.3 0.3,0.5 -0.7,1 0.6,0.5 0.3,0.8 -0.1,1 -0.5,0.9 -0.7,-0.2 -0.1,2 0.6,0.1 v 0.9 l -0.8,0.4 0.7,0.8 -0.1,0.6 0.6,0.5 -0.6,0.8 -0.5,1.5 0.2,1 -0.3,0.7 0.3,0.5 0.7,-0.1 0.6,0.7 0.9,0.1 0.9,-1.1 1.5,0.2 0.4,0.6 -0.4,1.4 -1.3,1.1 -0.3,0.5 -0.1,1.4 -0.5,1.2 -0.9,0.7 -0.9,1.3 -0.2,0.8 0.3,1.1 -1.2,0.2 1,1.3 1.2,0.5 1.9,0.2 0.7,-0.4 0.4,-0.7 1.2,-0.2 0.8,0.4 0.9,-0.4 1.2,0.5 0.3,0.3 1.4,-0.5 1.9,-1.2 -0.6,-0.4 -0.1,-1.6 1,-0.8 2,0.2 0.2,-1.3 0.3,-1 -0.3,-2 0.7,-1.5 -0.1,-1.6 -0.6,-1.5 0.9,-0.6 0.8,-1.2 0.7,-0.4 1.3,1.1 0.7,0.3 0.3,-1 1.3,0.1 0.5,0.4 1.2,0.3 1.4,-0.4 2,0.3 1.6,-0.5 4.4,1 1,0.6 1.5,0.1 7,4.7 z m -83.600003,-35 -0.6,1.3 -1.2,0.1 -1.1,0.9 1,-3.5 0.6,-0.4 1,1 z m 204.100003,-67.3 -0.4,-0.6 -2.4,-1.8 0.7,-0.5 1.1,0.5 1,1.4 z m -5.2,-2.9 h -0.8 l -0.6,-1 h 0.7 z m 5.2,-5.2 v 3.2 l -1.1,-1.4 -0.8,0.6 -1,-0.3 -0.3,-0.8 1.4,-0.5 -0.5,-1.1 1,-0.4 z m 0,-1.7 -1.1,-0.3 -1,0.8 -0.5,-0.6 0.6,-0.4 0.1,-0.9 -0.6,-1.2 -2.9,-0.6 -0.9,-1.1 -0.7,-1.8 -0.6,-0.5 -0.7,-1.5 -0.1,-0.7 0.5,-0.9 7.1,0.5 0.8,0.4 z m 0,11.2 v 11.3 l 0.1,75.1 h -28.2 v 3 l -1,-0.2 -0.8,0.5 1.4,0.4 1,-0.2 0.5,0.8 -0.7,0.7 h -1.3 l -0.8,-0.2 v 0.7 l -2.6,0.1 -0.1,-0.6 0.1,-4.6 -0.2,-0.4 h -46 -1.7 l -0.3,3.7 4.2,6 1.2,1.7 0.4,0.8 -1.6,-0.1 -0.9,-0.5 -1.3,-1.2 -1.5,-0.6 -0.5,-0.9 -1.2,-1.1 -0.4,-2.1 -0.9,-2.9 -0.2,-1.1 -0.6,-1.3 0.9,-1.9 0.7,-0.3 1.1,-1.2 2.6,-1.2 5.2,-1.2 5.4,-1.9 4.4,-0.9 4.6,-0.5 2,-0.6 3.3,-0.3 2.9,-0.8 3.6,-0.1 1.7,1.2 4.5,0.6 1.8,-0.7 2.9,0.8 2.6,1 0.3,-0.8 1.1,0.3 0.4,0.5 2.8,1 v -0.7 l 0.7,-0.8 1.5,-0.2 1.3,-1.1 0.2,-0.8 3.6,1.5 1.1,-0.3 1.4,0.3 0.9,-0.6 1,0.4 0.9,-0.4 -0.1,-0.6 -0.9,0.1 -0.4,-0.5 1.2,-0.7 -0.3,-0.7 -0.6,-0.2 -2.7,0.2 -0.8,-0.5 -1,-0.2 -1.2,-1.4 -0.2,-1 -0.6,-1.7 -0.6,-0.4 h -1 l -0.5,-0.6 -0.7,0.4 -0.5,-0.7 -0.7,0.4 -1,-0.2 -0.6,-0.8 -1,-0.6 h -1.4 l -0.2,0.9 -0.7,-0.8 -1.4,-0.8 -0.6,-1 -0.8,0.4 -0.3,-1.4 h -1.8 l -0.5,-0.2 -0.9,-0.9 -0.8,1.3 -1.8,-1.7 -3,-0.8 -0.6,0.2 -1.2,1.3 -0.4,0.1 -1.9,-0.6 -0.6,0.2 -1.2,1.2 -4.1,0.6 -2,0.8 -2.2,-0.2 -2.9,0.4 -0.9,0.6 -1.7,-0.9 -3.5,0.9 -1.7,-0.6 v -1.2 l -0.5,-0.2 -3.9,0.2 -1.2,0.9 -3.4,0.2 -2.8,-0.6 -1.1,0.5 -0.5,-0.8 -1.6,0.3 -0.8,0.4 -1.2,-1 -0.5,-0.9 0.3,-1.1 -0.2,-0.6 -0.9,-0.9 -0.7,-0.3 -3.6,-3.2 -0.9,-1.3 -1.6,-3.3 -0.1,-0.6 0.4,-1.1 6.6,-5.1 3.7,-0.6 4.3,-2 2.2,0.1 0.5,-0.3 0.5,-1.5 5.6,-2.1 0.5,-0.4 1.9,-0.5 0.6,0.5 3.2,-0.2 0.4,-0.7 -0.7,-0.2 h -1.3 l -1.8,-0.9 -1.6,-0.3 0.2,-0.6 h 1.6 l 3.5,-2.4 0.1,1 1.3,-0.5 0.5,0.9 0.9,0.2 0.8,0.5 1.1,-0.8 1.3,-0.3 0.7,-0.7 1,-0.8 -0.6,-0.3 -2.1,1.3 -1.5,0.3 -0.8,-0.2 -0.7,-0.8 1.2,-0.8 -1.7,-0.5 -2.5,0.2 -0.7,0.6 -1,0.1 -0.8,0.5 -1.5,0.5 -4.2,0.8 -0.9,0.8 h -1.1 l -1,0.8 -1.2,0.2 -1.4,-0.3 -0.9,0.7 -1.1,0.5 -0.7,-0.1 -0.9,0.6 -0.6,-0.2 0.4,-2.1 -0.7,-0.6 -0.6,-0.9 -1.5,0.8 0.3,0.9 1.2,0.2 0.2,0.7 -0.8,1.7 -1.8,-0.5 -1.4,0.4 -0.7,-0.4 -3,0.3 -0.9,-0.5 -0.7,-1.4 v -1.3 l 0.6,-1.2 1.4,-1.3 2.2,-0.2 1.7,0.6 0.2,-1.1 0.8,0.2 0.5,-0.6 -0.5,-0.4 -0.9,-0.1 -0.6,-0.8 -1.6,-0.5 0.3,-0.8 0.9,0.1 1.9,-1 -0.3,-0.3 -4,0.4 -1.2,1.4 -0.3,1 -1.7,0.2 -0.6,0.5 0.2,-1.6 -1.1,-1.2 -1.3,-0.4 -0.3,0.6 -0.6,-0.3 -1.6,-0.1 -0.9,1.5 0.5,1 -0.7,0.1 -0.8,-0.9 -0.6,-0.4 -0.5,-1.5 -0.5,-3.8 0.4,-2.4 v -1.5 l 0.6,-2 1.2,-2 1.3,-1.7 0.9,-0.6 0.5,-1.4 -0.2,-0.6 0.5,-1.2 1.1,-1.4 1.6,-0.1 3.5,-1.7 0.3,-0.7 -0.3,-2.3 -0.5,-1.1 -0.8,-0.3 h -2.1 l -1.2,-1 -0.6,-1.3 v -0.8 l 0.2,-1.8 0.7,-1.2 2.6,-3 0.6,-0.6 0.4,-1.2 1.7,-1.3 0.4,-0.1 1.6,-1.1 0.6,-1.3 2.4,-2.3 0.6,-1.3 0.7,-0.8 0.9,-2.1 0.4,-0.4 1.8,-0.2 1.1,-0.9 2.4,-0.8 2.9,-2.6 0.5,-1 1.1,-0.1 2,-1.2 1.4,-1 2.1,-0.9 2.8,-1.7 2.2,-0.6 1.9,-1.3 1,-1.2 h 0.9 l 1.2,-1.2 2.5,-1 1.9,-1.8 0.7,-0.4 1,-0.3 2,1.4 1.6,0.5 0.8,1.1 2,3.8 0.4,1.4 0.2,2 -0.4,2 v 1.4 l -0.4,1.2 -0.1,1.3 0.2,1.4 -0.3,1.4 v 1.1 l 1,1.8 -0.6,1 -2.5,0.2 -0.5,1 -0.8,0.7 0.5,2.8 -1.1,0.6 -0.7,1.3 -1.4,0.6 1,1.3 1.1,0.5 0.8,-0.1 0.2,-1.1 0.7,-0.3 1.5,-1.4 2.7,-1 0.3,1 0.7,-0.1 2.7,-2.3 v 1.1 l -1.4,1.2 -0.6,1 0.6,0.2 0.5,-0.5 0.2,-0.7 1.6,-1 0.4,-0.7 v -1 l 0.4,-0.8 -0.4,-0.8 -1.3,-0.1 -0.5,-0.9 1.3,-2.4 1.1,-2.7 2.2,-3.1 2,-0.9 0.9,0.4 h 0.9 l 0.8,0.8 2.9,0.9 1.8,1.8 1,0.5 2.3,0.1 0.8,0.7 1,0.4 0.5,0.5 1.8,1 0.8,0.8 1.1,0.1 0.9,1.4 v 0.7 l 1.8,0.6 1,0.5 -0.1,1 0.2,0.9 -0.4,1.7 -0.2,1.9 -0.3,0.5 -2.3,2.1 0.6,0.3 -0.1,0.7 -1.3,1.6 -3.3,2.2 -0.5,1.3 0.9,0.8 0.9,-0.3 0.6,-0.9 0.5,0.6 -0.2,0.6 -0.6,0.8 -0.1,1.2 -0.7,1.8 0.6,0.3 0.8,-2.9 h 0.7 l 0.4,-0.6 1,-0.6 -0.3,-0.6 -0.8,-0.1 -0.4,-0.9 0.4,-0.8 1.1,-0.6 0.8,-0.8 0.7,-1.3 1.2,-0.4 0.4,0.3 -0.4,0.8 -1.2,0.7 0.7,0.8 -0.1,1.1 0.7,0.2 0.3,1 1,0.3 0.9,0.7 -0.6,-2.2 v -1.3 l 0.9,-0.9 0.3,-0.7 -0.2,-0.8 0.7,-0.4 1.7,0.2 -0.6,-1.8 1.3,-1.7 0.5,-0.3 0.6,0.7 1.1,0.3 0.4,0.5 -1.1,0.9 v 0.8 l 0.5,0.7 1.1,0.5 1.3,1.3 0.3,-0.3 -2,-1.7 -0.6,-0.9 0.6,-0.8 0.6,-0.1 0.6,-1.2 0.6,0.2 1,1 0.8,1.8 1.3,1.5 z m -130.7,-83.6 1.7,1.1 1.8,-0.1 0.7,0.9 0.9,0.1 1.4,1.7 0.3,0.8 v 1.1 h 0.5 l 8.8,6.1 2,0.3 1.4,1.5 3.3,-0.1 -1.1,0.5 0.2,1.3 -0.5,1.2 -1.5,2.5 -0.1,1.4 0.4,1.1 0.7,-0.1 -0.3,-1.3 0.4,-1.3 1.2,-1 0.4,-0.9 0.8,-2.4 0.3,-0.5 1.2,0.3 1.6,-0.4 1,0.8 0.5,1 v 1.4 l -0.4,0.9 0.7,0.4 0.1,1.2 -0.9,1.3 -0.5,2.7 0.5,-0.1 0.9,-0.9 h 1.3 l 0.8,-2.5 0.7,-0.5 0.3,-1.5 -0.9,-1.5 -0.1,-0.6 1.8,-1.8 1.1,-0.3 0.8,-0.6 1.1,-0.2 0.6,-0.4 3.8,-1 7.3,2 6.2,6 5.5,7.7 0.6,1.3 1,0.3 0.7,1.4 2.3,2.5 0.6,1.4 2.1,1.9 1,0.2 0.7,1.5 2.1,2.9 0.5,1 0.4,1.4 v 1.1 l -0.9,0.5 -0.6,1.5 -0.9,0.2 -0.6,0.8 -1.9,1.9 -2.5,1.2 -2.7,1.6 -2.7,0.9 -0.5,0.9 -2.4,1.5 -0.9,1.1 -0.7,0.2 -0.6,1 -0.9,0.9 -1.8,1 -0.8,1 -2,0.5 -3.3,2.8 -0.8,0.4 -1.3,1.6 -1.3,1 -0.6,0.7 -2.2,1.1 -2.2,1.9 -1,1.9 -0.6,0.2 -1.6,0.1 -0.6,0.4 -1.6,1.9 -2.9,2.3 -0.3,1.9 v 1.8 l -0.7,1 0.1,0.7 -0.7,1.3 -0.3,2.5 0.3,0.5 -0.4,0.9 -1.1,1.1 -2.4,1.6 -1.4,1.6 -0.6,0.3 -0.8,-0.3 -0.9,0.2 -2.2,-0.4 0.5,-1 -0.7,-0.4 -0.7,0.5 -0.1,0.7 0.8,0.9 0.4,2.9 -0.5,2 -1.2,2.4 -1.4,2 -0.3,1.3 0.8,1.7 -0.2,0.6 v 2.7 l -0.2,1.5 0.4,1.7 -0.4,2.4 -1,3.3 -1.4,1.8 -1.5,0.7 -2.5,1.6 -2.4,0.6 -2.5,1.1 -2.1,-0.8 0.7,-0.6 -0.2,-1.2 -0.4,-0.4 -1.1,-0.1 -0.4,0.3 -1.4,1.8 -0.8,1.7 -0.6,0.5 -0.9,1.7 -1.1,1.3 -0.8,0.3 -1,0.6 -0.9,0.3 -2.6,1.8 -1.4,2.6 -0.5,0.4 -3.4,0.2 -0.6,-0.3 -1.2,-1.3 -1.1,-1.9 -0.9,-2.3 -1.4,-5.3 -0.7,-2.2 -1.3,-2.3 -0.8,-0.6 -0.3,-1 -1.2,-3 -1.4,-1.6 -6.8,-3.8 -2.3,-1.9 -1.1,-1.2 -3,-1.9 -0.2,-0.5 3.3,-0.4 -0.6,-0.4 -3,-0.1 -3.3,0.2 -2.5,0.9 -1,-0.5 0.8,-0.4 0.7,-1.8 0.3,-2 -0.1,-1.1 -0.8,-0.2 0.5,-1.2 0.7,-0.8 0.8,-0.3 -0.4,-0.6 -0.3,-1.4 0.4,-1 0.9,0.3 1,-1.3 -0.5,-1 0.4,-1.3 0.6,-0.5 0.5,-1.6 -0.3,-0.7 1.2,-1.6 0.1,-0.9 1.4,-1.1 1.3,-1.8 1.3,-0.2 -0.2,-1.4 -0.8,-0.1 -0.7,-0.9 0.7,-0.3 0.6,-1 0.4,-1.3 h -0.8 l 0.5,-1.6 v -0.6 l -0.5,-1.4 -0.2,-1.4 -0.5,-0.2 -0.4,-0.9 0.5,-0.8 1.4,1 1.9,-1.5 0.8,0.3 2.5,-1.4 0.1,-0.6 -0.5,-0.6 0.3,-0.8 -1.1,-0.7 -0.5,-0.9 -0.9,-0.3 -0.4,0.3 -1.1,-1.8 -0.1,-1 0.4,-0.6 0.4,-1.4 1.4,-0.5 -0.1,-1.1 1.1,-2.7 0.4,-1.8 0.6,-1.8 0.8,-0.8 0.1,-1 -0.4,-1.2 0.4,-0.7 1.1,-0.9 0.4,-1 h 1.1 l 0.3,-1.4 0.9,-0.8 v -1.2 l 0.4,-1 -0.5,-1.6 0.3,-1.1 1.5,-1.4 0.9,-0.1 -0.1,-1.2 0.9,-1.4 -0.6,-2 -0.7,-1 -2.9,-0.5 -0.9,-1.6 0.3,-1.3 -0.7,-1.6 -1.1,-0.9 0.1,-0.4 -0.6,-2.5 -0.7,-0.8 -0.1,-1.4 0.4,-0.5 -0.2,-1.2 -0.4,-0.7 -0.2,-1.4 -0.3,-0.8 0.1,-0.8 -0.3,-1.1 -0.4,-0.3 -0.9,0.2 -0.3,-0.4 1,-1.6 -0.5,-0.4 -1.2,0.3 -0.4,-0.7 0.4,-0.6 0.8,-0.2 3.1,-0.9 2,-0.4 1.2,0.3 0.4,-1.1 4.1,-0.4 0.5,-0.6 h 2.3 l 2,-1 3.6,-0.1 4.1,-0.4 5.7,-1.5 3.7,-1.9 z m 130.7,-60.1 v 1.5 l -0.5,-0.8 z m -125.2,8.2 h -0.8 l -1,-0.5 -0.4,-0.7 0.4,-0.8 2.5,-1.8 v -1.2 l 0.4,-1.3 -0.5,-1.2 0.5,-1.6 0.9,-0.5 0.4,0.3 0.2,2.4 -0.5,3.4 -0.9,2.2 z m 38.8,-18.2 0.4,0.5 0.9,0.3 0.9,1 -0.2,0.3 -0.2,1.6 -0.4,1.2 -0.5,0.7 v 1.3 l -0.6,1.1 -0.5,1.4 -0.9,0.8 -0.8,1.9 0.1,1.1 -0.9,1 v 0.8 l -0.6,1.3 0.2,1.6 -3.8,5.7 0.2,0.9 -4.1,4.2 -1,-0.2 -1,-1.1 -1.7,-0.1 0.1,-1.3 -0.9,0.3 -0.9,-0.8 -1.2,0.4 -2.4,-1.7 v -0.6 l 0.9,-2.1 3.2,-4.1 0.7,-0.5 0.7,-1.9 0.9,-1.5 1,-0.6 0.2,-1.2 0.6,-1.2 0.7,-1 3.5,-2.3 1.2,0.2 0.8,-1 0.6,-2.2 0.7,-0.1 1.5,-1.4 -0.1,-0.6 1.1,-1.4 z m 86.4,-4.8 -1.6,-2.3 -2.6,-1.2 0.6,-2 -0.5,-0.5 0.1,-0.9 -0.4,-1.2 0.2,-1.6 0.7,0.1 2.3,-1.2 1.2,-1.6 z m 0,31.6 v 30.6 l -0.5,1 -0.4,-0.5 -0.8,0.6 -1.7,-1.1 -0.8,0.5 -0.4,0.9 0.9,0.6 -0.1,0.4 -2.9,0.5 -0.7,-0.2 -0.1,0.8 0.9,2 -0.3,0.9 -1.8,0.9 -0.9,1.4 -1,0.2 -0.6,1.3 h -0.9 l -0.9,0.9 h -0.8 l -1,1.4 -1,-0.4 -1.9,1.7 -0.9,1.3 -6.6,2.2 -0.8,0.7 -1.4,0.8 h -2.3 l -4.4,0.7 -2.2,-0.4 -2.6,-0.6 -2.7,-1.1 -0.8,-1.1 -4.6,-4 -2.5,-3.1 -0.4,-0.8 -0.1,-1.1 0.5,-1.3 0.9,-0.8 0.9,-1.1 2.9,-2.1 1.6,-0.3 0.9,-0.9 1.4,-0.3 1.5,0.1 0.9,-0.7 0.9,-0.3 1.4,0.7 0.2,-0.7 -1.3,-1.1 1.2,-0.1 1.1,-2.2 1.1,-0.5 0.6,-0.6 1.8,-0.8 1.1,0.2 1.7,-0.8 h 3.1 l 2.4,-0.4 3.2,1 1.2,-0.8 1.3,-0.4 1.3,-2.1 0.4,-0.1 1.3,-1.1 -0.1,-0.5 0.5,-1 1.2,-0.7 1.4,-1.7 -0.5,-0.6 0.5,-0.6 0.4,-0.9 0.8,-0.4 -0.4,-0.8 -1.7,-1 -1.6,0.3 -0.3,1.5 -0.4,1 -0.7,1 -1.3,1 -1,-0.3 -1.2,1 -0.8,-1.8 -1.6,2.2 -0.3,0.1 -1.6,-0.5 -1.7,0.9 -1.5,0.3 -0.8,-0.3 -0.6,-0.9 0.5,-0.7 0.7,-0.4 0.8,-1.4 -1.1,-1.7 -0.8,0.9 0.2,0.8 -0.1,1 h -1.6 l -0.3,-0.4 -0.1,-1.2 0.4,-0.7 -0.3,-1.3 -0.9,0.1 -0.5,2.5 0.6,1.4 -0.1,1.4 h -0.3 l -1.5,1.4 -1.8,0.7 -0.7,-0.6 -0.5,-1.5 -0.6,2.1 -0.3,0.3 -1.6,0.3 -1.1,-0.2 -2.5,1.1 -2.5,0.1 -0.8,-0.7 v -2.1 l 0.5,-1.2 3,-1.8 -0.8,-0.3 -1.7,1.2 -0.8,-0.6 0.7,-3 0.5,-2.3 0.6,-1.7 1.1,-0.9 0.9,-0.2 0.8,-1 1.8,-1.3 -0.5,-0.3 -1.1,0.2 -4.1,2 -0.5,-0.6 -0.5,-1.9 -0.8,-1.6 -0.4,-0.4 -0.2,2.9 0.4,1.1 0.1,0.8 -0.8,4.2 -0.4,1.4 -0.5,0.7 h -0.6 l -0.7,-0.6 -0.4,-0.9 -0.2,-1.1 -2.1,-1.2 -0.4,0.6 -0.3,1.1 h 0.7 l 1.2,0.4 0.4,0.7 0.3,1.3 0.9,1.6 -0.3,2 -1.3,3.1 -5.8,4.2 -1.1,0.2 -1.1,-0.8 -0.5,-0.8 -0.3,-2.5 0.1,-0.9 0.5,-0.8 -0.1,-1.2 -0.6,-2.1 -0.5,1.1 -1.5,2 -0.4,0.1 -0.9,-1.1 -1.4,-1.1 v 1 l 0.7,0.6 -0.2,0.4 0.7,2.9 -0.1,1 -0.4,0.9 -0.8,1 -0.6,0.1 -2.4,-1.2 -1.2,-1.2 -1.5,-0.6 -1.1,-1.2 1.3,-0.7 0.7,-0.7 v -1.3 l -2.1,1.2 -0.8,-0.6 1,-2.1 -0.1,-2.2 -2.3,1.2 h -0.9 l -0.8,1 -0.6,1.6 -1.1,0.2 -1.5,-0.9 -0.6,-0.9 -0.7,0.6 -5.6,-2.3 -0.9,-1.2 -0.9,-0.7 -0.2,-0.7 0.4,-0.9 -0.3,-0.6 0.6,-0.9 h 0.7 l -0.2,-1 0.3,-1 2.8,-4.5 1.2,-1 8.5,0.2 0.9,-0.6 2.4,0.6 1.3,-0.4 5.1,-4.6 3.7,-0.7 -0.3,-0.8 0.4,-1.3 1.6,-1.8 1,-0.3 -0.4,-0.7 -3.6,2.3 -3.6,0.6 -0.9,0.9 -2.4,0.7 -1.3,1.2 -0.2,0.3 -12.2,0.1 -0.5,-0.3 -0.1,-1.2 0.3,-1.1 2.9,-5.9 0.9,-1.2 12.3,-2.1 0.4,-1.3 2.1,1.3 7.9,-1.5 0.6,-0.6 0.1,-1.1 -0.5,-0.4 -9.4,1.2 -0.8,-0.5 -4.9,1.3 h -0.5 l -5.3,-1.4 -0.2,-1 0.2,-1.9 1.1,-0.7 1.5,0.2 0.1,-1 -0.6,-0.9 0.3,-0.7 -0.5,-0.4 -1.3,0.8 -0.5,-1 v -0.8 l 0.8,-3 0.7,-0.4 0.5,-1.4 4.1,-2.1 2.4,0.1 1.2,0.8 1.9,0.2 2.5,-0.4 3.3,1 2.4,0.2 1.4,0.7 1.3,-0.3 0.5,-0.4 -0.5,-0.5 -1,0.3 -0.9,-0.4 h -1.1 l -0.7,-1.5 -2.7,-1.4 h -5.7 l -1.1,-0.7 -0.5,-1.6 0.8,-1.7 -0.7,-1.3 0.5,-0.7 4,-4.5 5.6,-1.1 0.4,-0.3 0.9,-1.5 0.4,-0.2 h 1.9 l -0.7,1.4 3.5,-0.4 2.8,1.4 0.5,0.6 0.5,1.4 0.3,1.9 -0.2,1.3 -0.7,0.9 0.7,0.1 -0.3,1 0.6,1.3 0.8,1 0.3,0.8 -0.9,1.8 1.1,1.3 1,-0.7 h 1.9 l 1.6,-1.4 1.4,-0.3 1,-1.2 1.5,0.1 0.7,0.6 1.9,-1 0.9,0.4 0.5,0.7 0.4,1.5 0.9,-0.2 v 0.8 h 1.5 l 0.9,0.9 1.2,0.8 -0.8,1.2 -0.1,1.6 0.8,1.5 0.3,1.3 0.6,0.8 2.8,1 2.9,2.8 1,0.2 0.5,1.5 -0.6,0.7 -3.3,1.2 -1.3,1.2 0.5,0.7 -1,0.9 0.8,0.3 0.8,-0.6 h 0.6 l 1,0.6 0.9,-1 4.6,-0.6 -0.4,1.3 h -1.1 l 1.5,1.2 0.3,1 -0.2,1.1 0.7,0.2 0.3,1.1 -0.5,1.7 0.3,1.1 -0.3,1.7 0.6,1.6 0.7,0.6 -0.3,0.9 0.5,0.9 0.7,0.1 2.2,-0.3 1.8,-1.2 3.9,-0.7 0.9,0.6 0.2,0.9 2.2,0.2 0.7,-0.5 z m -42.1,-63.5 1.7,1.8 0.8,0.5 0.6,1.9 0.1,1.3 -0.4,0.2 -0.8,1.4 -1.3,1.8 -1.8,-1.1 -6.6,-0.2 -1,-0.7 -4.1,-0.9 0.1,-1.9 0.2,-0.4 2.4,-2.6 2.2,-1 2.2,0.1 0.5,-0.6 4,-0.4 z m -27,-29.999995 0.5,0.6 2.2,1 0.4,0.7 0.9,-0.1 1.3,2.1 0.9,0.6 1,1.3 0.3,0.9 0.7,0.9 -1.2,1.2 -0.3,1.3 -1.7,0.4 -1,0.4 -1.7,2.1 -3.7,0.9 -0.3,0.3 v 1.3 l -0.3,0.8 -0.8,0.1 v 0.9 l 1,0.8 v 1.5 l 0.3,1.4 0.4,0.699995 4.4,3.4 0.9,0.4 0.3,0.9 -0.3,0.7 -1.7,1.8 -1.3,-0.1 -2.7,-2 -0.7,-0.3 -0.5,0.7 0.1,1.2 1.1,1.5 1,1.8 1.5,0.6 0.5,1.7 v 1.4 l 0.4,0.7 0.7,2.6 -0.9,0.5 -1.2,2.9 -2.7,2.4 -1.5,0.1 -0.7,0.5 -2.8,-0.2 -0.9,1.6 -1.3,-0.8 -0.5,0.2 -0.8,1.3 0.2,1.5 0.6,0.8 0.2,0.7 -0.1,2.1 0.6,1.4 0.1,1.7 -0.4,0.7 -0.6,0.4 -1.3,2 -1.6,0.5 -0.8,1 -2.5,-0.6 -1,-1.1 0.1,-1.1 -0.3,-0.4 h -1.6 l -0.4,-0.2 -0.1,-0.9 -1.6,-2.6 -0.6,-0.4 0.3,-0.9 -0.2,-0.7 0.7,-1 -0.5,-1 0.2,-0.9 1.2,-1.4 -0.5,-1.7 0.5,-0.6 -0.8,-1 0.9,-2 -0.3,-1.7 0.1,-0.8 0.6,-0.8 1.1,-2.3 0.3,-1.2 -0.4,-1.5 -0.5,-0.7 -0.5,0.1 -1.1,2 -1,0.9 -3.3,-0.3 0.4,1.4 -0.3,1.6 -1.9,-0.5 0.4,1 -0.1,0.7 1,1.2 0.4,0.8 0.3,2.7 0.2,1 -0.2,0.9 -1.3,-0.2 -0.5,0.4 -0.2,1.5 -0.4,0.5 -1.5,-0.3 -0.7,-1.6 -0.7,-0.7 -0.4,1.5 -0.7,-0.1 -0.6,0.3 -0.4,1.5 1.6,0.7 0.2,0.9 h 1 l 1,1.3 0.5,2.1 -0.2,0.9 0.5,1.2 -0.9,2.6 -0.5,0.3 h -1.9 l -0.4,0.4 -0.3,1.1 -0.1,2.2 0.4,1.6 -0.7,0.4 v 1.3 l -1.1,0.5 -0.4,1.8 -1,-1.2 h -0.7 l -0.5,-0.8 -0.2,-0.9 v -1.8 l -0.8,-2.2 -0.7,-0.8 -0.3,-1.4 -0.2,-3.6 -1,1.6 -1.1,-0.8 0.2,2 -0.1,0.9 -0.6,0.5 1.3,3.1 0.4,1.4 -0.6,0.5 -1,-0.1 0.3,1.1 1.4,0.8 -0.3,0.5 -2.5,-0.1 0.5,0.7 0.8,0.3 1.9,1.9 0.3,0.8 0.2,1.4 -0.1,1.5 h -0.7 l -0.6,-0.9 -0.6,0.4 -0.6,1.9 1,0.7 -0.1,0.5 -0.9,-0.2 -0.8,1.8 -1,1.1 -2,0.8 -0.4,-0.6 -0.2,-1.3 -0.7,-0.7 -1.2,3.1 -0.8,0.9 -1.2,0.1 -0.5,-1.7 0.2,-2.3 0.1,-1.3 0.8,-2.2 -0.7,-0.5 0.2,-1.1 -0.3,-0.4 -1.4,0.4 0.3,0.6 -1,0.1 -0.8,-1.7 -0.2,-1.3 0.2,-0.9 -0.3,-2.3 0.9,-0.9 -0.3,-0.8 -1.2,-0.8 -0.6,-1 -0.4,-0.1 -1.2,1.7 -0.2,1.2 0.1,1.7 -0.3,0.7 v 1.2 l 0.7,2.3 0.3,2.1 -0.4,0.9 -0.5,-0.1 0.1,-1.3 0.3,-0.3 -0.6,-0.9 -0.9,0.2 -1,0.7 -0.6,0.9 -0.3,2.1 -1.7,-1.1 0.2,-0.6 -0.9,-1.4 -0.7,-0.3 -1.5,-1.2 -1.5,-0.5 -0.3,-0.7 -2.2,0.5 -0.6,-0.3 -0.4,0.6 -0.2,1.4 0.2,0.9 h -0.7 l -2,1.9 -0.6,0.2 -2.2,-0.4 -1.3,-1.7 1,-0.5 0.5,-0.7 -1.1,-0.8 1.1,-0.6 0.9,-1.3 -0.1,-0.3 0.5,-1.6 -0.4,-1 h -1.9 l 2.2,-0.9 -0.9,-0.3 v -0.9 l -1.1,-0.5 -1.1,1.2 h -0.8 l -0.1,0.9 -0.5,1.2 -0.8,0.8 -0.5,-1.5 0.6,-0.4 0.1,-0.9 0.4,-0.3 -0.4,-1 1,-0.2 0.3,-2.6 1.2,0.3 0.2,-0.7 0.8,-0.9 -0.1,-1.7 0.1,-1.3 0.5,-1.2 1.6,-1.4 0.8,-1.3 4.7,-1.4 2.1,0.6 2.5,-0.5 0.5,-0.6 0.1,-1 0.9,-1.5 0.2,-0.7 -0.1,-1.9 1,-1.2 0.1,-0.8 1,-1.3 0.3,-2.8 0.6,-0.5 0.7,0.9 0.5,-0.7 1.4,-0.5 1.2,-1.9 2.9,-1.3 0.5,-1.2 1.6,-1.5 -0.2,-0.7 0.2,-0.7 -0.7,-1.3 0.7,-1.2 1.6,-0.5 0.7,-1.4 -0.1,-1.1 0.9,-0.6 -0.1,-1.2 0.1,-0.8 0.6,-0.8 1.3,0.1 0.3,-1.699995 0.7,-0.6 0.1,-1.7 1.2,-0.9 h 0.8 l 0.3,-1.3 0.3,-0.5 2,-1.5 0.4,-0.6 1.1,-4.9 1.1,-1.5 0.7,-0.5 1.8,0.4 1.1,-0.9 0.6,-1.2 0.7,0.3 0.6,-0.5 5.9,0.2 0.9,-1 2.8,-0.5 -0.9,1 v 0.5 l 1.5,-0.6 0.8,1.7 0.8,-0.1 0.5,0.6 1.6,-0.3 0.2,1 h 0.8 l 1.7,1.6 1.1,-0.9 1.1,0.5 0.3,-0.5 -0.6,-1.6 -0.4,-0.5 -0.8,0.1 0.2,-1.2 1.4,0.6 1.9,1.8 0.6,0.1 0.4,-0.7 -0.4,-0.7 0.4,-0.6 1,-0.8 0.4,-1 -1.1,-0.6 -0.9,0.9 -0.3,-1 -1,0.3 -0.6,-0.1 -0.4,-1.7 -1.4,-1.4 0.5,-0.8 0.8,0.6 0.7,-0.5 0.7,-0.1 1.8,-2 -0.2,-0.4 -1.7,-0.4 0.3,-0.4 5.5,-1.4 -0.2,0.8 1,0.3 -0.2,0.7 1.2,0.1 1.7,1.9 z m 20.4,-28.8 0.7,1.3 1.6,-0.6 0.5,1.5 1.4,2.9 2.4,1 0.4,0.6 0.3,2.4 0.8,0.7 v 1.1 l -1.3,2.3 -5,3.3 -1.6,-0.4 -2,-2 -1.6,-0.3 v -0.9 l 1.2,0.7 -0.3,-1.2 -0.5,-0.7 -0.9,-0.6 -1.5,-2.3 -0.7,-0.5 -2.9,-5.4 0.9,-0.4 0.5,0.5 0.5,-0.1 0.6,-0.7 1.1,-0.5 0.7,-0.9 0.6,-1.9 2.1,-0.8 1.2,-1.5 0.7,-0.3 0.5,1.1 -0.7,1.5 z m 48.7,-4.7 v 9.2 l -1.3,0.5 -1.2,1.3 -6.9,1.5 -0.7,0.9 0.2,1.7 1.2,0.9 0.7,2 3.5,-0.4 0.7,-0.6 2.4,0.2 0.5,0.9 v 1.7 l -0.3,1.4 0.2,1.2 0.3,0.7 -0.1,0.7 0.4,0.7 -0.1,0.6 -0.8,0.8 -0.5,0.9 0.7,0.7 0.2,0.8 -0.3,1.5 -0.5,0.6 -0.9,1.5 -3.8,2.5 -1.5,0.1 -1,0.5 -0.4,1 -0.6,0.6 -3.5,-0.4 -1,-0.6 -1.3,1.5 -5.5,2.6 -1.2,1.2 -1.3,0.2 -4.1,-2.3 -0.4,-0.9 -1.1,-3.4 -0.4,-0.6 -1.6,0.9 -1.7,-0.9 -0.3,-0.3 -0.2,-1.6 -0.7,-0.9 -1.5,0.2 -0.3,-0.7 -0.3,-2.5 -0.2,-0.3 0.3,-1 1.4,-1.2 -1.9,-2.5 0.4,-0.6 0.1,-1.5 -0.2,-0.9 0.5,-0.7 -0.9,-1 -0.4,-0.9 -0.2,-1.7 0.1,-1.6 0.3,-1.3 0.8,-1.5 -0.3,-0.8 1.1,-1 h 0.6 l 0.7,1.3 0.8,-0.2 0.4,-1.4 7.3,-4.7 1.2,0.4 1.3,-0.9 1.2,0.2 1.4,-1.7 0.5,1.2 1,-0.1 0.6,-0.9 1.2,-1 1.6,-0.3 1.3,-1 0.8,0.5 2.2,-0.8 0.3,1.3 1.4,0.2 0.4,-0.3 1.2,-1.6 z m 0,-33 v 20.3 l -3.7,2.4 -5.7,-1.6 -0.3,-1.3 -0.9,-0.7 -0.9,-1.3 -1.5,-0.9 -0.7,0.5 -0.8,0.1 -0.3,0.5 0.7,1.7 -0.3,1 -1.5,-0.4 -0.2,1.2 0.3,0.4 -0.3,1.5 -3.9,0.2 -0.6,-0.8 -0.4,-1 -0.3,-1.5 -1,-1.2 -0.5,-0.1 -1.7,-1.4 -6.5,2.9 -0.4,1 -0.6,0.1 -2.5,1.8 h -1.4 l -0.7,-0.6 -0.5,-1.7 0.1,-0.4 -0.6,-0.8 1.3,-1.5 0.1,-2.4 0.7,-0.2 0.6,-1 3.6,-2.6 1.1,-1.4 2.1,-0.8 1.6,-1.6 2.3,-0.9 1.3,0.3 1.2,-0.5 1.3,0.6 4.4,-3.3 0.5,-0.9 -0.7,-1.2 1.4,-0.3 0.5,-1.2 1.2,-1.7 0.4,0.5 1.7,-1.7000005 1.6,-0.6 0.5,-0.8 0.9,-0.5 3.3,-0.8 0.6,1.3 1.5,1 1.1,1.6000005 z"
     id="CAN635"
     name="Northwest Territories" />
</svg>
