<?xml version="1.0" encoding="utf-8"?>
<!DOCTYPE svg PUBLIC "-//W3C//DTD SVG 1.1//EN" "http://www.w3.org/Graphics/SVG/1.1/DTD/svg11.dtd">
<svg version="1.1" id="Layer_1" xmlns="http://www.w3.org/2000/svg" xmlns:xlink="http://www.w3.org/1999/xlink" x="0px" y="0px"
	 width="500px" height="500px" viewBox="0 0 500 500" enable-background="new 0 0 500 500" xml:space="preserve">
<g>
	<g>
		<path fill="#466ba1" d="M443.47,179.822c-2.183-3.596-7.114-0.868-10.368-3.332
			c-3.793,7.359-15.78,6.105-19.999,13.023c-4.782-1.151-9.581-1.022-9.343,4.686c9.701,1.522,20.341-6.554,30.199-2.932
			c0.858,1.054-1.402,6.353,1.049,7.405c5.683-0.542,5.847-6.886,11.855-7.079c2.986,2.435,1.296,7.821,1.554,11.717
			c0.158,2.39,1.483,5.024,1.055,6.792c-0.703,2.915-4.051,2.928-6.911,5.973c-2.351,2.503-2.293,5.695-4.482,7.266
			c-6.463,4.628-16.119,3.334-22.785,1.277c-2.136-2.467,0.971-6.192-2.906-6.837c-3.351-0.165-1.384,5.263-2.041,7.94
			c-1.2,1.123-1.545,0.029-3.07-0.077c0.006,4.992,5.973,4.315,7.805,7.576c-1.294,10.565-11.427,21.853-21.863,13.594
			c-1.558,6.812,8.024,7.25,14.594,6.512c5.957-0.668,12.136-4.522,14.916-6.386c0.899,1.145,2.615,1.509,3.625,2.548
			c-1.174,2.787-2.409,6.447-4.516,8.495c-3.915,3.793-7.659,4.268-14.287,5.793c-1.932,0.441-3.586,2.021-5.592,2.315
			c-2.773,0.412-5.921-1.016-8.604-0.213c-5.034,1.5-6.041,8.027-9.491,10.826c-2.307,0.522-4.635,1.022-5.012,3.563
			c-11.197,4.145-16.377,10.401-21.447,21.593c-2.038,4.512-3.57,11.926-6.515,14.597c-5.844,5.305-18.521-0.655-25.926,4.27
			c-19.799-16.36-37.73-34.499-57.129-51.24c-18.08-0.719-34.573,0.229-52.859-0.713c0.452-8.424-4.502-11.71-8.83-15.583
			c-2.17,0.025-2.79,1.684-4.963,1.713c-1.061-2.126,0.158-2.951,0.139-5.528c-20.015-1.758-42.639-1.035-62.641-2.799
			c-3.57,5.073-14.068,2.864-17.422,8.166c-6.438-1.628-10.762,3.345-16.715,4.496c-21.676,4.222-48.737-2.896-71.936,0.039
			c1.039-4.367,1.919-8.908,3.996-12.194c5.079,1.587,7.018-1.187,9.92-3.438c0.049-2.048,0.1-4.096,0.155-6.141
			c4.737-10.339,16.925-7.16,27.316-10.385c2.725-0.845,6.118-4.686,10.633-7.111c5.563-2.996,14.352-4.341,15.067-12.536
			c5.528,1.125,8.202-3.222,11.227-6.482c2.612,0.319,2.528,3.199,5.457,3.215c5.898-3.889,10.32-9.33,21.104-8.082
			c6.621-3.551,7.966-12.648,16.948-13.713c1.39-4.641,3.413-8.608,2.841-15.303c2.561-2.351,7.231-2.486,12.352-2.147
			c2.716-0.02-0.097,1.503,0.539,3.089c88.967-1.264,175.809-4.76,260.944-10.049C434.833,165.645,444.925,167.244,443.47,179.822z
			"/>
	</g>
</g>
</svg>
