<?xml version="1.0" encoding="utf-8"?>
<!DOCTYPE svg PUBLIC "-//W3C//DTD SVG 1.1//EN" "http://www.w3.org/Graphics/SVG/1.1/DTD/svg11.dtd">
<svg version="1.1" id="Layer_1" xmlns="http://www.w3.org/2000/svg" xmlns:xlink="http://www.w3.org/1999/xlink" x="0px" y="0px"
	 width="500px" height="500px" viewBox="0 0 500 500" enable-background="new 0 0 500 500" xml:space="preserve">
<g>
	<g>
		<path fill="#466ba1" d="M365.699,81.968c4.989,42.085,24.445,111.853,1.701,133.236
			c1.557,6.168,11.989,2.146,11.813,10.304c-2.869,18.872-13.644,30.861-9.12,56.185c-15.521,6.111-17.402,24.119-39.045,24.895
			c-14.776,8.495-15.977,28.83-22.909,44.159c-7.575,2.725-3.826-7.538-8.009-8.712c-20.029,9.11-7.394,46.708-29.646,53.885
			c-14.316-4.783-25.344-13.345-31.512-27.475c-9.275,21.56-36.311,5.314-48.895,16.307c-6.39-11.225-24.843-8.619-37.877-12.228
			c-0.548-27.857-23.457-21.126-40.726-26.85c-1.67-74.767-9.229-151.9-11.561-223.312c50.456-4.219,93.508-8.795,124.514,6.308
			c1.877,5.108-2.27,4.953-1.215,9.343c11.602-2.704,17.263,1.411,24.341,3.893c12.207-13.794,26.239-7.957,41.771-12.114
			c12.982-3.485,20.185-20.702,34.981-30.179C338.406,90.587,356.802,90.189,365.699,81.968z"/>
	</g>
</g>
</svg>
