<?xml version="1.0" encoding="utf-8"?>
<!DOCTYPE svg PUBLIC "-//W3C//DTD SVG 1.1//EN" "http://www.w3.org/Graphics/SVG/1.1/DTD/svg11.dtd">
<svg version="1.1" id="Layer_1" xmlns="http://www.w3.org/2000/svg" xmlns:xlink="http://www.w3.org/1999/xlink" x="0px" y="0px"
	 width="500px" height="500px" viewBox="0 0 500 500" enable-background="new 0 0 500 500" xml:space="preserve">
<g>
	<g>
		<path fill="#466ba1" d="M407.274,171.29c-1.461,32.502,7.198,59.473,7.033,91.581
			c-0.128,25.962-0.756,52.015-0.909,80.033c-5.511-1.914-9.247-4.554-13.965-7.077c-3.659-1.947-9.382-6.556-13.973-6.57
			c-2.615-0.011-4.656,2.165-7.023,2.465c-3.907,0.493-8.001-1.764-11.989-1.56c-2.582,0.128-5.328,1.929-8.02,2.462
			c-5.854,1.146-9.835,0.609-14.521,2.922c-2.348,1.157-5.076,4.682-7.03,4.966c-6.536,0.961-9.334-7.516-13.465-8.57
			c-2.373-0.256-2.308,2.158-5.014,1.976c-3.206-0.223-4.028-4.152-6.976-5.036c-4.93,1.38-6.347,6.317-8.063,10.959
			c-5.66-0.116-0.23-6.019-2.954-8.52c-5.533-0.212-4.273,3.29-8.517,2.962c-5.449-0.42-7.542-8.846-12.472-7.074
			c-3.254,1.176-0.625,4.354-3.535,6.489c-5.324,0.128-7.392-2.969-7.461-8.045c-4.806-2.473-6.866-7.22-12.468-7.563
			c-4.908-0.3-12.435,5.336-14.495-2.574c-6.614,2.881-16.803-1.352-22.993-3.623c-1.234-1.761-0.99-4.988-0.96-8.005
			c-7.417-4.683-13.819,3.009-21.006-0.106c-4.068-1.768-3.663-5.763-6.46-8.542c-2.257-2.228-4.934-1.417-6.982-4.035
			c3.703-29.778,1.95-65.075,3.999-96.522c-40.574-3.48-82.692-5.416-123.521-8.637c0.61-8.608,0.219-18.216,2.133-25.502
			C176.202,167.426,293.383,167.733,407.274,171.29z"/>
	</g>
</g>
</svg>
