<?xml version="1.0" encoding="UTF-8" standalone="no"?>
<!--
************* Copyright (c) 2017 Pareto Softare, LLC DBA Simplemaps.com *******************		
************* Free for Commercial Use, full terms at  http://simplemaps.com/resources/svg-license ************
************* Attribution is appreciated! http://simplemaps.com ***************************
-->
<svg
   fill="#466ba1"
   height="268"
   version="1.2"
   viewbox="0 0 1000 1298"
   width="242"
   id="svg5"
   xmlns:inkscape="http://www.inkscape.org/namespaces/inkscape"
   xmlns:sodipodi="http://sodipodi.sourceforge.net/DTD/sodipodi-0.dtd"
   xmlns="http://www.w3.org/2000/svg"
   xmlns:svg="http://www.w3.org/2000/svg">
  <defs
     id="defs9" />
  <g
     id="g2" />
  <path
     d="m 212.19903,231.37691 -0.9,-0.7 1.5,-0.5 0.2,0.3 z m 3.5,-0.2 -1.1,-0.5 0.5,-0.6 1.2,0.2 z m -43.3,-11.7 1,0.2 -0.6,0.8 z m 1.9,-7.6 -0.3,0.9 -0.9,0.8 -0.6,-0.9 0.5,-0.6 0.7,0.2 z m -19.1,-1.9 -0.9,-0.2 0.8,-0.8 0.8,-0.2 z m -9.2,-7.8 -0.3,0.5 -1.2,0.1 v -0.8 l 0.9,-0.3 z m -2.8,0 -0.1,0.5 0.6,0.4 0.3,0.7 1.1,-0.3 0.6,0.2 0.9,0.8 0.2,-0.7 -1,-0.6 1.2,-1.1 2,-0.6 0.3,1 0.8,-0.3 0.1,0.7 0.8,0.8 0.5,-1.4 1,-0.7 0.6,-0.1 0.6,0.6 -0.2,0.8 0.8,0.2 0.3,0.5 -0.3,1.1 0.4,0.8 0.6,-1.7 0.7,-0.9 0.4,0.7 -0.6,1 1.2,-0.1 v 0.9 l -2.3,3.3 -0.4,0.3 -0.8,-0.2 -0.2,-0.5 1,-1 v -0.9 l -1.9,1.9 -0.6,0.2 -0.4,-0.7 -0.8,-0.1 -1.9,-1.4 -1.3,-0.2 -0.9,-0.7 -1.1,-0.3 -0.6,-0.4 -0.9,0.1 -2.1,-0.4 -1.5,-0.9 -1.6,-0.3 v -0.7 l 0.7,-0.8 0.5,0.4 0.7,-0.2 1,0.4 0.2,-0.4 1.6,-0.4 z m -5.5,-0.3 0.5,0.7 -0.6,0.8 -0.6,0.2 -1.2,-1.1 0.7,-1 0.8,-0.2 z m 17.1,-1.5 -0.4,0.9 -0.7,0.1 -0.6,-0.3 0.1,-0.6 z m -25.4,-3.9 0.7,-0.2 1.6,0.7 0.7,0.7 -0.4,1.3 -0.6,-0.3 -0.6,1.4 -0.7,-0.7 -0.2,-0.6 -0.7,-0.9 -0.5,-1.3 z m -17.4,-24.1 -1.6,0.6 -2.3,-0.2 0.1,-0.6 0.8,-0.7 h 1.4 l 1.4,0.5 z m -38.900004,-8.3 -0.9,0.5 -0.7,-0.4 0.7,-0.6 z m 15.4,-8.6 -0.8,-0.1 0.2,-0.7 -0.4,-0.6 0.8,-0.2 0.9,1.4 z m -1.1,-0.8 -0.6,0.6 -1,-0.1 -0.9,0.2 -0.4,0.8 -0.5,-0.1 -0.3,-1.8 1.5,-0.9 2.2,0.2 z m 93.100004,-38.1 -0.3,-0.5 -1.4,-1.1 -0.8,-1.8 v -0.7 l 0.7,-2.1 -0.2,-1.3 1.1,-1.2 0.9,-0.3 z m 0,0.4 v 54.3 l 0.1,4.2 -0.7,1.9 0.2,1 1.3,2 v 2.4 l 0.1,0.7 0.9,1.2 0.7,1.4 1.5,1.7 0.7,2 0.9,1.1 0.6,1.7 0.8,1.1 1.6,1.1 0.7,1.1 3,0.7 h 0.9 l 0.3,0.4 0.8,-0.1 1.5,0.2 0.8,0.4 h 1.4 l 3,0.9 2.1,1.1 1.2,0.9 0.8,0.9 0.1,0.9 0.6,0.9 1,0.9 2,0.8 0.5,-0.4 -0.1,-0.9 0.8,-0.4 0.7,0.3 0.5,2.1 0.5,0.6 0.1,0.7 0.6,1.3 0.5,0.4 1.9,0.6 1,0.8 h 0.6 l 0.8,-0.8 1,-0.1 0.9,0.2 1,0.7 0.9,1.2 1.2,0.1 0.8,-1 1.3,-0.4 2.6,-1.1 0.9,-0.5 2.6,-0.3 1.3,-0.7 1.8,0.1 1.5,-0.4 1.1,0.8 1.7,0.6 -0.9,4.1 1.4,1.6 -1.6,1.1 -0.4,0.9 -1.4,0.8 -0.7,0.7 -1.7,-0.2 -3,1.4 -1.6,0.9 -4.8,4.5 -1.1,1.4 -0.6,0.1 -1.1,1.4 -0.7,0.4 -1.1,0.2 -0.7,0.5 h -0.8 l -2.4,1.4 -1.1,0.3 h -1.3 l -2,0.9 -1.5,1.4 -1.1,-0.3 0.5,-0.7 -0.1,-1.2 -1.5,0.7 -0.9,-0.3 -0.2,0.7 h 0.9 l 1.3,-0.6 -0.6,2.2 1.3,-0.1 1,-0.5 0.2,0.5 -1,0.6 -0.2,0.8 1.1,0.3 -2,0.9 -0.3,0.3 -1.4,-0.2 0.6,-0.9 -1.3,0.2 -0.7,-0.7 -1.5,0.3 -0.8,-0.7 -0.4,-0.8 -2.3,0.4 -1.1,0.5 -4.3,0.5 -1.6,0.4 -0.9,0.5 -1.2,-0.3 -3,0.9 -0.9,-0.1 -1.5,0.6 -3.2,2.9 -1.1,-0.1 -0.4,0.8 -0.9,0.4 -0.4,1.2 -0.7,1.2 -1,1.4 v 0.6 l 0.9,0.7 1.7,0.5 h 1.6 l 0.8,0.3 1.7,-1 h 1.4 l 0.1,1.3 -0.3,1.3 0.4,0.5 -0.1,0.7 1.3,1 -0.4,0.9 -1.3,0.3 -0.2,0.3 -1.2,-0.5 -1.9,0.1 -0.8,-0.1 -0.6,0.4 -0.9,-0.1 -0.8,0.3 -0.8,-0.4 -1.8,0.6 -3.5,0.6 -0.5,0.2 -2.4,2.2 v 0.5 h 1.2 l 0.4,0.3 2.3,0.2 -0.1,0.4 -2.8,-0.5 -1.8,0.1 -2.1,-0.6 -0.6,-0.4 -2,-0.5 h -3.4 l -1.4,0.3 -2.1,1.2 -1.3,1.3 -1.5,1.2 -0.8,1.6 -0.7,0.6 h -1.6 l -3.4,1.9 -2.1,2.3 -0.8,-0.8 -1,0.1 -1.3,0.7 h -1 l -2.4,-1.3 0.3,-2.6 0.3,-0.9 1.4,-0.6 2,0.5 h 1.7 l 2.1,-0.5 0.3,-0.9 -0.2,-0.9 0.1,-0.6 -2,-0.2 -0.5,-0.7 0.7,-0.2 0.8,-1.2 0.4,-2 -0.1,-0.6 0.3,-1.6 0.9,-1.6 2.5,-1 0.7,-0.5 1,-1.4 1.4,-0.7 1.1,-1 0.6,-0.9 0.3,-2.1 -0.2,-2.6 0.1,-4.1 -0.4,-2.2 1,-1.2 0.7,-1.9 v -0.7 l 1.1,-1.5 1.1,-0.6 0.2,-0.9 1.2,-1.5 0.1,-0.6 -0.4,-0.9 0.3,-0.3 v -1.4 l -1,-1.3 0.2,-1.4 -1,-0.2 -0.3,-0.9 -1.6,-2.2 -1.3,-0.6 0.8,-0.9 0.5,0.4 h 3.4 l -0.2,1.7 0.7,0.9 -0.1,1.1 0.6,0.1 0.2,0.6 0.9,0.2 -0.4,0.8 1.7,-0.1 v 0.7 l -0.3,1.2 1.1,-0.1 0.5,0.9 -0.6,2 2,-1.5 1.4,0.1 0.5,1.5 0.9,0.2 0.7,0.7 1.5,0.5 0.8,0.1 1.6,0.8 1.1,-0.9 0.2,-2.5 -1.3,-1.1 v -1 l 0.9,-0.5 0.9,-0.2 0.1,0.8 0.7,0.1 v 0.6 l 1.6,0.3 v -1 l -0.5,-0.1 -0.1,-1 -0.4,-0.9 -1.2,-0.3 -0.1,-0.9 -0.5,-0.1 -0.8,-0.9 0.6,-1.3 -0.7,-0.9 -0.7,-0.3 1,-1.5 -0.3,-1 -0.6,-0.3 -0.8,0.5 0.2,0.6 -1.5,-0.4 -0.1,-0.8 -0.9,-0.8 0.1,-1.3 -0.5,-0.7 -0.9,0.3 -0.1,-1 -0.7,-0.5 -0.1,-0.5 -0.6,-0.7 v -0.6 l -0.5,-1.2 -0.5,-0.2 -0.3,-1.1 -0.5,0.2 -1.1,-0.6 -0.6,0.2 -1.3,-0.2 -1.1,0.3 v -0.7 l -1.1,0.2 -2.1,-0.5 -0.7,-0.3 -0.9,0.4 -0.3,-0.6 0.8,-0.6 v -0.5 l -1.1,-0.5 -0.5,0.8 -0.4,-0.5 -3.3,-0.1 -1.1,-0.4 -0.8,0.2 -0.6,-0.5 h -1 l -0.9,-0.7 h -0.8 l -0.7,0.3 -1.5,0.2 -0.5,-0.5 -2.5,0.1 -0.6,0.3 -2.9,-0.6 -2.9,-0.8 -0.7,0.1 -0.6,-0.5 -1,0.1 -1.9,-0.5 -0.4,-0.4 -1.5,0.1 -0.7,-0.3 -0.6,-1.4 0.5,-1.6 -1,-0.3 -1.2,0.8 -0.5,-0.4 -1.6,0.7 -1.1,-1 0.3,-1 1.4,-1.5 0.1,-0.5 -0.7,-0.4 -0.8,0.1 0.1,-1.4 0.9,-0.4 0.9,0.2 0.4,-0.9 -0.9,-0.8 -1.5,-0.1 -0.7,0.5 -0.3,-0.6 -1.3,-0.6 0.1,-1 0.6,-1 -0.2,-0.6 1.7,-2.6 -0.7,-1.1 -0.5,-0.1 -0.3,-0.9 -0.9,-0.9 -1.3,-0.5 -0.5,-0.9 -0.8,-0.7 0.3,-1.7 1.1,-1.3 -0.4,-1.1 1,-1.1 -0.1,-0.7 -0.8,-0.2 -4,0.2 -1.6,0.5 -1.3,0.1 -2.3,-0.5 -1.3,-0.5 -1,-1.4 -0.6,-0.4 -0.9,-1.2 -1.2,-3.2 v -0.8 l -0.5,-0.6 -0.4,-2.7 -0.8,-0.7 -0.7,-1.7 -0.7,-0.8 -1.2,0.6 -0.8,-0.1 0.2,-0.7 -1.2,-0.4 -1.300004,0.9 -1.1,-0.4 -1.2,-0.2 -0.7,0.2 -2.1,0.1 -2,-1.2 -0.9,0.2 -0.2,-0.7 -0.8,0.2 -0.4,-0.6 -1.3,-0.2 -1.8,-0.6 -0.8,-0.8 -1.2,-0.2 -0.6,0.5 -1.1,-0.3 0.3,1.3 -0.2,0.4 0.6,0.8 1.1,0.7 0.1,1.6 -1.1,1.7 h -1 l -0.4,0.5 -0.9,0.6 -0.4,-0.3 -0.7,1.5 -0.6,0.8 -0.4,-1 0.5,-1.1 0.5,-0.3 1.9,-2.1 0.2,-1 -0.5,-1.5 -0.9,-0.3 -1.2,1.3 -0.1,2.5 -0.7,0.2 -0.2,1.8 -0.6,0.5 -0.5,1.8 -0.8,0.6 -0.7,-0.6 0.3,-1.7 0.9,-1.4 -0.6,-0.1 -3.8,1.5 -0.7,0.7 -0.3,1.1 0.4,0.6 -0.8,1.5 0.1,0.7 -0.8,1.5 -1.1,0.4 -1.8,1.8 -2.4,-0.3 -1.1,0.5 -0.9,-0.5 -1,-1.5 -1.2,-0.3 -4,0.6 -0.6,-0.4 -1.3,0.4 -1,-0.3 -0.6,-2 -0.9,-0.1 -1.7,0.9 -2.3,1.8 -1,0.1 -0.7,0.4 -0.7,-0.3 -1,0.1 v -0.6 l -1.3,-0.2 v -0.7 l -0.8,-0.9 -1,-0.1 -1.2,-0.6 -0.6,-0.5 -0.4,-1.3 -1.2,-0.2 -1.2,0.2 -0.5,0.4 0.1,1.1 -1,0.3 -0.9,-1.7 -0.1,-1.1 -0.6,-0.8 h -2 l -0.1,-0.7 0.9,-0.3 -0.2,-0.6 -2.7,-0.7 -1,-0.7 -3.2,-0.2 -2.2,0.6 -0.4,0.9 -3,0.4 -0.6,-0.4 -0.3,-1.3 -0.4,-0.3 -4.1,-0.3 -0.9,-1 -1.9,0.2 -1.3,-0.4 -1,-0.9 -0.3,-0.5 v -1.9 l -1.0999996,-4.3 -0.2,-2.2 -0.3,-0.4 -1.5,-0.7 h -1.3 l -0.7,-0.2 0.1,-7 V 82.576912 l 3,-3.1 12.9999996,-12.9 1.3,-1.4 3.9,-4.9 5.7,-7 8.8,-10.5 6.9,-8.2 7.9,-9 7.9,-9.1 8.5,-9.4999996 3.2,-3.5 0.6,-0.2 0.8,0.5 -0.2,0.5 1.3,1.2 0.9,1.3 1.7,0.9 0.9,1.2 1.2,1.1 3.7,1.8999996 0.3,1 1.2,1.4 2.6,4.7 1.5,1.6 1.2,0.1 0.7,1 2.9,0.6 0.9,-0.1 0.3,0.5 h 0.9 l 0.600004,0.5 1.2,0.3 1.5,1.1 2.4,1.1 0.9,0.7 4.3,1.3 2.6,1.5 1.1,1.1 1.6,2.1 2,1 1.2,0.3 0.3,1.2 -0.8,0.3 -0.7,1 -0.7,1.6 -0.7,0.8 v 0.9 l 2.1,-3.4 0.5,-0.5 1.1,-0.6 h 1.3 l 3.7,1 0.7,-0.1 1.5,-0.6 2.2,-0.3 1.7,0.4 1.7,-1 1.8,0.9 0.9,-0.1 1.2,0.4 0.9,0.5 2.9,0.3 0.7,0.5 1.6,-0.8 1.3,0.4 0.3,0.9 0.9,0.5 h 0.8 l 0.8,-0.4 1.2,0.4 0.5,-0.4 0.8,0.6 0.7,1.1 0.9,-0.7 0.7,0.4 -0.3,1.1 0.2,1.2 -0.1,0.6 0.2,1.3 0.5,0.2 0.1,0.8 -0.7,2.3 -0.6,2.7 -0.7,1.9 -0.5,1.9 -0.3,0.3 0.2,1 v 1.7 l 0.6,1.5 1.5,1.7 1.3,4.8 -0.3,1.5 -0.5,1.2 -0.2,1.3 0.3,2.1 0.5,1.3 0.3,2.2 v 0.6 l -0.8,0.8 -0.6,0.2 -0.5,2.1 -0.2,2.7 0.8,0.8 1.4,0.8 1.4,1.6 0.8,2.2 1.1,0.8 1.2,1.9 1.7,1.4 -0.2,0.9 0.3,1.1 -0.3,0.6 -1.6,0.8 -0.3,0.6 2.6,0.1 0.6,0.3 0.8,1.7 0.4,0.4 1,0.3 1.3,0.9 0.6,-0.2 1.4,0.9 0.6,1.7 1.6,1.099998 2.1,2.5 v 0.5 l 0.9,2.7 0.8,1.1 0.2,2.2 -1.8,0.7 -0.9,0.8 -0.7,1.3 -1.3,0.8 -0.8,1.1 -0.6,0.4 0.6,0.8 0.7,-1.7 1.8,-0.7 1,-1 0.9,-1.3 1.6,-0.9 2.1,0.7 1,0.1 0.5,0.5 0.9,0.2 0.7,0.9 2,1.5 0.4,1 1.6,1.5 z"
     id="CAN682"
     name="Ontario" />
</svg>
