<?xml version="1.0" encoding="utf-8"?>
<!DOCTYPE svg PUBLIC "-//W3C//DTD SVG 1.1//EN" "http://www.w3.org/Graphics/SVG/1.1/DTD/svg11.dtd">
<svg version="1.1" id="Layer_1" xmlns="http://www.w3.org/2000/svg" xmlns:xlink="http://www.w3.org/1999/xlink" x="0px" y="0px"
	 width="500px" height="500px" viewBox="0 0 500 500" enable-background="new 0 0 500 500" xml:space="preserve">
<g>
	<g>
		<path fill="#466ba1" d="M118.268,99.869c1.988,0.166,3.972,0.331,5.96,0.496
			c2.611,2.396,10.642,4.91,13.102,1.079c1.59,0.131,3.18,0.263,4.764,0.394c19.573,4.098,32.446,13.879,28.018,38.304
			c7.069,7.871,17.253,9.524,28.202,7.127c4.998-1.089,8.352-5.654,12.499-6.164c10.516-1.284,23.102,7.958,34.255,6.437
			c6.227-0.855,8.746-4.356,14.988-7.161c4.595-3.277,5.732,8.936,10.326,5.654c14.969-3.753,31.96-11.891,48.737-9.164
			c5.601,0.073,5.718-6.33,11.313-6.262c30.793,2.781,61.401,5.353,88.452,3.719c2.328,11.323,9.84,18.25,17.093,25.402
			c-0.297,3.573-0.593,7.146-0.885,10.725c-7.584,8.483-7.195,26.379-15.966,33.458c0.321,2.076,1.556-0.117,3.573,0.301
			c-2.284,10.584-21.483,27.395-20.024,39.126c0.914,7.399,8.167,6.835,13.306,13.092c-14.006,37.653-9.212,94.373-13.014,142.858
			c-35.149,1.662-76.634-4.147-113.567-4.59c-30.978-2.562-61.951-5.119-92.924-7.681c-39.257-7.361-87.839-6.826-123.304-17.405
			c-4.73-10.486-7.779-25.144-0.521-37.22c-1.429-4.332-2.509-8.955-6.262-11.313c0.194-2.382,0.394-4.769,0.588-7.146
			c9.48-7.56,7.103-29.111,18.445-34.459c8.838-43.521,21.021-83.721,26.816-135.726c0.676-4.152,4.191,3.359,4.867-0.797
			C110.519,128.29,117.903,115.008,118.268,99.869z"/>
	</g>
</g>
</svg>
