<?xml version="1.0" encoding="utf-8"?>
<!DOCTYPE svg PUBLIC "-//W3C//DTD SVG 1.1//EN" "http://www.w3.org/Graphics/SVG/1.1/DTD/svg11.dtd">
<svg version="1.1" id="Layer_1" xmlns="http://www.w3.org/2000/svg" xmlns:xlink="http://www.w3.org/1999/xlink" x="0px" y="0px"
	 width="500px" height="500px" viewBox="0 0 500 500" enable-background="new 0 0 500 500" xml:space="preserve">
<g>
	<g>
		<path fill="#466ba1" d="M118.695,157.396c1.652,4.479,1.565,11.19,2.542,16.531
			c75.015-7.982,150.406-19.284,225.789-28.367c2.244,1.561,4.231,3.469,5.072,6.848c11.322,2.202,11.852,18.286,18.335,26.714
			c4.637,2.778,13.79-0.269,15.731,5.986c-0.381,2.534-5.382,4.927-6.449,8.296c-1.321,5.274,0.479,7.878-1.776,11.923
			c-1.743,3.122-7.609,4.293-8.47,7.149c-1.301,4.376,3.787,6.049,4.156,10.714c0.314,3.92-2.066,4.223-4.658,7.605
			c0.737,4.173-0.219,7.038-0.57,10.37c1.37,3.233,5.717,2.633,8.068,4.6c0.956,2.165,1.449,4.914,2.31,7.199
			c8.715,2.873,13.393,10.95,20.691,15.657c-7.572,6.872-19.495,10.366-20.608,22.248c-4.682,2.326-8.917,4.992-13.074,7.725
			c-5.17-2-8.921-2.649-13.073,0.24c-3.126,2.169-2.612,5.933-4.661,7.604c-4.438,3.627-21.636,3.656-30.756,4.803
			c-71.74,9.013-149.114,16.146-219.161,25.195c-5.295-51.649-10.536-103.266-15.193-154.422
			c5.336-6.529,16.125-8.822,17.847-18.158c2.55,0.108,3.709,2.008,5.937,2.534C110.659,163.354,114.911,160.555,118.695,157.396z
			"/>
	</g>
</g>
</svg>
