<?xml version="1.0" encoding="UTF-8" standalone="no"?>
<!--
************* Copyright (c) 2017 Pareto Softare, LLC DBA Simplemaps.com *******************		
************* Free for Commercial Use, full terms at  http://simplemaps.com/resources/svg-license ************
************* Attribution is appreciated! http://simplemaps.com ***************************
-->
<svg
   fill="#466ba1"
   height="33"
   version="1.2"
   viewbox="0 0 1000 1298"
   width="40"
   id="svg5"
   xmlns:inkscape="http://www.inkscape.org/namespaces/inkscape"
   xmlns:sodipodi="http://sodipodi.sourceforge.net/DTD/sodipodi-0.dtd"
   xmlns="http://www.w3.org/2000/svg"
   xmlns:svg="http://www.w3.org/2000/svg">
  <defs
     id="defs9" />
  <g
     id="g2" />
  <path
     d="m 10.784284,10.469541 -0.7,0.8 1.8,1.4 1.1,1.3 -0.5,1.5 0.6,0.1 0.2,1 0.9,0.2 0.2,-1.9 0.8,-0.1 1.7,0.6 -0.1,0.5 0.6,0.5 0.6,-0.7 0.7,0.2 0.3,0.8 0.8,0.7 0.5,-0.4 1.2,0.2 1.5,-0.1 3.1,-0.6 1.8,-0.2 h 2.9 l 1.8,-0.2 1.4,0.5 -0.6,0.7 -1.5,0.9 -1.6,0.2 -0.9,0.7 0.2,0.5 -0.8,0.9 h -0.9 l -0.7,-0.3 -0.1,1 0.7,0.1 -0.2,0.7 0.9,-0.2 0.1,0.9 -0.8,0.4 0.5,1.1 -0.7,0.3 -2.6,0.1 -0.8,-0.2 -1,-1 0.2,-1 -0.9,-1.3 -1.2,-0.5 -0.4,-0.4 -1.1,0.5 1,0.4 -1,0.6 h -0.5 l -1.9,-0.8 -2,-0.5 -0.8,-0.5 -0.2,-0.6 -0.8,-0.5 -0.2,-0.9 -1.5,-0.8 -0.6,0.4 -1.6000003,-0.2 0.2,-0.5 0.1,-1.6 0.5000003,-0.5 -1.9000003,-1 -1.8,0.1 -0.3,-0.9 0.5,-1.3 1.1,-1.1 0.5,-1.3 2.0000003,-1.9 0.8,-0.3 -0.2,1.1 0.3,1.3 z"
     id="CAN687"
     name="Prince Edward Island" />
</svg>
