<?xml version="1.0" encoding="UTF-8" standalone="no"?>
<!--
************* Copyright (c) 2017 Pareto Softare, LLC DBA Simplemaps.com *******************		
************* Free for Commercial Use, full terms at  http://simplemaps.com/resources/svg-license ************
************* Attribution is appreciated! http://simplemaps.com ***************************
-->
<svg
   fill="#466ba1"
   height="352"
   version="1.2"
   viewbox="0 0 1000 1298"
   width="267"
   id="svg5"
   xmlns:inkscape="http://www.inkscape.org/namespaces/inkscape"
   xmlns:sodipodi="http://sodipodi.sourceforge.net/DTD/sodipodi-0.dtd"
   xmlns="http://www.w3.org/2000/svg"
   xmlns:svg="http://www.w3.org/2000/svg">
  <defs
     id="defs9" />
  <g
     id="g2" />
  <path
     d="m 74.09694,344.26273 -0.8,0.7 -1.5,0.2 0.2,-0.9 0.9,0.1 0.6,-0.4 z m 4.2,-6.2 -0.8,0.7 -1.1,1.5 -1.3,0.2 -0.2,-0.4 1.2,-1.3 1,-0.7 z m 0.2,2.7 v 0.7 l -0.8,0.7 -2,-0.4 -1.5,0.6 -0.4,-0.3 1.3,-1.2 h 0.7 l 1.3,-0.9 0.5,-1 1.3,-1.1 h 0.5 z m 28.4,-21.8 -1,0.1 0.4,-0.8 1,-0.7 1.2,-1.3 0.8,0.5 -0.5,0.8 z m 108.9,-12.7 -0.7,0.4 -0.9,-0.3 -0.6,0.3 -2.4,2.3 0.3,0.9 -0.8,0.2 -0.3,0.7 -1,0.3 0.1,-1.1 1.2,-0.5 3.1,-3.2 0.6,-0.3 z m -61.6,-6.2 -1.1,0.5 -0.3,1.2 -1.2,-0.5 -1.5,0.6 -1.3,-0.1 -0.4,0.7 -1.6,-1 -1.2,-0.4 -0.1,-1 h -5.7 v 1.1 h -3 v 5.4 l -0.1,0.8 -1.8,2.1 -2.4,1.2 -2.5,0.8 -0.9,0.4 0.1,-2.1 -0.2,-0.2 -1.7,-0.5 -0.5,0.3 -8.4,12.2 -0.1,0.7 -0.5,3.6 -0.1,0.4 -1.3,1 -1,2.4 0.4,1.2 -0.8,1.1 -0.1,1.2 0.7,0.7 v 0.5 l -0.6,0.9 -1.2,1.2 0.1,1 -2,1.3 -1.1,1.3 -0.5,1 0.1,0.6 0.8,0.7 -0.5,0.6 -0.9,-0.6 -0.7,0.6 v 1.3 l -0.8,1 -0.5,-1.4 -0.8,-0.1 -0.8,0.6 -0.6,0.8 h -0.7 l -1,-0.6 h -0.4 l -0.7,0.8 -0.7,2.1 -0.6,0.9 v 0.6 l -36,0.3 h -0.2 l 0.9,-0.3 1.8,-0.8 0.8,-0.8 v -0.4 l 1.1,-0.7 1,-0.2 0.8,-0.6 h 1.1 l 1,-0.5 0.8,-1.1 1.3,-0.7 1,-0.8 1.5,0.2 0.6,-0.8 -0.2,-1.2 0.7,-1.1 0.1,-1.6 0.4,-0.7 1.7,-1.7 0.6,-1 v -0.9 l 0.8,-1.4 1.1,-0.2 1.2,-1.2 h 1 l 1.3,-0.5 0.7,-0.7 v -0.5 l 1.3,-0.9 0.6,-0.9 1.1,-0.6 1.4,-0.4 0.4,-0.4 0.6,-1.4 1,-0.5 1.1,-0.2 0.5,-0.7 1.3,-0.9 1.5,0.6 4.6,-1.9 1.1,-0.6 0.5,-0.9 2.1,-0.4 0.8,-0.7 0.5,0.2 1.1,-0.5 0.4,-0.5 2.2,-0.9 1.6,-1.8 1.2,-1.5 1,-1.8 1.4,-0.9 0.5,-1.7 0.3,-0.5 1.1,-0.7 1.2,-1.3 1.2,-1.8 1.6,-2 v -0.7 l 1.2,-1.7 1.4,-0.7 0.8,-1 1.1,-1 1.1,-1.4 1,-1 1.4,-0.9 0.4,-0.5 0.9,-0.1 1,-0.9 1.3,-0.7 0.7,-1 1.2,-0.4 1.7,-1.5 0.8,-0.2 0.6,-0.5 1.3,-0.3 2.8,-1.6 1.3,-0.7 0.6,-0.5 1.4,-0.2 1.5,-0.8 2,-0.7 2.7,-1.4 2.9,-1.4 1,-0.1 3.5,-1.3 1.9,-0.3 h 1.9 l 2.3,-0.3 1.3,-0.4 1.9,0.1 1.4,0.2 3.5,0.5 1.6,0.5 1.5,1 0.8,0.1 2.5,2 2,2 v 1.1 h -1 l -2.5,-0.9 0.8,0.9 0.7,0.1 0.1,0.7 1.2,1 0.5,0.8 0.8,0.8 -1,0.2 -0.3,1 0.9,0.7 -0.2,0.4 -1.1,0.7 -0.1,0.6 -2.5,0.5 -1.3,0.7 -0.5,0.4 -0.8,2.1 -1.5,0.4 -0.5,0.5 -2.6,1.8 -1.1,0.5 -1.7,0.2 -0.8,-0.9 -1.9,-0.7 -1.3,-0.3 -1.9,-1.4 -1,1.4 -0.6,0.3 -1,-0.3 -1,-0.1 -0.6,0.6 -0.6,-0.5 -1.5,0.1 -0.3,0.8 -1.1,0.1 -0.3,0.3 z m 30.6,-33.7 2.1,1 2.8,0.5 1,0.3 2.6,0.4 1.9,0.6 1,0.2 0.9,0.5 0.9,0.2 0.8,0.8 2.3,0.7 0.8,0.6 0.9,0.3 1.7,2 1.4,0.4 0.6,0.9 0.8,0.3 1.3,0.1 0.9,0.7 0.7,-0.1 0.7,0.8 0.5,1.1 1.3,1.7 -1.7,1.4 -0.8,-0.3 -1.9,0.2 -0.9,-0.2 -1.4,0.3 -1,-0.6 -1.9,-0.6 -1.9,-0.2 -2.3,-0.8 -2.4,-0.7 -1.3,-0.6 -0.8,-0.8 -1.4,-0.6 -2.1,-0.7 -0.6,-2.1 -1.4,-1.6 -1.8,-1.2 -2.8,-1.2 -1.4,-0.7 -0.8,-0.8 -0.6,0.3 -1,-1 0.7,-0.7 2,-0.4 0.7,-0.4 z m 64.6,-23.7 v 0.7 l -0.7,0.4 -1,-0.2 0.6,-0.7 z m -103,-137.9 -0.6,0.4 -0.6,-0.2 -0.3,-0.8 0.3,-1.6 0.9,-0.2 0.4,1.4 z m -17.4,-14.400004 0.1,-1.1 0.8,-0.1 0.2,0.6 z m -1.4,-4.1 0.9,0.2 0.6,1 -0.2,0.7 -0.7,0.5 -1,1.3 0.1,0.4 h -1.6 l 0.5,-0.9 0.4,-1.5 -0.8,-1.5 0.7,-0.3 z m -8.8,-40.8 -0.4,-1.1 0.6,-0.8 0.5,0.8 z m -17.4,-8.1 -0.8,-0.1 0.3,-0.7 0.8,-0.1 z m -5.6,-13.2 -0.5,0.1 -0.4,-1.1 1.1,0.6 z m 84.5,36.2 -2,0.2 -1.2,0.3 -0.4,0.4 0.1,1.1 1,1 h 1.3 l 0.4,1.2 -1.4,0.3 0.2,1 -1.3,0.5 -0.9,-0.2 0.7,1.9 0.5,-0.1 1.5,0.7 -0.1,1.2 -1.1,0.1 0.2,0.9 -0.7,0.5 v 1.1 l 0.4,1.6 -1.2,0.8 -0.2,0.5 0.1,1.7 1.3,1 0.5,1.4 0.7,0.1 1,-0.6 1.1,-0.9 0.8,-0.2 0.7,0.5 v 0.5 l -1.6,1 0.1,0.9 -0.6,0.6 0.4,0.6 -0.4,1.3 0.3,0.5 -0.2,1.1 0.3,1 0.1,1.4 0.6,0.5 0.8,0.2 0.7,0.8 -0.1,0.9 -1.1,0.3 -2.7,-1.1 -0.7,-0.8 -1.2,0.7 -0.5,0.9 0.3,0.8 -0.5,0.5 0.7,0.5 1.3,-0.7 1.6,1.2 1,-0.1 0.8,0.2 h 1.1 l 0.6,0.8 -0.1,1.4 1.5,0.7 1.7,-1.6 1.6,-0.1 0.5,-0.8 0.8,-0.3 1.5,0.8 0.9,1.2 0.3,0.7 -0.6,0.7 -1.1,0.3 -1.9,0.3 -0.9,-0.2 -0.8,0.5 h -0.9 l -0.6,1 -0.1,1 0.2,0.8 0.5,0.6 0.6,-0.1 1,-0.8 0.8,1.800004 -0.5,1 -1.3,0.1 -0.8,1.3 -0.9,0.3 -0.4,0.4 -0.3,1.6 -0.6,1 -1.2,0.3 -0.4,0.4 -0.5,1.9 0.3,0.7 h 0.7 l 1.4,0.4 v 1.5 l 0.6,1.2 0.8,2.4 0.5,0.8 0.7,-0.9 0.7,0.3 0.4,1.4 1,0.8 0.4,-0.8 0.6,1.3 0.4,-0.1 0.3,-1.2 0.6,-0.1 v 1.2 l -0.5,0.9 -1,0.7 -0.4,0.8 v 2.2 l 0.7,1.6 -1.5,1.3 -0.4,2 0.4,0.2 0.2,-1.2 0.9,1 -0.6,1.2 v 1.4 l -0.9,0.7 -0.5,2.7 0.5,1 -0.8,0.3 -0.8,0.8 0.3,1 -1.1,0.5 -0.4,1.5 1,1.3 0.2,0.8 0.8,0.9 v 1.3 l 0.8,0.9 -1.6,0.4 -1.5,-0.4 -0.2,0.5 0.6,0.8 -0.3,1.4 0.5,0.9 1.7,0.2 0.8,0.7 -0.2,0.5 -1.1,0.4 -0.4,1.7 0.5,0.2 1.1,-0.8 0.1,0.7 0.8,0.8 1.1,-0.1 1.3,0.6 1.5,-0.2 -0.4,0.7 -0.9,0.1 -1.3,1 -1.2,0.2 -0.5,0.3 0.1,0.9 0.5,0.5 0.3,1.1 0.7,0.3 v 0.5 l -0.6,1.9 0.8,0.1 0.1,0.6 -0.2,2 -0.9,0.8 0.3,0.8 1.1,0.3 1.5,0.1 1.4,0.3 0.6,-0.1 -0.1,1 -1.3,0.4 -1.1,-0.1 -0.5,0.9 -0.7,0.6 0.2,0.5 1,0.4 1.1,-0.5 v 0.9 l -1,0.4 -0.6,2.2 0.3,1.9 -0.4,1.5 h -0.6 l -1.3,-0.8 h -0.4 l -0.4,1.2 0.3,1 -0.9,0.9 0.3,0.7 0.9,0.7 0.7,1.3 -1.4,0.3 -0.5,0.6 -1.7,-0.2 -0.7,-0.4 -0.8,-1.6 -1.5,-1 -1.6,-0.6 -1.3,1.3 -2.2,-0.2 0.1,-1.5 -1,-0.7 -0.3,-0.8 -0.8,-0.8 -1.8,-0.5 -0.7,0.5 -0.6,1.6 -0.9,0.5 -2.1,0.2 0.5,1.3 -1.2,0.4 -0.9,-0.4 -0.8,0.5 -1.4,-1.8 -0.3,-1.6 -1.1,-0.6 -1.3,0.1 -0.8,-0.9 -1.4,-0.6 -1.9,-2.8 -0.6,-0.4 -1.3,-1.9 h -1 l -0.2,-1 -0.8,-0.7 -0.7,0.1 0.2,0.9 1.3,1.4 -0.4,0.8 -0.3,1.5 1.1,2.4 -0.7,0.9 1,1.7 0.3,0.9 -0.4,0.4 h -0.7 l -0.3,1 -2.3,-1.3 -0.6,-0.7 -0.3,-1 -1,-0.7 -1,-1.1 -1.2,-0.6 0.3,-1.2 -1.2,-0.4 -0.6,0.5 0.1,1.3 1.8,3.2 2,2 v 1 l -0.7,1.3 -0.5,0.1 -0.8,0.8 0.4,1 -0.4,0.6 -0.8,-0.5 -1,-1.1 -0.8,-0.5 -0.1,2.1 -1.8,0.5 -1,0.7 0.1,1.6 0.6,0.7 0.6,1.5 v 0.8 l -1.2,0.6 -0.5,1.1 -0.2,1.2 0.7,1 1.4,1.2 0.3,1.2 0.8,0.4 -0.6,0.8 v 0.6 l 1.8,1.4 0.2,1.1 0.8,1.3 2.4,0.8 0.9,0.2 1.6,1.9 -1,0.6 -0.3,0.5 0.5,1.1 -0.1,2.1 -0.2,0.3 0.1,1.2 -1.6,-0.3 -0.5,-0.6 -0.8,-0.3 -0.7,0.2 -1,1 0.2,1.7 0.4,0.7 -0.1,1.2 0.5,0.9 1.5,0.9 0.4,-0.7 0.8,-0.4 0.2,1.9 1.1,0.7 0.9,1.4 1.2,-0.8 -0.1,-1.1 1.3,-0.6 0.1,-1.7 0.2,-0.9 0.9,-0.1 1,-1 0.4,-0.8 0.7,0.7 0.8,1.8 v 1.1 l -1.1,-0.5 -0.1,0.5 0.7,2 0.5,1.9 -0.9,-0.6 -0.4,0.4 v 1.1 l 0.4,0.9 -0.1,1.3 0.2,0.5 0.1,1.5 -0.9,-0.3 -0.5,0.8 0.2,1.3 0.6,0.8 0.4,1.4 0.8,0.2 0.4,-0.4 -0.4,-2.4 0.5,-0.2 0.7,1.4 0.8,0.4 0.5,0.5 -0.1,1.5 1.1,0.6 0.6,-0.7 0.4,0.3 0.9,-0.5 1,0.4 0.9,-0.4 -0.3,1.5 1.4,-0.1 0.6,-1.2 0.5,1.3 1.1,1.4 -0.4,0.9 0.7,1.5 0.7,-0.9 1,1.7 1.2,0.4 0.5,-0.2 0.9,0.7 0.4,-0.7 0.7,-0.2 1,0.2 0.9,0.7 1.2,2 0.6,0.4 1.4,-1.1 0.7,-0.3 0.7,-1.3 -0.1,-0.8 -0.5,-0.6 -0.3,-2.7 0.3,-0.9 0.7,0.9 0.4,-0.3 -0.4,-1.1 0.2,-1.4 1.1,-0.3 -0.6,-1.6 v -1.5 l 0.5,-0.4 0.4,-1.2 -0.1,-1.9 -0.6,-1.5 0.3,-0.5 v -1.4 l 0.7,-0.9 3.5,-0.9 0.8,-0.2 1.3,-1.5 v 1.4 l 2.2,1.7 0.4,0.8 -1.4,0.1 -3.5,0.5 -1.6,0.7 -1,1.2 -0.4,0.8 0.5,1.4 0.7,0.8 0.9,0.4 h 1.3 l -0.1,0.8 0.8,1.1 0.5,2.5 0.3,0.8 -0.3,0.3 -1.3,-0.7 -0.3,0.6 0.8,0.8 h 75 v 10.5 l -1,0.1 -0.7,-0.9 v -0.8 l -2.1,0.4 -0.7,0.6 -1.2,0.4 h -0.8 l -0.2,-0.7 -0.6,0.1 -1.5,1.2 -1.1,1.3 -2.9,0.9 -0.3,-0.3 -0.8,0.3 -1.4,-0.7 -1.3,1.1 -0.6,-0.4 -0.4,1.2 0.6,0.5 -1.3,1.4 -0.7,0.2 -0.8,0.7 -1.1,0.3 -0.3,1.4 0.2,0.4 -0.1,1.4 0.1,0.6 -0.4,0.7 -1.1,0.1 -0.4,-0.3 -0.9,1.2 -0.7,0.2 -1.1,1 h -0.5 l -0.7,1.3 0.7,0.3 -0.2,0.6 -0.9,-0.1 -0.8,1.1 -2.5,0.7 -1,1.2 0.4,1.1 -1.4,0.8 -1,0.3 -0.5,0.5 -0.6,-0.3 0.1,-0.8 -1.6,0.7 -1,0.1 -0.6,-0.3 -1.2,0.6 h -2 l -0.8,0.4 -0.5,-1 -1.1,1 -1.1,-0.4 -1.5,0.7 -0.7,-0.4 -1,0.2 -2.2,0.7 -0.9,0.5 -1.5,0.5 -0.6,-0.6 -0.8,-1.5 -1.3,-0.4 -0.7,0.3 -2.1,-0.3 -1.3,-0.8 -1.3,0.3 -0.5,-0.2 -1.3,0.1 -2.9,-0.3 -1.2,0.1 -0.6,-0.5 -0.4,0.5 h -1.4 l 0.1,0.5 -1,0.3 -0.9,-0.1 -0.7,0.5 -0.5,-0.1 -0.8,-0.8 -1.1,0.3 -0.7,-0.3 -0.6,-0.6 -1,-0.2 -2,0.2 -1.2,0.2 -0.6,0.4 h -1.1 l -1.2,-0.3 -1.3,-0.6 -0.7,0.4 -1.1,0.3 -3,0.1 -2.9,-0.4 -0.5,0.2 -0.7,-0.6 -0.5,0.2 -1.8,0.1 -0.8,0.4 -2.3,0.4 h -1.2 l -1,-0.6 -0.8,0.3 -0.5,0.9 -0.7,-0.1 -0.6,0.6 -1.1,-0.4 -1.1,0.3 -0.6,-0.3 -0.1,-0.8 -0.6,-0.1 -0.8,1 -0.3,1 -1.1,0.4 -0.9,1.4 -0.8,0.5 -1.1,0.3 -0.4,0.4 -0.5,1.5 -0.6,1.3 -1,-0.1 -0.6,1.6 0.2,1.1 -0.7,1.2 -0.2,2.6 -1.5,2.1 -0.2,0.2 -1.7,-0.1 -2.1,0.3 -0.9,0.6 -1.5,-0.2 -2,0.4 -0.7,1.8 0.1,0.7 -1.7,0.5 -0.5,-0.8 -1.6,1.3 -0.9,0.2 -0.5,0.7 -0.1,1.7 -1.5,0.1 -1.2,1.1 -0.7,0.4 -0.5,0.7 -0.9,0.5 -0.5,2.1 -0.3,0.5 -1,0.2 -0.4,0.8 -0.3,1.3 -1.3,1.8 -0.4,1.1 -1.6,1.2 -0.8,1.1 -0.6,0.3 -1,-0.2 -0.9,-1.1 -1.2,-1 -1.8,0.1 -0.8,-0.7 -1.7,-1 -0.8,0.2 -2.2,-0.6 -0.7,0.1 -0.6,-0.6 -1,1 0.1,0.7 0.9,-0.5 h 3 l 2.2,0.8 1.4,1.1 0.8,0.1 0.7,-0.3 1.2,0.6 0.6,1.1 1.5,0.5 -0.4,0.8 -0.3,1.5 -0.3,0.3 -0.2,1.2 -0.6,0.8 -0.4,1.3 -1,1.1 -0.9,0.7 -1.1,1.2 -0.1,0.9 -0.4,0.8 -2.9,1.1 -1.1,3 -1.3,2.2 -0.9,0.7 -1.9,0.9 -2.6,2.7 -0.5,1 -1.4,0.9 -1.2,0.1 -2.6,1 -0.9,0.1 -1.2,-0.4 -1,1.1 -1,0.5 -1.9,0.7 -0.4,1.4 -2.3,1.1 -1.6,1.6 -2.7,0.6 -1.7,0.9 -0.3,1.7 -1.5,0.5 -0.6,1.5 -0.9,1.8 -0.8,0.5 -0.7,1.3 -0.8,0.6 -2.1,0.3 -0.9,0.5 -1.2,1.3 -0.5,1 -1.5,0.8 -1.2,-0.2 -0.5,-0.5 -1,0.4 2.3,0.7 0.7,0.6 0.6,1.1 -0.6,0.4 -1.6,0.1 -0.5,0.8 -1.7,0.9 -1.4,-1.6 0.9,-4.1 -1.7,-0.6 -1.1,-0.8 -1.5,0.4 -1.8,-0.1 -1.3,0.7 -2.6,0.3 -0.9,0.5 -2.6,1.1 -1.3,0.4 -0.8,1 -1.2,-0.1 -0.9,-1.2 -1,-0.7 -0.9,-0.2 -1,0.1 -0.8,0.8 h -0.6 l -1,-0.8 -1.9,-0.6 -0.5,-0.4 -0.6,-1.3 -0.1,-0.7 -0.5,-0.6 -0.5,-2.1 -0.7,-0.3 -0.8,0.4 0.1,0.9 -0.5,0.4 -2,-0.8 -1,-0.9 -0.6,-0.9 -0.1,-0.9 -0.8,-0.9 -1.2,-0.9 -2.1,-1.1 -3,-0.9 h -1.4 l -0.8,-0.4 -1.5,-0.2 -0.8,0.1 -0.3,-0.4 h -0.9 l -3,-0.7 -0.7,-1.1 -1.6,-1.1 -0.8,-1.1 -0.6,-1.7 -0.9,-1.1 -0.7,-2 -1.5,-1.7 -0.7,-1.4 -0.9,-1.2 -0.1,-0.7 v -2.4 l -1.3,-2 -0.2,-1 0.7,-1.9 -0.1,-4.2 v -54.3 -0.4 -9 l -0.4,-1.6 1,-0.5 1.4,-1.5 1.1,0.6 -0.4,1.4 0.2,0.5 h 0.9 l 0.7,-0.3 1.3,1.6 1,4 0.2,-1.3 0.7,-1 -0.5,-0.8 1,-1.3 -0.3,-1.7 0.3,-0.7 -1.5,-0.9 -0.1,-0.8 -0.6,-0.4 -0.3,-1.3 h 1.1 l 0.9,-0.9 -0.6,-1.9 1.7,-0.5 0.4,-1.5 1.3,-0.9 0.7,-1.7 -0.3,-1.7 0.7,-1.2 -0.4,-0.7 0.1,-1.6 -0.5,-1 h -0.7 l -0.9,-1.1 -0.2,-1.1 -0.7,-0.1 v -1.6 l 0.3,-0.7 -0.2,-1.7 -1,-0.4 -0.3,-0.5 0.8,-0.9 -0.3,-0.8 -0.9,0.1 -0.5,-1.2 0.8,-2.5 0.1,-1.3 -0.6,-0.2 -0.2,-1.2 0.2,-0.7 -0.5,-1.4 -0.8,0.1 -0.6,-1.1 0.5,-0.4 0.8,-0.1 0.8,-0.4 -0.4,-1 -1,-0.2 0.4,-1.4 -0.5,-1.2 0.6,-1.7 -0.6,-0.3 -0.2,-1.1 0.4,-0.6 -0.3,-1 1,-0.4 -1.4,-0.8 -0.3,-0.9 1,-1.4 -0.6,-0.1 -1.3,0.5 -0.3,-0.4 -1.3,-0.3 0.2,-1 -0.8,-0.4 -0.6,-0.8 v -0.8 l -0.5,-1.4 0.2,-0.7 -0.6,-1.4 0.1,-0.9 -0.7,-1.1 -1.1999998,-0.3 h -0.7 l 1.8999998,-1.5 1.2,-0.6 1.8,-0.4 0.4,-0.4 3.7,-1 1,-1.1 3.4,-1.4 0.5,-0.5 1.6,-0.5 1.7,-1.3 0.9,-0.9 1.7,-1 1.5,-1.2 1.1,-0.5 1.2,-1.8 0.4,-0.2 4.5,-4.3 1.4,-1.7 -0.6,-0.6 1.4,-1.5 1.6,-2.4 0.9,-1 0.1,-0.7 1.1,-0.7 0.6,-1.1 0.5,-1.3 0.4,-2.4 0.4,-0.8 0.4,-2.9 -0.2,-3.2 0.3,-3.9 -0.6,-5.1 0.3,-1.2 -0.3,-1.1 -0.4,-2.7 -0.7,-2.8 -0.4,-0.5 -1.3,-3.9 -0.1,-1.3 -1.1,-2.1 -0.4,-1.1 -0.7,-0.8 -0.8,-2.1 -0.8,-1.2 -1.3,-1.4 -0.7,-0.2 -0.8,-1.2 -0.8,-1.3 -0.7,-0.4 -0.8,-0.9 -1.1,-0.3 -0.8,-0.7 -2.1,-0.9 -0.9,-0.6 0.2,-0.8 -0.7,-0.7 h -0.5 l -0.9,-1 -0.7,-0.3 -0.5,-1.200004 -1.5,-0.2 -0.4,-0.7 -0.8,0.1 -0.1,-1.2 0.9,-1.2 -0.7,-1 0.5,-0.4 v -1 l -0.3,-0.6 -0.4,-1.9 0.4,-0.4 0.7,1 0.3,-0.8 1.5,-0.1 0.6,-0.9 -0.4,-1.2 0.9,-0.4 0.8,-0.8 -0.3,-1 0.8,-0.2 -0.2,-1 1.8,-1.3 1.4,-0.6 0.4,-0.7 -0.2,-0.9 0.4,-0.9 -0.3,-0.6 -1.1,0.7 -0.2,-0.4 0.7,-0.8 -0.4,-0.6 0.5,-0.6 1.2,-0.7 0.2,-1.8 -0.6,-0.4 -0.3,-1 1,-0.4 0.4,0.6 h 1.4 l 0.7,0.6 0.3,-0.6 -1,-1.5 0.9,-0.1 0.6,-1 1.4,-0.2 -0.9,-2.2 0.3,-1.5 0.7,-1.4 -0.7,-0.7 -0.8,0.3 -1.6,-0.2 -0.3,-0.3 -0.2,-1.1 0.8,-0.4 h 0.8 l -0.9,-1.1 0.8,-0.8 -1.1,-1.2 -0.6,-0.1 0.3,-1.1 -0.5,-0.9 -0.9,-0.5 -0.3,-1 0.5,-0.9 1.2,-0.8 0.5,-1.1 -1.6,-0.2 -0.9,-0.8 -0.7,-1.2 2.5,-2.6 -0.2,-0.4 -1,-0.1 1.8,-1.4 -3.8,2 0.4,-0.9 -0.7,-1 -1.4,0.7 -1.7,0.3 0.3,-1.8 0.8,-1.1 2.7,-3.2 0.5,-0.8 0.5,-2.1 0.9,-0.7 -0.7,-0.6 0.3,-0.9 -0.2,-0.6 -0.2,-2.4 -0.3,-1.3 2,-0.2 0.7,-0.5 -1.3,-1 0.3,-1.3 0.4,-0.6 -1.2,-0.2 -0.6,-1.2 -0.6,-0.6 -1.4,-0.1 -0.6,-0.5 -0.2,-1.2 -0.9,-2.9 0.2,-0.9 -0.3,-1.3 -0.3,-0.3 -0.2,-2.8 -0.3,-1.4 0.3,-1.6 -0.2,-1.6 0.5,-0.4 0.2,-0.8 0.8,-1.1 1,-0.4 1.7,-1.5 1.1,-0.2 0.4,-0.9 1.3,-0.8 0.5,-1 h 1 l 0.2,0.5 1.6,0.5 h 0.9 l 0.3,0.5 1.9,-0.4 0.7,0.5 1.7,0.3 1.9,1.3 h 0.6 l 0.8,0.5 0.7,0.1 1.1,0.6 1.8,0.5 0.4,0.9 1.7,-0.1 1.5,1 1.9,0.4 0.8,0.7 -1.4,0.7 -1.1,0.9 -0.2,0.9 1.8,-1.4 1.1,-0.5 0.9,-1.3 1.9,-0.5 1.7,0.6 0.8,0.8 1.1,-0.2 1.3,0.8 1.1,1.3 1,-1.7 h 3.3 l 1.1,-0.8 0.4,-0.9 0.7,-0.4 0.9,0.3 0.6,-0.6 1.2,-0.6 0.4,-1 0.8,-1.2 2.3,-0.4 0.3,0.2 0.8,1.9 0.8,0.1 0.6,0.6 0.8,-0.1 0.7,1.1 1.2,0.3 0.1,1.3 1.3,1.1 0.2,0.7 1.1,0.3 0.8,0.7 0.8,0.2 0.8,-0.3 1.5,1.1 -0.5,1 0.8,0.3 -0.1,1.9 -0.9,0.6 -0.1,1.7 0.7,1.3 0.3,-0.5 -0.3,-1.3 0.3,-1.2 1.3,0.5 1.5,0.8 1.4,0.2 0.3,0.4 0.6,1.6 -0.6,0.2 v 1.3 l 0.7,-0.5 0.8,0.3 0.9,1.6 -0.3,0.9 -0.7,0.8 -1.3,-0.3 -0.3,0.4 1.6,0.3 1.3,-0.5 0.3,-1.6 -0.2,-0.8 2.2,0.8 1.3,0.7 0.8,0.8 0.3,1 -0.8,0.2 -0.8,0.6 -1.2,-0.1 0.6,1.5 -1.2,1.3 1.3,0.4 1.3,-0.2 -0.6,1 -1.4,0.1 1.3,0.8 -0.1,1.4 1.1,0.4 -0.2,0.6 0.9,0.5 0.4,-0.4 1.2,1.9 1.3,-0.2 0.5,-0.2 1.4,0.9 0.8,-0.1 0.9,0.4 0.2,1 1.1,-0.1 0.5,0.4 0.4,-0.6 1.8,1.2 1.1,-0.7 0.4,0.2 0.8,-0.7 0.9,-0.4 1,0.7 0.5,-0.4 0.9,0.7 -0.5,0.4 v 0.7 l 0.7,1 -0.2,1 0.5,1.6 0.8,0.2 0.9,0.9 0.3,-1.3 0.8,-0.9 0.9,-0.4 v 0.8 h 0.8 l 0.2,-0.7 -0.5,-1 0.5,-2.4 0.5,-0.5 0.8,0.1 1,2.3 0.2,1.4 0.6,0.1 -0.2,0.8 0.2,1.4 -0.1,0.5 -0.7,0.6 -0.7,0.1 -1.1,0.7 -0.5,0.7 -0.8,0.6 0.4,0.9 -0.2,0.8 0.5,0.6 -0.4,0.6 -1.5,0.7 0.8,1.5 -0.2,0.9 0.4,0.3 0.2,0.8 -0.4,1 1.1,2 0.6,0.4 -0.1,2.8 -0.4,0.8 -1,0.4 -1,-0.5 -0.2,1 -0.7,0.5 -4.4,-0.5 -0.4,0.5 -2.7,0.2 -0.9,-0.6 -3.1,-0.7 0.7,0.5 1.6,0.5 1.6,0.7 1.1,0.2 1.1,-0.5 0.7,0.3 1.1,-0.2 0.7,0.5 1.3,0.3 1.2,-0.3 0.9,0.1 1,-0.2 0.6,0.2 -0.1,1.4 1.6,0.5 -0.3,2.1 0.7,0.4 -1.2,1.4 1.5,0.6 0.1,0.6 -0.6,1 -1.4,1 -0.7,1.5 0.9,0.8 0.4,0.9 -0.4,0.6 0.4,0.5 -1.2,0.5 0.2,0.9 1.1,-0.1 2.1,-1.2 0.5,0.1 0.7,0.9 0.9,-0.2 0.2,2.2 -1.4,0.5 -1,-0.6 -0.8,1 -0.2,1.3 0.9,-0.2 0.3,0.5 0.8,-0.1 0.2,0.5 -0.8,0.9 -1,-0.4 0.6,3.9 -0.8,0.1 -0.5,1.8 -0.8,0.3 -0.5,-0.3 -0.4,-1.3 0.5,-0.6 v -0.7 l -0.5,-0.2 -0.1,-1 h -0.8 l -0.5,-1.4 -0.4,1.5 0.8,1.3 0.1,1.4 -0.4,0.4 -1.4,0.4 -0.9,0.1 -1.1,1.2 h 0.9 l 0.2,0.4 1.4,-0.8 -0.2,1.6 1,-0.3 0.5,0.6 -0.9,0.9 0.5,0.9 1,-1 0.5,-1.1 h 0.6 l 0.4,-1.3 1.4,-0.7 0.8,-0.8 0.4,-0.9 1.4,-0.6 3.1,-0.1 1,0.6 1.2,-1 0.7,0.4 1,0.1 1.1,0.8 0.5,0.6 1,0.2 0.5,0.9 -0.2,1.8 0.6,0.6 -0.2,1.1 0.1,0.7 0.7,0.5 0.8,2.600004 -0.4,2 -0.9,2.2 -0.3,1.8 v 0.5 l -1.5,2.2 -0.5,0.2 -2.2,0.4 -1.5,0.8 -1.3,0.3 -0.9,1 -1.1,0.4 -0.9,0.7 -1.7,2 2.6,-2.1 0.4,-0.5 1.8,-1 2.2,-0.7 0.8,-0.5 h 0.8 l 1.6,-0.5 0.6,-0.4 0.3,-0.7 0.9,-1.1 0.2,-2.1 0.5,-0.4 0.3,-1.9 0.4,-0.8 0.2,-1.3 -0.1,-1.2 0.5,-0.900004 h 1.2 l 0.2,-1.3 0.6,0.8 -0.1,0.600004 0.9,0.4 -0.4,1.9 0.1,0.9 0.6,0.9 -0.5,1.5 -2,2.2 0.1,0.9 0.9,-0.8 0.2,-0.8 0.5,-0.8 1.5,-1.6 -0.3,-0.8 v -1.4 l 0.4,-0.9 0.8,-0.4 0.5,0.8 -0.6,2 0.1,0.9 0.8,0.8 -0.6,2.4 0.4,0.5 1,-2.3 0.4,-0.2 0.8,-1.1 h 1.2 l 0.3,-0.8 1.2,-0.4 0.8,-0.8 0.5,0.4 0.6,-0.7 -0.2,-0.7 0.8,-0.3 0.7,-1.3 0.7,0.3 -0.1,0.8 0.9,-0.4 0.1,-0.7 h 2.1 l -0.6,-0.900004 0.5,-0.2 v -0.9 l 0.4,-0.9 0.4,-1.7 1,-0.2 -0.1,-0.7 0.4,-1.8 0.6,-0.4 1.1,1.1 0.4,0.2 0.7,1 0.9,0.5 0.1,0.9 0.5,0.7 1.4,0.9 -0.8,1.8 -0.1,0.800004 0.3,1.3 0.7,-0.7 -0.6,-0.3 0.9,-1.400004 0.4,-1.3 -0.1,-0.6 -0.7,-0.5 -0.3,-0.8 -0.8,-0.5 -0.1,-1 -0.7,-0.5 0.7,-1.5 0.4,-0.2 1.7,0.5 0.6,-0.7 -1.5,-0.3 -0.5,-0.8 1.4,-0.6 -0.3,-1.1 1,-0.2 1.3,-1.1 1,0.2 0.7,-0.5 1,0.5 1,0.1 v -0.5 h -0.8 l -1.2,-0.7 -1.3,0.5 -0.2,-0.9 -0.6,-1 -0.3,-2.4 2,0.5 0.2,-0.4 -0.4,-2.3 0.8,0.2 1.6,1.7 -0.4,-1.3 -0.5,-0.6 0.5,-1.1 -1.6,-1.3 0.2,-0.3 1.2,0.4 0.7,-0.3 2,0.4 v -0.2 l -1.5,-0.8 h -0.9 l -0.4,-0.5 -0.6,-2.1 -0.4,-1.7 -0.3,-0.6 0.9,-0.9 0.6,-1 1.2,-0.7 1.1,0.6 -0.2,-1.3 1,-0.5 0.3,-2.5 -0.2,-0.8 h 0.7 l 0.5,-0.8 -0.4,-0.5 0.8,-0.6 0.4,-1.5 0.8,-0.5 -0.8,-1 0.8,-0.5 0.4,-0.7 v -1.2 l 0.8,0.1 1,0.6 0.7,-0.3 z"
     id="CAN683"
     name="Québec" />
</svg>
