<?xml version="1.0" encoding="utf-8"?>
<!DOCTYPE svg PUBLIC "-//W3C//DTD SVG 1.1//EN" "http://www.w3.org/Graphics/SVG/1.1/DTD/svg11.dtd">
<svg version="1.1" id="Layer_1" xmlns="http://www.w3.org/2000/svg" xmlns:xlink="http://www.w3.org/1999/xlink" x="0px" y="0px"
	 width="500px" height="500px" viewBox="0 0 500 500" enable-background="new 0 0 500 500" xml:space="preserve">
<g>
	<g>
		<path fill="#466ba1" d="M198.168,108.17c13.423-2.884,26.847-5.768,40.253-8.651
			c11.799,9.678,6.165,41.264,23.101,40.486c4.193,16.075,5.304,36.939,14.219,45.706c13.838,4.475,38.696-8.087,50.777-0.928
			c10.888,20.798,21.627,41.812,32.315,62.892c1.376,6.347,2.734,12.711,4.094,19.074c-10.275,3.994-18.113,9.545-25.488,15.429
			c-1.127-5.286-2.271-10.589-3.397-15.893c-6.513,0.961-6.612,6.082-11.584,8.038c6.065,5.352,7.889,13.804,4.541,21.178
			c-9.181,1.956-18.361,3.945-27.543,5.9c-1.955-3.082-3.496-6.828-6.28-8.617c6.761-17.998,2.287-62.692-19.009-67.946
			c-10.556,4.955-10.457,17.335-12.628,23.765c-1.574,4.623-7.226,9.91-6.827,14.766c1.061,12.264,16.937,19.008,16.605,30.774
			c-0.249,7.591-9.546,10.259-10.839,16.738c2.751,9.065,2.337,16.108-0.978,21.245c-10.308,2.337-10.159-6.695-8.485-13.688
			c-16.058,8.153-20.482,24.394-36.905,34.52c-15.744,9.694-43.154,8.651-46.386,26.582c-0.364,0.065-0.713,0.132-1.061,0.216
			c-4.16-1.574-9.43-1.409-13.854-2.569c-0.066-0.349-0.149-0.712-0.215-1.061c4.524-8.916-1.259-24.526-3.712-37.983
			c3-1.707,11.22-0.033,10.126-4.392c8.617-12.595,1.177-30.691-2.354-47.147c-11.667-54.423-25.04-107.686-37.867-155.894
			C144.623,122.803,172.58,116.257,198.168,108.17z"/>
	</g>
</g>
</svg>
