<?xml version="1.0" encoding="utf-8"?>
<!DOCTYPE svg PUBLIC "-//W3C//DTD SVG 1.1//EN" "http://www.w3.org/Graphics/SVG/1.1/DTD/svg11.dtd">
<svg version="1.1" id="Layer_1" xmlns="http://www.w3.org/2000/svg" xmlns:xlink="http://www.w3.org/1999/xlink" x="0px" y="0px"
	 width="500px" height="500px" viewBox="0 0 500 500" enable-background="new 0 0 500 500" xml:space="preserve">
<g>
	<g>
		<path fill="#466ba1" d="M256.288,132.986c31.34,9.174,59.936-1.513,83.468,8.101
			c14.511,5.923,31.377,29.467,43.302,42.137c14.591,15.523,25.936,32.499,41.051,43.601
			c-24.484,13.925-46.583,31.529-55.465,69.506c-2.476,1.092-5.483,1.385-9.655-0.122c-26.473,21.525-49.773,47.932-86.829,53.141
			c-3.264,7.923-9.29,20.178-23.264,18.28c-2.135,5.643,4.794,5.404,1.342,11.9c-8.655-1.03-10.918,7.777-17.58,9.809
			c-29.4-6.466-6.752-46.693-34.981-53.921c5.301-17.274-7.698-22.673-5.472-37.952c-19.806-11.096-33.292-26.284-33.92-49.823
			c-34.116-22.026-50.17-55.769-63.858-91.05c-17.945-4.855-27.9-14.889-37.196-25.351c5.789-13.218,19.849-13.694,25.229-27.54
			c21.208-2.586,39.977-8.912,59.24-14.493c31.267,5.557,59.423,6.307,90.482,11.528c6.325-0.378,1.312,6.6,3.977,8.595
			C249.798,103.409,256.702,120.189,256.288,132.986z"/>
	</g>
</g>
</svg>
