<?xml version="1.0" encoding="utf-8"?>
<!DOCTYPE svg PUBLIC "-//W3C//DTD SVG 1.1//EN" "http://www.w3.org/Graphics/SVG/1.1/DTD/svg11.dtd">
<svg version="1.1" id="Layer_1" xmlns="http://www.w3.org/2000/svg" xmlns:xlink="http://www.w3.org/1999/xlink" x="0px" y="0px"
	 width="500px" height="500px" viewBox="0 0 500 500" enable-background="new 0 0 500 500" xml:space="preserve">
<g>
	<g>
		<path fill="#466ba1" d="M38.844,112.993c133.553,3.021,268.927,4.139,402.311,7.339
			c4.961,12.948-12.248,16.455-12.218,27.417c0.025,11.396,16.199,15.398,19.348,25.33c2.771,8.727,1.215,22.604,1.491,33.531
			c0.831,33.292,1.755,70.079,2.571,102.563c-0.475,2.909-5.058,1.904-7.676,2.771c3.037,5.966,1.403,11.009,2.354,16.725
			c0.852,5.119,4.689,9.528,4.909,15.372c0.337,9.544-7.176,16.965-6.451,25.978c0.607,7.559,5.757,12.524,6.324,20.496
			c-7.166-2.261-13.693-8.007-21.63-13.009c-6.747-4.262-15.086-11.754-23.528-11.677c-10.299,0.097-13.438,9.518-22.354,9.6
			c-5.385,0.051-9.941-3.552-12.417-6.145c-3.333-3.501-3.67-9.253-8.003-10.126c-4.822-0.979-9.799,3.817-15.413,2.966
			c-7.65-1.159-9.758-10.749-15.806-12.51c-9.835-2.873-26.023-1.261-38.119-1.628c-88.094-2.664-184.906-4.757-270.014-8.069
			c4.782-74.788,9.723-149.439,13.719-224.969C38.165,114.034,38.099,113.12,38.844,112.993z"/>
	</g>
</g>
</svg>
