<?xml version="1.0" encoding="utf-8"?>
<!DOCTYPE svg PUBLIC "-//W3C//DTD SVG 1.1//EN" "http://www.w3.org/Graphics/SVG/1.1/DTD/svg11.dtd">
<svg version="1.1" id="Layer_1" xmlns="http://www.w3.org/2000/svg" xmlns:xlink="http://www.w3.org/1999/xlink" x="0px" y="0px"
	 width="500px" height="500px" viewBox="0 0 500 500" enable-background="new 0 0 500 500" xml:space="preserve">
<g>
	<g>
		<path fill="#466ba1" d="M453.519,185.791c0.549,7.583-0.712,10.354-1.638,16.929
			c-9.795,1.687-12.199,11.185-18.026,17.067c-11.858-0.495-18.517,4.512-23.716,11.052c-3.146-0.248-3.191-3.438-6.343-3.686
			c-5.249,1.455-4.536,9.711-11.902,7.282c-4.536,13.866-20.49,15.672-29.365,24.953c-12.264,1.489-24.226,3.3-29.599,12.061
			c0.831,9.276-3.473,14.371-11.467,12.565c-1.465,4.473-2.983,8.88-3.324,14.54c-96.284,5.614-199.865,3.521-303.253,1.622
			c-1.88-1.538,4.744-4.086,7.163-5.065c3.33-5.645-0.628-13.713,1.133-19.872c0.723-2.523,5.565-4.809,7.238-7.99
			c1.969-3.734,2.32-9.161,3.849-12.189c1.939-3.844,7.119-5.857,8.445-9.137c0.722-1.786-0.317-4.234,0.178-6.436
			c0.866-3.814,4.304-7.317,4.967-10.399c1.919-8.845,0.431-18.205,7.173-26.729c25.913,0.094,51.093-0.594,77.272-0.218
			c1.563-3.181,0.529-8.341-0.282-11.131c19.679,5.115,47.328,2.938,71.341,2.548c36.321-0.604,79.276-0.351,116.513-0.9
			c14.86-0.218,29.662,1.227,40.991-0.633c2.414-0.396,4.086-2.196,6.515-2.746c5.818-1.316,13.269-0.351,19.917-0.623
			C408.046,187.814,432.469,186.033,453.519,185.791z"/>
	</g>
</g>
</svg>
