<?xml version="1.0" encoding="utf-8"?>
<!DOCTYPE svg PUBLIC "-//W3C//DTD SVG 1.1//EN" "http://www.w3.org/Graphics/SVG/1.1/DTD/svg11.dtd">
<svg version="1.1" id="Layer_1" xmlns="http://www.w3.org/2000/svg" xmlns:xlink="http://www.w3.org/1999/xlink" x="0px" y="0px"
	 width="500px" height="500px" viewBox="0 0 500 500" enable-background="new 0 0 500 500" xml:space="preserve">
<g>
	<g>
		<path fill="#466ba1" d="M163.984,83.702c18.892,0.585,37.787,1.17,56.684,1.758
			c6.332,1.981,16.071,0.759,23.717,1.504c-1.214,19.98-0.08,37.757-1.013,57.47c2.711,1.667,3.989,4.677,6.705,6.341
			c8.709-3.506,11.244,3.319,16.684,5.888c1.374,0.647,2.942,1.392,3.783,1.65c5.514,1.689,11.34-0.684,16.085,0.496
			c4.414,1.1,6.104,5.858,8.956,7.945c4.037-4.944,8.361-1.554,12.229,1.147c5.02-4.725,13.87-0.946,19.292-4.002
			c3.212,1.692,3.712,5.934,8.235,6.387c4.857-5.244,12.524-2.599,17.859-7.111c3.584,3.655,7.822,1.575,12.181,2.679
			c9.271,2.345,17.32,8.942,28.87,8.562c4.034,13.562,2.021,32.801,3.865,48.42c1.415,1.916,4.003,3.177,5.267,3.232
			c-0.585,6.499,3.621,8.497,5.747,12.446c2.253,10.291,8.523,21.141-0.16,29.896c2.56,8.327-3.079,21.928-0.903,29.107
			c-10.938,1.282-17.79,6.917-27.14,9.891c-9.106,15.896-26.369,23.114-40.902,33.233c-8.348-2.302-10.123,7.142-18.62,7.091
			c0.426,6.257-3.355,8.037-5.717,11.324c-5.577,17.237-8.692,31.9-0.711,47.515c1.189,3.349,6.705,2.627,5.894,7.85
			c-2.942,1.652-7.575,6.019-11.681,5.771c-3.568-0.215-7.548-5.545-12.064-6.51c-3.841-0.818-8.056,0.37-10.726-0.331
			c-3.516-0.924-6.309-4.359-10.532-6.46c-4.659-2.318-11.142-1.911-14.436-4.281c-4.217-3.038-2.411-7.644-4.215-12.398
			c-2.014-5.308-9.264-11.633-9.411-17.928c-1.49-1.979,1.783-3.959,1.003-7.635c-4.117-0.347-6.146-2.653-9.863-3.373
			c-0.816-10.39-7.436-15.322-13.146-21.11c0.763-11.127-8.476-12.854-7.692-24.005c-7.616-3.415-14.245-18.415-22.36-20.63
			c-1.847-0.5-5.94,1.009-9.216,0.482c-3.072-0.493-6.466-3.351-8.33-3.326c-3.369,0.049-7.664,4.769-10.89,5.031
			c-3.872,7.571-7.022,21.116-16.01,21.738c-5.406,0.373-9.335-5.351-13.527-8.855c-9.696,0.366-12.289-5.867-17.306-10.503
			c-3.975-3.671-7.623-5.173-8.956-7.945c-2.124-4.423-0.646-10.11-1.824-15.389c-2.903-13.074-10.286-15.253-19.249-22.069
			c-4.679-3.552-8.663-9.881-14.081-15.768c-6.8-7.395-15.978-12.901-13.815-24.197c31.247,2.112,62.528,4.197,94.121,5.984
			C158.999,174.929,161.986,129.846,163.984,83.702z"/>
	</g>
</g>
</svg>
