<?xml version="1.0" encoding="utf-8"?>
<!DOCTYPE svg PUBLIC "-//W3C//DTD SVG 1.1//EN" "http://www.w3.org/Graphics/SVG/1.1/DTD/svg11.dtd">
<svg version="1.1" id="Layer_1" xmlns="http://www.w3.org/2000/svg" xmlns:xlink="http://www.w3.org/1999/xlink" x="0px" y="0px"
	 width="500px" height="500px" viewBox="0 0 500 500" enable-background="new 0 0 500 500" xml:space="preserve">
<g>
	<g>
		<path fill="#466ba1" d="M151.114,122.357c60.736-15.024,124.847-35.87,183.478-47.239
			c-5.449,8.2,3.716,24.243-3.77,34.312c23.399,25.892,2.394,53-23.665,63.685c-2.204,34.836-3.275,73.602-18.209,104.784
			c-0.821,21.271,9.325,46.935,9.386,69.643c0.03,13.216-8.687,27.396,7.972,36.729c-4.027,1.072-8.056,2.151-12.091,3.23
			c-21.788,1.52-49.063,12.509-72.972,17.676c-12-34.859-11.24-86.194-32.557-107.846c-6.148-0.03-4.932,11.59-8.982,7.949
			c-2.288-14.249-3.382-37.709-18.695-56.055c-0.463-1.725-0.927-3.45-1.391-5.183c13.596-25.816-7.82-68.64-20.686-98.073
			c4.848-4.013,0.342-13.421,2.288-19.113C143.986,125.055,151.92,126.232,151.114,122.357z"/>
	</g>
</g>
</svg>
