<?xml version="1.0" encoding="utf-8"?>
<!DOCTYPE svg PUBLIC "-//W3C//DTD SVG 1.1//EN" "http://www.w3.org/Graphics/SVG/1.1/DTD/svg11.dtd">
<svg version="1.1" id="Layer_1" xmlns="http://www.w3.org/2000/svg" xmlns:xlink="http://www.w3.org/1999/xlink" x="0px" y="0px"
	 width="500px" height="500px" viewBox="0 0 500 500" enable-background="new 0 0 500 500" xml:space="preserve">
<g>
	<g>
		<g>
			<path fill="#466ba1" d="M299.584,174.322c3.136-1.762,3.746-5.962,4.534-9.99
				c4.349-0.342,6.062,2.044,9.48,2.657c-2.541,3.288-0.746,7.74,2.062,9.396c2.842-0.225,5.21,0.04,7.555,0.336
				c0.928,6.56,8.975,5.738,10.585,11.595c-2.751,8.319-12.149,12.668-10.412,23.777c2.399,2.82,8.595,0.861,10.84-0.67
				c3.597,4.116,7.812,7.591,12.458,10.621c1.747-0.012,2.721-0.776,3.746-1.483c5.823,5.647,16.325,6.454,20.074,14.251
				c-1.271,1.404-3.081,2.284-3.697,4.315c0.219,1.699,0.667,3.151,1.031,4.698c-1.407,1.268-3.251,2.117-4.655,3.388
				c4.479,2.305,10.857,4.974,8.723,12.574c-2.329,1.425-6.36-2.979-8.01,0.618c-0.576,3.167,3.412,1.587,3.846,3.703
				c-1.234,2.071-4.677,1.72-6.569,2.011c1.152,5.687,10.7,2.669,12.404,7.788c-1.268,2.636-4.204,3.667-6.506,5.308
				c-3.551-0.318-4.998-2.823-8.549-3.145c1.082,2.171,5.662,7.437,8.634,7.857c3.109,0.446,4.825-2.702,8.429-3.454
				c4.101-0.861,6.845,0.822,10.872,1.216c1.611,4.737,2.639,10.075,3.588,15.498c-1.865,1.756-4.4,2.866-6.044,4.831
				c-76.166,5.784-151.062,12.793-230.376,15.547c-2.081,0.105,0.027-1.156-0.513-2.351c-4.971-0.003-10.02-0.085-12.695,2.12
				c-22.322,0.412-44.64,0.818-66.956,1.231c3.585-5.184,10.733-4.534,15.901-7.367c4.641-2.551,7.731-7.203,12.574-8.726
				c0.343-6.305,7.509-6.038,7.792-12.407c7.503-6.211,18.364-11.1,25.615-17.921c1.313-1.234,2.341-2.899,2.745-4.768
				c2.444,1.119-0.315,3.185,0.094,5.187c2.438,5.119,10.839,12.853,18.139,11.931c4.058-0.513,4.992-3.985,7.415-7.209
				c3.227,0.497,3.934,3.609,6.688,4.595c7.276-1.638,14.6-3.221,15.843-10.669c1.726-1.323,1.571,2.635,3.815,2.286
				c2.781-1.334,4.998-3.212,6.979-5.316c2.111-0.267,2.135,1.632,3.806,1.819c3.424-2.104,5.496-5.511,7.858-8.64
				c-2.799-8.675,2.657-12.089,6.275-18.037c6.836-11.225,9.022-25,14.412-37.055c5.659,0.704,5.805,7.115,9.617,9.727
				c11.761-1.474,9.745-16.235,16.086-22.935c2.578-0.273,2.645,2.065,5.226,1.792c2.038-4.673,5.644-7.837,10.666-9.632
				c0.895-4.698,2.647-8.564,5.933-10.955c-2.263-4.75-0.24-11.055,2.099-14.193C287.113,163.552,291.723,170.622,299.584,174.322z
				"/>
		</g>
		<g>
			<path fill="#466ba1" d="M407.525,221.397c2.041,2.365-5.031,3.733-6.499,5.777
				c0.373,19.355-12.723,25.722-15.744,41.802c-1.726-12.896-1.979-29.834,7.37-35.512c-0.297-2.099-0.543-4.246-1.062-6.114
				C394.663,223.205,401.542,222.732,407.525,221.397z"/>
		</g>
	</g>
</g>
</svg>
