<?xml version="1.0" encoding="utf-8"?>
<!DOCTYPE svg PUBLIC "-//W3C//DTD SVG 1.1//EN" "http://www.w3.org/Graphics/SVG/1.1/DTD/svg11.dtd">
<svg version="1.1" id="Layer_1" xmlns="http://www.w3.org/2000/svg" xmlns:xlink="http://www.w3.org/1999/xlink" x="0px" y="0px"
	 width="500px" height="500px" viewBox="0 0 500 500" enable-background="new 0 0 500 500" xml:space="preserve">
<g>
	<g>
		<path fill="#466ba1" d="M83.615,168.186c0.04-0.4,0.079-0.801,0.119-1.201
			c23.661,11.548,49.838,26.394,82.046,27.282c14.651,14.775-6.848,36.767,4.727,51.265c10.726-2.614,8.917-32.022,19.515-39.25
			c-4.85-11.078-11.188-20.936-16.284-31.816c9.044,0.568,8.674-11.403,6.531-17.517c-7.337,1.594-7.988-9.774-9.282-16.618
			c31.165,3.01,62.325,6.021,93.489,9.026c49.667,7.623,105.033,10.55,156.892,16.363c-2.451,25.386-5.141,53.263-7.869,81.5
			c-3.68,38.101-9.52,76.184-6.126,101.028c-32.622,1.466-77.491-11.931-102.688-1.452c-25.117-7.693-43.074,14.604-66.964,4.424
			c-5.981,2.112-12.165,3.982-18.674,5.452c-21.601-16.843-54.579,8.438-73.961-10.773c-0.154-10.536-0.542-20.879-3.217-29.343
			c-16.346-7.253-31.926-11.219-47.981-16.729c1.1-7.253,1.355-12.776,2.821-16.667c2.958,1.606,0.638,2.526,3.006,4.621
			c3.737-13.837,1.008-12.513-2.583-21.518c2.645-2.451,0.929-2.095,5.193-5.506c-4.674-3.921-1.659-5.408-5.352-5.396
			c-3.816-16.39-0.916-30.227-4.106-45.156C90.199,197.735,77.973,185.385,83.615,168.186z"/>
	</g>
</g>
</svg>
