<?xml version="1.0" encoding="utf-8"?>
<!DOCTYPE svg PUBLIC "-//W3C//DTD SVG 1.1//EN" "http://www.w3.org/Graphics/SVG/1.1/DTD/svg11.dtd">
<svg version="1.1" id="Layer_1" xmlns="http://www.w3.org/2000/svg" xmlns:xlink="http://www.w3.org/1999/xlink" x="0px" y="0px"
	 width="500px" height="500px" viewBox="0 0 500 500" enable-background="new 0 0 500 500" xml:space="preserve">
<g>
	<g>
		<path fill="#466ba1" d="M192.088,96.539c2.579-0.292,5.162-0.592,7.746-0.889
			c1.481,24.975,5.982,47.667,8.396,73.016c21.318,0.161,46.872-5.016,69.821-6.905c1.53,13.272,3.06,26.548,4.584,39.825
			c6.993-4.511,19.124-13.631,24.262-22.969c2.209,1.438,6.337,0.461,8.124,2.428c5.162-5.283,7.872-12.519,12.476-18.249
			c3.326,0.592,1.433,1.51,1.612,4.297c5.973,0.5,12.135,0.762,17.103,2.521c2.277-1.209,1.229-5.06,2.555-7.022
			c15.078-4.497,29.428-6.75,43.53-1.642c0.631,2.511-3.055,1.598-2.938,3.7c0.733,2.875,3.118,3.676,7.018,2.555
			c-1.336,5.963,1.99,10.096,4.978,14c0.043,0.374,0.082,0.743,0.126,1.107c-2.816,4.803-4.434,10.557-7.197,15.403
			c-11.94-7.337-23.959-14.568-36.114-21.634c-1.511,6.483-6.784,17.351-2.86,23.873c-7.853,12.64-21.255,18.817-26.18,35.518
			c-2.743-1.607-5.963-2.623-8.386-4.643c-10.47,8.775-8.678,27.292-18.177,36.843c-10.906-0.194-16.967-6.493-23.78-11.839
			c-6.211,30.127-24.766,48.983-35.979,76.998c1.17,3.166,3.321,5.099,6.293,6.002c-1.505,2.826-6.226,3.104-8.343,5.443
			c0.641,1.307,1.675,2.107,3.574,1.831c-2.312,4.2-5.521,7.688-10.047,10.12c-4.206,1.923-3.05-2.914-5.91-2.681
			c-7.129,0.991-11.625,12.714-18.171,7.697c-4.395,1.248-1.554,3.545-2.686,5.909c-12.621,1.666-26.179,15.646-35.275,5.177
			c-1.602,4.094-6.147,5.847-9.061,8.892c-4.798,0.554-9.596,1.103-14.384,1.651c-7.27-4.963-21.668-10.94-17.186-22.683
			c-8.799,3.253-11.805-4.322-16.501-7.07c-1.224-0.709-7.056,0.262-9.362-3.404c-3.511-5.57-5.507-12.85-12.971-15.321
			c-0.214-10.713-6.672-13.554-12.121-17.661c-0.17-1.477-0.34-2.953-0.51-4.43c4.706-5.783-0.315-13.058-0.33-22.376
			c6.964-0.175,11.553-2.225,16.341-4.123c2.083-5.051,1.272-12.393,8.557-13.315c-0.438-2.86-4.332-8.936-3.866-14.127
			c0.238-2.651,3.754-3.428,4.895-6.167c3.166-7.604,1.166-14.738,7.197-15.398c2.486-0.277,1.02,2.137,3.7,2.938
			c6.575,1.947,2.103,5.837,6.551,8.211c9.61-7.585-2.107-32.706,16.351-33.269c0.015-5.682,1.753-9.999,6.473-11.956
			c5.041-1.709,4.181,4.016,9.231,2.302c13.903-4.045,14.626-18.545,27.578-23.348c-0.991-2.928,2.161-4.089,2.554-7.017
			c0.753-5.614-1.466-13.252,0.049-19.065c0.481-1.831,2.472-2.695,2.812-4.802c0.471-2.895-0.466-5.861,0.088-8.979
			c1.292-7.274,6.327-13.417,6.691-19.823c0.466-8.372-4.419-15.316-5.997-22.853C190.268,98.452,191.394,97.666,192.088,96.539z"
			/>
	</g>
</g>
</svg>
