<?xml version="1.0" encoding="utf-8"?>
<!DOCTYPE svg PUBLIC "-//W3C//DTD SVG 1.1//EN" "http://www.w3.org/Graphics/SVG/1.1/DTD/svg11.dtd">
<svg version="1.1" id="Layer_1" xmlns="http://www.w3.org/2000/svg" xmlns:xlink="http://www.w3.org/1999/xlink" x="0px" y="0px"
	 width="500px" height="500px" viewBox="0 0 500 500" enable-background="new 0 0 500 500" xml:space="preserve">
<g>
	<g>
		<path fill="#466ba1" d="M175.547,80.434c5.52,2.057,7.976-2.397,12.736-1.924
			c6.545,0.651,10.26,10.423,18.482,7.172c0.222,7.315,10.704,4.863,14.714,8.568c1.401,3.28-0.04,9.258,1.948,11.986
			c15.829,5.105,36.294,12.554,54.826,16.268c3.039,0.607,7.547-0.138,10.423,1.001c4.982,1.973,6.792,9.392,11.681,10.733
			c6.131-1.253,7.754,0.547,11.113,3.255c10.433-3.566,22.576,1.731,30.469,5.229c-2.63,11.784,12.938,10.427,18.245,16.86
			c2.19,9.761-2.278,18.98-3.66,27.523c2.407,3.335,11.503,0.656,14.133,1.835c-0.262,5.076-5.066,5.382-6.195,9.55
			c0.631,8.38,6.22,12.041,12.307,15.227c-12.771,11.606-29.62,22.912-28.742,46.312c10.171,0.666,14.724-9.91,20.554-16.657
			c5.924-6.856,12.958-11.039,19.81-16.677c2.422-1.993,6.816-7.172,7.699-9.52c1.392-3.699,0.213-8.444,1.781-11.897
			c2.116-4.642,7.665-9.451,12.973-11.626c3.014,11.532-5.105,23.356-10.531,34.074c-2.807,5.54-4.918,10.803-7.138,16.993
			c-2.333,6.501-7.354,11.453-8.637,17.698c-1.647,7.971,1.312,17.225-2.097,24.574c-2.155,4.661-9.554,7.127-10.748,12.42
			c-1.021,4.504,1.45,7.932,1.924,12.736c0.642,6.629,0.197,16.213-2.797,23.069c-1.356,3.093-4.094,4.42-5.406,7.33
			c-7.23,15.977-4.858,39.353-1.316,53.701c2.343,9.521,6.545,21.467,3.581,36.654c-58.451,1.085-118.24,0.779-176.908,1.643
			c-0.153-15.883-16.347-16.484-27.065-22.306c-1.307-10.664-6.901-20.982-5.165-32.959c0.523-3.581,5.381-8.321,4.79-12.573
			c-0.612-4.351-6.772-5.717-8.716-9.915c-4.435-9.559,0.913-21.703-0.676-33.596c-1.085-8.184-11.498-13.313-18.932-19.119
			c-6.743-5.268-16.149-11.843-19.701-18.394c-1.727-3.187-1.711-8.913-3.458-11.28c-4.296-5.82-15.804-6.176-20.663-9.461
			c-0.966-1.993-0.754-5.105-1.307-7.493c-4.464-2.55-10.531-3.576-17.066-4.147c-2.881-5.994-9.17-8.746-12.332-14.482
			c3.073-14.581,0.306-32.245,4.099-45.42c0.997-3.458,5.954-6.377,6.206-9.554c0.705-9.076-9.846-11.295-14.497-17.516
			c0.227-9.974,10.995-10.28,8.716-20.683c8.736-6.377,17.141-13.106,28.037-17.225c4.913-12.42-2.733-32.027,1.125-46.238
			c1.529-5.643,7.207-6.644,9.239-11.725c24.333,15.025,55.886-10.862,72.805-16.87c3.152-1.12,7.059,4.972,7.291,6.896
			C184.544,69.035,176.375,72.029,175.547,80.434z"/>
	</g>
</g>
</svg>
