<?xml version="1.0" encoding="UTF-8" standalone="no"?>
<!--
************* Copyright (c) 2017 Pareto Softare, LLC DBA Simplemaps.com *******************		
************* Free for Commercial Use, full terms at  http://simplemaps.com/resources/svg-license ************
************* Attribution is appreciated! http://simplemaps.com ***************************
-->
<svg
   fill="#466ba1"
   height="268"
   version="1.2"
   viewbox="0 0 1000 1298"
   width="202"
   id="svg5"
   xmlns:inkscape="http://www.inkscape.org/namespaces/inkscape"
   xmlns:sodipodi="http://sodipodi.sourceforge.net/DTD/sodipodi-0.dtd"
   xmlns="http://www.w3.org/2000/svg"
   xmlns:svg="http://www.w3.org/2000/svg">
  <defs
     id="defs9" />
  <g
     id="g2" />
  <path
     d="m 56.11057,28.922949 v 20.8 15.4 l 0.4,2.2 1.5,0.5 0.6,0.9 0.4,1.2 0.2,2.1 -0.4,2.5 1,0.9 -0.2,0.5 0.4,1.8 -0.2,0.7 -0.2,1.4 -1.1,1.1 0.3,1.2 -0.2,0.8 v 1.6 l 0.7,1.8 h 26.3 l -0.5,0.5 h -1.7 l -0.7,0.6 0.2,0.6 1.6,0.9 1,1.4 0.2,1 0.7,0.9 -0.2,0.9 -0.6,1.2 0.9,1.3 -0.3,0.6 0.8,0.9 0.2,0.8 0.9,0.5 0.1,0.6 -0.8,0.7 -0.1,1.000001 0.5,1.1 -0.2,0.7 -0.9,-0.5 -0.3,0.5 -0.1,1.5 -0.6,2 0.7,0.4 1.4,-0.2 0.6,0.3 0.2,0.9 -0.1,1.1 0.2,1.2 -0.1,0.7 -1.1,1 -0.5,1.3 1.1,0.6 -0.2,1.8 0.2,0.7 1.2,0.1 0.9,0.4 0.8,-0.6 0.1,-0.5 0.7,-0.1 1.8,-1 2.3,-0.1 v 1.3 l -0.8,1.5 0.6,0.5 0.9,-0.1 0.6,-0.5 0.3,-1.1 0.6,-0.4 0.7,-1 1.1,-0.3 0.5,1.1 0.4,0.3 1.1,-0.5 0.4,0.2 0.1,1.3 -1.9,1.1 -0.6,1 v 0.6 l 2.2,2 0.9,1.5 0.1,0.8 0.7,0.8 0.5,1.5 -0.1,0.6 -1,1 -0.6,2.9 -1.9,1.8 -0.7,1.3 v 1.1 l -1,0.3 -0.8,1.2 -0.1,1 -0.5,0.5 0.6,0.5 1,-0.5 0.4,-0.5 0.7,0.9 -0.3,1.5 1.1,0.6 0.8,-0.1 0.4,0.4 0.2,1 -0.8,0.5 -0.3,0.8 -0.7,0.3 -0.2,0.8 0.3,1 -0.2,1.1 -0.9,0.4 -0.4,0.7 0.6,1.2 0.9,-0.2 1.9,0.4 1.8,1.7 1.2,0.2 1.2,2.5 1.1,1.2 1.3,0.3 0.6,0.6 -0.4,0.9 -1,1.6 v 1.3 l 1.4,-0.4 0.7,0.6 2.2,-1.2 0.2,-1.2 0.4,-0.1 1.3,0.9 1.2,0.2 0.9,1.3 0.1,0.6 0.6,0.7 -0.6,1.2 1,0.4 0.4,1.4 0.7,0.5 -0.8,1 0.2,1 0.6,0.7 0.1,1.1 1,-0.2 v 1 l 0.4,1 1.4,0.8 0.8,0.2 1.3,1.1 0.8,1.3 1.6,0.9 0.9,-0.1 0.5,0.7 -0.4,0.6 h -0.8 l -0.9,0.5 -0.4,0.6 0.5,1.1 0.6,0.1 1,-0.9 0.5,0.4 -0.2,0.7 0.2,0.8 1.2,0.1 0.3,1.1 0.7,0.5 0.8,2.1 -0.8,0.6 -0.3,2.1 -0.6,0.5 -1.1,0.3 -0.7,0.6 -0.2,1.1 1.3,0.3 0.6,1.4 1,0.5 0.5,2.3 1.2,0.7 1.4,-0.2 0.2,0.7 -0.7,1.1 -0.5,1.3 -0.2,1 -0.5,0.6 v 0.8 l 0.7,0.7 0.8,1.7 0.1,1.2 1.1,0.7 0.4,1.7 -0.7,0.4 v 0.6 l 1.2,-0.6 1.3,1.4 1.5,0.7 0.3,0.7 -1.1,0.5 -0.4,0.8 0.3,0.7 0.7,0.5 -0.6,0.5 -0.4,0.8 0.3,1.4 0.7,1.7 -0.7,0.5 1.7,1.4 1.5,-0.5 1.3,0.6 0.4,1 0.9,0.2 0.5,-1 0.4,-0.4 h 1.6 l 0.9,1.4 0.8,0.5 0.1,1.2 1.1,0.9 0.5,0.9 0.1,1.1 0.4,0.6 1,-0.3 0.5,0.5 0.7,1.7 v 0.9 l 0.4,0.9 0.6,0.3 0.9,1.2 0.7,0.6 0.8,0.3 0.5,1.1 1.4,0.8 1.7,0.1 0.8,-0.4 1.9,1.4 0.2,1.3 0.6,0.7 0.1,1.3 0.4,1.4 0.3,1.8 -0.3,0.8 0.2,0.6 -0.9,0.9 0.3,1 0.8,-0.5 0.7,0.4 v 1.2 l 0.4,1.4 -0.3,0.6 0.1,1.4 0.4,0.5 -0.1,1.1 0.4,0.5 0.7,-0.5 1.5,0.8 1,-1.2 0.7,-0.3 1.3,0.8 1.7,-0.2 0.2,-0.8 v -0.9 l 1.2,-0.1 0.3,1.2 h 1.1 l 0.4,-1.3 0.6,-0.6 0.9,0.3 1.2,1.1 1.9,0.3 1.6,0.8 h 1 l 1.8,-1.5 1.6,-0.2 1.4,0.1 0.3,-0.2 v -1.4 l 0.5,-0.8 1.8,0.1 0.8,-0.2 0.3,0.6 0.4,2 0.6,1.5 -0.3,0.6 -1.1,1 -0.2,0.8 0.5,1 1.2,1.4 0.3,0.6 0.3,1.7 1.5,-0.1 0.8,0.5 v 2 l 0.2,1 1.3,3 0.7,0.9 0.4,1.4 -0.5,1.3 0.4,0.5 1.1,-0.5 0.6,0.4 0.3,0.5 h -172.1 l -1.4,-1.6 v -0.6 l 1.2,-4.6 -0.3,-1.1 -5.9,0.3 -1.2,0.6 -2.1,2.3 -1.1,0.5 -4.6,-2.4 -0.5,0.1 -0.7999998,1.6 -5,-1.8 -0.3,-0.6 V 98.122949 5.2229485 l 2.1,0.4 2,0.7 2.6999998,0.5 2,0.1 0.8,-0.7 2.7,-0.1 2.3,1.1 0.1,0.5 3.8,0.9 0.8,0.9 1.7,0.1 0.4,0.5000005 0.9,1.8 0.8,1.2 2.2,1.5 1.4,2.4 0.4,1.3 0.5,-0.4 1.2,0.7 0.4,-0.7 0.3,-1.7 0.4,0.1 0.5,2.4 1,1.5 1.5,1.4 6.5,3.9 1,0.1 v 0.6 l 1.4,0.6 1.3,0.9 1.4,-0.3 0.8,0.3 0.4,0.6 0.6,0.2 1.2,1 1.5,0.4 0.7,-0.7 1.2,-0.5 z m -27.4,-21.8000005 -0.4,0.4 -0.9,-0.2 -0.7,0.3 -0.7,1.3 -0.7,-0.2 -1,-1.4 h -0.6 l 1.1,-1.5 1.2,-0.7 1.1,0.7 0.7,0.3 z"
     id="CAN636"
     name="Yukon" />
</svg>
